solid left outside holder ver2
facet normal 1.0 -5.235995067287994e-17 3.8024733987297e-17
  outer loop
    vertex 7.000000000000004 9.600000000000001 0.0
    vertex 7.000000000000004 7.000000000000003 8.0
    vertex 7.000000000000004 7.000000000000003 0.0
  endloop
endfacet
facet normal 1.0 -5.235995067287994e-17 3.8024733987297e-17
  outer loop
    vertex 7.000000000000004 7.000000000000003 8.0
    vertex 7.000000000000004 9.600000000000001 0.0
    vertex 7.000000000000003 9.600000000000003 4.4
  endloop
endfacet
facet normal 1.0 -5.235995067287994e-17 3.8024733987297e-17
  outer loop
    vertex 7.000000000000004 7.000000000000003 8.0
    vertex 7.000000000000003 9.600000000000003 4.4
    vertex 7.000000000000003 10.600000000000003 6.400000000000001
  endloop
endfacet
facet normal 1.0 -5.235995067287994e-17 3.8024733987297e-17
  outer loop
    vertex 7.000000000000004 7.000000000000003 8.0
    vertex 7.000000000000003 10.600000000000003 6.400000000000001
    vertex 7.000000000000004 14.600000000000001 8.0
  endloop
endfacet
facet normal 1.0 -5.235995067287994e-17 3.8024733987297e-17
  outer loop
    vertex 7.000000000000004 14.600000000000001 8.0
    vertex 7.000000000000003 10.600000000000003 6.400000000000001
    vertex 7.000000000000004 14.600000000000001 6.400000000000001
  endloop
endfacet
facet normal 1.0 -5.235995067287994e-17 3.8024733987297e-17
  outer loop
    vertex 7.000000000000004 14.600000000000001 8.0
    vertex 7.000000000000004 14.600000000000001 6.400000000000001
    vertex 7.000000000000004 14.600000000000001 7.5
  endloop
endfacet
facet normal -5.1072440507303e-18 -0.894427190999916 0.4472135954999577
  outer loop
    vertex 14.000000000000002 10.600000000000003 6.400000000000001
    vertex 7.000000000000003 9.600000000000003 4.4
    vertex 14.000000000000002 9.600000000000003 4.4
  endloop
endfacet
facet normal -5.1072440507303e-18 -0.894427190999916 0.4472135954999577
  outer loop
    vertex 7.000000000000003 9.600000000000003 4.4
    vertex 14.000000000000002 10.600000000000003 6.400000000000001
    vertex 7.000000000000003 10.600000000000003 6.400000000000001
  endloop
endfacet
facet normal -1.0 0.0 0.0
  outer loop
    vertex 14.000000000000002 7.000000000000003 8.0
    vertex 14.000000000000002 10.600000000000003 6.400000000000001
    vertex 14.000000000000002 7.000000000000003 0.0
  endloop
endfacet
facet normal -1.0 0.0 0.0
  outer loop
    vertex 14.000000000000002 10.600000000000003 6.400000000000001
    vertex 14.000000000000002 7.000000000000003 8.0
    vertex 14.000000000000002 14.600000000000001 8.0
  endloop
endfacet
facet normal -1.0 0.0 0.0
  outer loop
    vertex 14.000000000000002 7.000000000000003 0.0
    vertex 14.000000000000002 10.600000000000003 6.400000000000001
    vertex 14.000000000000002 9.600000000000003 4.4
  endloop
endfacet
facet normal -1.0 0.0 0.0
  outer loop
    vertex 14.000000000000002 10.600000000000003 6.400000000000001
    vertex 14.000000000000002 14.600000000000001 8.0
    vertex 14.000000000000002 14.600000000000001 6.400000000000001
  endloop
endfacet
facet normal -1.0 0.0 0.0
  outer loop
    vertex 14.000000000000002 14.600000000000001 6.400000000000001
    vertex 14.000000000000002 14.600000000000001 8.0
    vertex 14.000000000000002 14.600000000000001 7.5
  endloop
endfacet
facet normal -1.0 0.0 0.0
  outer loop
    vertex 14.000000000000002 9.600000000000003 0.0
    vertex 14.000000000000002 7.000000000000003 0.0
    vertex 14.000000000000002 9.600000000000003 4.4
  endloop
endfacet
facet normal -0.0 -1.0 -0.0
  outer loop
    vertex 33.0 20.600000000000005 7.5
    vertex 26.000000000000004 20.600000000000005 6.400000000000001
    vertex 33.0 20.600000000000005 6.400000000000001
  endloop
endfacet
facet normal -0.0 -1.0 -0.0
  outer loop
    vertex 26.000000000000004 20.600000000000005 6.400000000000001
    vertex 33.0 20.600000000000005 7.5
    vertex 26.000000000000004 20.600000000000005 7.5
  endloop
endfacet
facet normal 0.0 1.0 0.0
  outer loop
    vertex 26.000000000000004 15.600000000000005 7.5
    vertex 33.0 15.600000000000005 6.400000000000001
    vertex 26.000000000000004 15.600000000000005 6.400000000000001
  endloop
endfacet
facet normal 0.0 1.0 0.0
  outer loop
    vertex 33.0 15.600000000000005 6.400000000000001
    vertex 26.000000000000004 15.600000000000005 7.5
    vertex 33.0 15.600000000000005 7.5
  endloop
endfacet
facet normal -1.0 0.0 0.0
  outer loop
    vertex 33.0 20.600000000000005 8.0
    vertex 33.0 15.600000000000005 7.5
    vertex 33.0 15.600000000000005 8.0
  endloop
endfacet
facet normal -1.0 0.0 0.0
  outer loop
    vertex 33.0 15.600000000000005 7.5
    vertex 33.0 20.600000000000005 8.0
    vertex 33.0 15.600000000000005 6.400000000000001
  endloop
endfacet
facet normal -1.0 0.0 0.0
  outer loop
    vertex 33.0 15.600000000000005 6.400000000000001
    vertex 33.0 20.600000000000005 8.0
    vertex 33.0 20.600000000000005 6.400000000000001
  endloop
endfacet
facet normal -1.0 0.0 0.0
  outer loop
    vertex 33.0 20.600000000000005 6.400000000000001
    vertex 33.0 20.600000000000005 8.0
    vertex 33.0 20.600000000000005 7.5
  endloop
endfacet
facet normal 0.0 0.0 1.0
  outer loop
    vertex 33.0 15.600000000000005 6.400000000000001
    vertex 26.000000000000004 20.600000000000005 6.400000000000001
    vertex 26.000000000000004 15.600000000000005 6.400000000000001
  endloop
endfacet
facet normal 0.0 0.0 1.0
  outer loop
    vertex 26.000000000000004 20.600000000000005 6.400000000000001
    vertex 33.0 15.600000000000005 6.400000000000001
    vertex 33.0 20.600000000000005 6.400000000000001
  endloop
endfacet
facet normal 1.0 0.0 0.0
  outer loop
    vertex 26.000000000000004 20.600000000000005 6.400000000000001
    vertex 26.000000000000004 15.600000000000005 7.5
    vertex 26.000000000000004 15.600000000000005 6.400000000000001
  endloop
endfacet
facet normal 1.0 0.0 0.0
  outer loop
    vertex 26.000000000000004 15.600000000000005 7.5
    vertex 26.000000000000004 20.600000000000005 6.400000000000001
    vertex 26.000000000000004 15.600000000000005 8.0
  endloop
endfacet
facet normal 1.0 0.0 0.0
  outer loop
    vertex 26.000000000000004 15.600000000000005 8.0
    vertex 26.000000000000004 20.600000000000005 6.400000000000001
    vertex 26.000000000000004 20.600000000000005 8.0
  endloop
endfacet
facet normal 1.0 0.0 0.0
  outer loop
    vertex 26.000000000000004 20.600000000000005 8.0
    vertex 26.000000000000004 20.600000000000005 6.400000000000001
    vertex 26.000000000000004 20.600000000000005 7.5
  endloop
endfacet
facet normal 1.0 0.0 0.0
  outer loop
    vertex 35.0 30.000000000000007 1.4099832412739487e-15
    vertex 35.0 5.183729740183349e-15 8.0
    vertex 35.0 5.183729740183349e-15 1.4099832412739487e-15
  endloop
endfacet
facet normal 1.0 0.0 0.0
  outer loop
    vertex 35.0 5.183729740183349e-15 8.0
    vertex 35.0 30.000000000000007 1.4099832412739487e-15
    vertex 35.0 30.000000000000007 8.0
  endloop
endfacet
facet normal 0.0 1.0 0.0
  outer loop
    vertex 5.639932965095795e-15 30.000000000000007 1.4099832412739487e-15
    vertex 7.000000000000004 30.000000000000007 6.400000000000001
    vertex 35.0 30.000000000000007 1.4099832412739487e-15
  endloop
endfacet
facet normal 0.0 1.0 0.0
  outer loop
    vertex 7.000000000000004 30.000000000000007 6.400000000000001
    vertex 5.639932965095795e-15 30.000000000000007 1.4099832412739487e-15
    vertex 5.639932965095795e-15 30.000000000000007 8.0
  endloop
endfacet
facet normal 0.0 1.0 0.0
  outer loop
    vertex 7.000000000000004 30.000000000000007 6.400000000000001
    vertex 5.639932965095795e-15 30.000000000000007 8.0
    vertex 7.000000000000004 30.000000000000007 8.0
  endloop
endfacet
facet normal 0.0 1.0 0.0
  outer loop
    vertex 14.000000000000002 30.000000000000007 8.0
    vertex 26.000000000000004 30.000000000000007 6.400000000000001
    vertex 14.000000000000002 30.000000000000007 6.400000000000001
  endloop
endfacet
facet normal 0.0 1.0 0.0
  outer loop
    vertex 26.000000000000004 30.000000000000007 6.400000000000001
    vertex 14.000000000000002 30.000000000000007 8.0
    vertex 26.000000000000004 30.000000000000007 8.0
  endloop
endfacet
facet normal 0.0 1.0 0.0
  outer loop
    vertex 35.0 30.000000000000007 1.4099832412739487e-15
    vertex 33.0 30.000000000000007 6.400000000000001
    vertex 35.0 30.000000000000007 8.0
  endloop
endfacet
facet normal 0.0 1.0 0.0
  outer loop
    vertex 33.0 30.000000000000007 6.400000000000001
    vertex 35.0 30.000000000000007 1.4099832412739487e-15
    vertex 7.000000000000004 30.000000000000007 6.400000000000001
  endloop
endfacet
facet normal 0.0 1.0 0.0
  outer loop
    vertex 33.0 30.000000000000007 6.400000000000001
    vertex 7.000000000000004 30.000000000000007 6.400000000000001
    vertex 14.000000000000002 30.000000000000007 6.400000000000001
  endloop
endfacet
facet normal 0.0 1.0 0.0
  outer loop
    vertex 33.0 30.000000000000007 6.400000000000001
    vertex 14.000000000000002 30.000000000000007 6.400000000000001
    vertex 26.000000000000004 30.000000000000007 6.400000000000001
  endloop
endfacet
facet normal 0.0 1.0 0.0
  outer loop
    vertex 35.0 30.000000000000007 8.0
    vertex 33.0 30.000000000000007 6.400000000000001
    vertex 33.0 30.000000000000007 8.0
  endloop
endfacet
facet normal 1.633156689316262e-17 -2.9079056888956964e-17 -1.0
  outer loop
    vertex 5.639932965095795e-15 30.000000000000007 1.4099832412739487e-15
    vertex 0.683495768658943 8.562334125757443 1.4099832412739487e-15
    vertex 7.30516100012845e-16 10.000000000000004 0.0
  endloop
endfacet
facet normal 1.633156689316262e-17 -2.9079056888956964e-17 -1.0
  outer loop
    vertex 0.683495768658943 8.562334125757443 1.4099832412739487e-15
    vertex 5.639932965095795e-15 30.000000000000007 1.4099832412739487e-15
    vertex 18.750000000000004 20.165063509461103 1.4099832412739487e-15
  endloop
endfacet
facet normal 1.633156689316262e-17 -2.9079056888956964e-17 -1.0
  outer loop
    vertex 18.750000000000004 20.165063509461103 1.4099832412739487e-15
    vertex 5.639932965095795e-15 30.000000000000007 1.4099832412739487e-15
    vertex 35.0 30.000000000000007 1.4099832412739487e-15
  endloop
endfacet
facet normal 1.633156689316262e-17 -2.9079056888956964e-17 -1.0
  outer loop
    vertex 0.683495768658943 8.562334125757443 1.4099832412739487e-15
    vertex 18.750000000000004 20.165063509461103 1.4099832412739487e-15
    vertex 1.5043784524428334 7.198442175784845 2.8199664825478975e-15
  endloop
endfacet
facet normal 1.633156689316262e-17 -2.9079056888956964e-17 -1.0
  outer loop
    vertex 1.5043784524428334 7.198442175784845 2.8199664825478975e-15
    vertex 18.750000000000004 20.165063509461103 1.4099832412739487e-15
    vertex 18.23223304703363 19.767766952966372 1.4099832412739487e-15
  endloop
endfacet
facet normal 1.633156689316262e-17 -2.9079056888956964e-17 -1.0
  outer loop
    vertex 1.5043784524428334 7.198442175784845 2.8199664825478975e-15
    vertex 18.23223304703363 19.767766952966372 1.4099832412739487e-15
    vertex 2.454770531966895 5.921412604116971 2.8199664825478975e-15
  endloop
endfacet
facet normal 1.633156689316262e-17 -2.9079056888956964e-17 -1.0
  outer loop
    vertex 2.454770531966895 5.921412604116971 2.8199664825478975e-15
    vertex 18.23223304703363 19.767766952966372 1.4099832412739487e-15
    vertex 7.000000000000004 9.600000000000001 0.0
  endloop
endfacet
facet normal 1.633156689316262e-17 -2.9079056888956964e-17 -1.0
  outer loop
    vertex 2.454770531966895 5.921412604116971 2.8199664825478975e-15
    vertex 7.000000000000004 9.600000000000001 0.0
    vertex 3.5255516637551634 4.743500298576979 4.229949723821846e-15
  endloop
endfacet
facet normal 1.633156689316262e-17 -2.9079056888956964e-17 -1.0
  outer loop
    vertex 3.5255516637551634 4.743500298576979 4.229949723821846e-15
    vertex 7.000000000000004 9.600000000000001 0.0
    vertex 4.706446202713473 3.676008977958986 4.229949723821846e-15
  endloop
endfacet
facet normal 1.633156689316262e-17 -2.9079056888956964e-17 -1.0
  outer loop
    vertex 4.706446202713473 3.676008977958986 4.229949723821846e-15
    vertex 7.000000000000004 9.600000000000001 0.0
    vertex 5.98612181134003 2.7291827170100387 4.229949723821846e-15
  endloop
endfacet
facet normal 1.633156689316262e-17 -2.9079056888956964e-17 -1.0
  outer loop
    vertex 7.000000000000004 9.600000000000001 0.0
    vertex 18.23223304703363 19.767766952966372 1.4099832412739487e-15
    vertex 17.834936490538905 19.25 1.4099832412739487e-15
  endloop
endfacet
facet normal 1.633156689316262e-17 -2.9079056888956964e-17 -1.0
  outer loop
    vertex 7.000000000000004 9.600000000000001 0.0
    vertex 17.834936490538905 19.25 1.4099832412739487e-15
    vertex 17.58518543427733 18.647047612756307 1.4099832412739487e-15
  endloop
endfacet
facet normal 1.633156689316262e-17 -2.9079056888956964e-17 -1.0
  outer loop
    vertex 7.000000000000004 9.600000000000001 0.0
    vertex 17.58518543427733 18.647047612756307 1.4099832412739487e-15
    vertex 14.000000000000002 9.600000000000003 0.0
  endloop
endfacet
facet normal 1.633156689316262e-17 -2.9079056888956964e-17 -1.0
  outer loop
    vertex 14.000000000000002 9.600000000000003 0.0
    vertex 17.58518543427733 18.647047612756307 1.4099832412739487e-15
    vertex 14.000000000000002 7.000000000000003 0.0
  endloop
endfacet
facet normal 1.633156689316262e-17 -2.9079056888956964e-17 -1.0
  outer loop
    vertex 14.000000000000002 7.000000000000003 0.0
    vertex 17.58518543427733 18.647047612756307 1.4099832412739487e-15
    vertex 15.000000000000004 0.0 4.229949723821846e-15
  endloop
endfacet
facet normal 1.633156689316262e-17 -2.9079056888956964e-17 -1.0
  outer loop
    vertex 15.000000000000004 0.0 4.229949723821846e-15
    vertex 17.58518543427733 18.647047612756307 1.4099832412739487e-15
    vertex 17.5 18.000000000000004 1.4099832412739487e-15
  endloop
endfacet
facet normal 1.633156689316262e-17 -2.9079056888956964e-17 -1.0
  outer loop
    vertex 18.750000000000004 20.165063509461103 1.4099832412739487e-15
    vertex 35.0 30.000000000000007 1.4099832412739487e-15
    vertex 19.3529523872437 20.414814565722676 1.4099832412739487e-15
  endloop
endfacet
facet normal 1.633156689316262e-17 -2.9079056888956964e-17 -1.0
  outer loop
    vertex 19.3529523872437 20.414814565722676 1.4099832412739487e-15
    vertex 35.0 30.000000000000007 1.4099832412739487e-15
    vertex 20.000000000000004 20.500000000000004 1.4099832412739487e-15
  endloop
endfacet
facet normal 1.633156689316262e-17 -2.9079056888956964e-17 -1.0
  outer loop
    vertex 20.000000000000004 20.500000000000004 1.4099832412739487e-15
    vertex 35.0 30.000000000000007 1.4099832412739487e-15
    vertex 20.647047612756303 20.414814565722676 1.4099832412739487e-15
  endloop
endfacet
facet normal 1.633156689316262e-17 -2.9079056888956964e-17 -1.0
  outer loop
    vertex 20.647047612756303 20.414814565722676 1.4099832412739487e-15
    vertex 35.0 30.000000000000007 1.4099832412739487e-15
    vertex 21.250000000000004 20.165063509461103 1.4099832412739487e-15
  endloop
endfacet
facet normal 1.633156689316262e-17 -2.9079056888956964e-17 -1.0
  outer loop
    vertex 21.250000000000004 20.165063509461103 1.4099832412739487e-15
    vertex 35.0 30.000000000000007 1.4099832412739487e-15
    vertex 21.767766952966372 19.767766952966372 1.4099832412739487e-15
  endloop
endfacet
facet normal 1.633156689316262e-17 -2.9079056888956964e-17 -1.0
  outer loop
    vertex 21.767766952966372 19.767766952966372 1.4099832412739487e-15
    vertex 35.0 30.000000000000007 1.4099832412739487e-15
    vertex 22.1650635094611 19.250000000000004 1.4099832412739487e-15
  endloop
endfacet
facet normal 1.633156689316262e-17 -2.9079056888956964e-17 -1.0
  outer loop
    vertex 22.1650635094611 19.250000000000004 1.4099832412739487e-15
    vertex 35.0 30.000000000000007 1.4099832412739487e-15
    vertex 22.414814565722676 18.647047612756307 1.4099832412739487e-15
  endloop
endfacet
facet normal 1.633156689316262e-17 -2.9079056888956964e-17 -1.0
  outer loop
    vertex 22.414814565722676 18.647047612756307 1.4099832412739487e-15
    vertex 35.0 30.000000000000007 1.4099832412739487e-15
    vertex 22.500000000000004 18.000000000000004 1.4099832412739487e-15
  endloop
endfacet
facet normal 1.633156689316262e-17 -2.9079056888956964e-17 -1.0
  outer loop
    vertex 22.500000000000004 18.000000000000004 1.4099832412739487e-15
    vertex 35.0 30.000000000000007 1.4099832412739487e-15
    vertex 26.000000000000004 9.600000000000005 0.0
  endloop
endfacet
facet normal 1.633156689316262e-17 -2.9079056888956964e-17 -1.0
  outer loop
    vertex 26.000000000000004 9.600000000000005 0.0
    vertex 35.0 30.000000000000007 1.4099832412739487e-15
    vertex 33.0 9.600000000000007 0.0
  endloop
endfacet
facet normal 1.633156689316262e-17 -2.9079056888956964e-17 -1.0
  outer loop
    vertex 33.0 9.600000000000007 0.0
    vertex 35.0 30.000000000000007 1.4099832412739487e-15
    vertex 33.0 7.000000000000005 0.0
  endloop
endfacet
facet normal 1.633156689316262e-17 -2.9079056888956964e-17 -1.0
  outer loop
    vertex 15.000000000000004 0.0 4.229949723821846e-15
    vertex 26.000000000000004 7.000000000000005 0.0
    vertex 35.0 5.183729740183349e-15 1.4099832412739487e-15
  endloop
endfacet
facet normal 1.633156689316262e-17 -2.9079056888956964e-17 -1.0
  outer loop
    vertex 26.000000000000004 7.000000000000005 0.0
    vertex 15.000000000000004 0.0 4.229949723821846e-15
    vertex 18.232233047033635 16.232233047033635 1.4099832412739487e-15
  endloop
endfacet
facet normal 1.633156689316262e-17 -2.9079056888956964e-17 -1.0
  outer loop
    vertex 18.232233047033635 16.232233047033635 1.4099832412739487e-15
    vertex 15.000000000000004 0.0 4.229949723821846e-15
    vertex 17.834936490538905 16.750000000000004 1.4099832412739487e-15
  endloop
endfacet
facet normal 1.633156689316262e-17 -2.9079056888956964e-17 -1.0
  outer loop
    vertex 17.834936490538905 16.750000000000004 1.4099832412739487e-15
    vertex 15.000000000000004 0.0 4.229949723821846e-15
    vertex 17.58518543427733 17.3529523872437 1.4099832412739487e-15
  endloop
endfacet
facet normal 1.633156689316262e-17 -2.9079056888956964e-17 -1.0
  outer loop
    vertex 17.58518543427733 17.3529523872437 1.4099832412739487e-15
    vertex 15.000000000000004 0.0 4.229949723821846e-15
    vertex 17.5 18.000000000000004 1.4099832412739487e-15
  endloop
endfacet
facet normal 1.633156689316262e-17 -2.9079056888956964e-17 -1.0
  outer loop
    vertex 26.000000000000004 7.000000000000005 0.0
    vertex 18.232233047033635 16.232233047033635 1.4099832412739487e-15
    vertex 18.750000000000004 15.834936490538906 1.4099832412739487e-15
  endloop
endfacet
facet normal 1.633156689316262e-17 -2.9079056888956964e-17 -1.0
  outer loop
    vertex 26.000000000000004 7.000000000000005 0.0
    vertex 18.750000000000004 15.834936490538906 1.4099832412739487e-15
    vertex 19.3529523872437 15.585185434277331 1.4099832412739487e-15
  endloop
endfacet
facet normal 1.633156689316262e-17 -2.9079056888956964e-17 -1.0
  outer loop
    vertex 26.000000000000004 7.000000000000005 0.0
    vertex 19.3529523872437 15.585185434277331 1.4099832412739487e-15
    vertex 20.000000000000004 15.500000000000002 1.4099832412739487e-15
  endloop
endfacet
facet normal 1.633156689316262e-17 -2.9079056888956964e-17 -1.0
  outer loop
    vertex 26.000000000000004 7.000000000000005 0.0
    vertex 20.000000000000004 15.500000000000002 1.4099832412739487e-15
    vertex 20.647047612756307 15.585185434277331 1.4099832412739487e-15
  endloop
endfacet
facet normal 1.633156689316262e-17 -2.9079056888956964e-17 -1.0
  outer loop
    vertex 26.000000000000004 7.000000000000005 0.0
    vertex 20.647047612756307 15.585185434277331 1.4099832412739487e-15
    vertex 21.250000000000004 15.834936490538906 1.4099832412739487e-15
  endloop
endfacet
facet normal 1.633156689316262e-17 -2.9079056888956964e-17 -1.0
  outer loop
    vertex 26.000000000000004 7.000000000000005 0.0
    vertex 21.250000000000004 15.834936490538906 1.4099832412739487e-15
    vertex 21.767766952966372 16.232233047033635 1.4099832412739487e-15
  endloop
endfacet
facet normal 1.633156689316262e-17 -2.9079056888956964e-17 -1.0
  outer loop
    vertex 26.000000000000004 7.000000000000005 0.0
    vertex 21.767766952966372 16.232233047033635 1.4099832412739487e-15
    vertex 22.1650635094611 16.750000000000004 1.4099832412739487e-15
  endloop
endfacet
facet normal 1.633156689316262e-17 -2.9079056888956964e-17 -1.0
  outer loop
    vertex 26.000000000000004 7.000000000000005 0.0
    vertex 22.1650635094611 16.750000000000004 1.4099832412739487e-15
    vertex 22.414814565722676 17.352952387243704 1.4099832412739487e-15
  endloop
endfacet
facet normal 1.633156689316262e-17 -2.9079056888956964e-17 -1.0
  outer loop
    vertex 26.000000000000004 7.000000000000005 0.0
    vertex 22.414814565722676 17.352952387243704 1.4099832412739487e-15
    vertex 22.500000000000004 18.000000000000004 1.4099832412739487e-15
  endloop
endfacet
facet normal 1.633156689316262e-17 -2.9079056888956964e-17 -1.0
  outer loop
    vertex 26.000000000000004 7.000000000000005 0.0
    vertex 22.500000000000004 18.000000000000004 1.4099832412739487e-15
    vertex 26.000000000000004 9.600000000000005 0.0
  endloop
endfacet
facet normal 1.633156689316262e-17 -2.9079056888956964e-17 -1.0
  outer loop
    vertex 35.0 5.183729740183349e-15 1.4099832412739487e-15
    vertex 26.000000000000004 7.000000000000005 0.0
    vertex 33.0 7.000000000000005 0.0
  endloop
endfacet
facet normal 1.633156689316262e-17 -2.9079056888956964e-17 -1.0
  outer loop
    vertex 35.0 5.183729740183349e-15 1.4099832412739487e-15
    vertex 33.0 7.000000000000005 0.0
    vertex 35.0 30.000000000000007 1.4099832412739487e-15
  endloop
endfacet
facet normal 1.633156689316262e-17 -2.9079056888956964e-17 -1.0
  outer loop
    vertex 5.98612181134003 2.7291827170100387 4.229949723821846e-15
    vertex 7.000000000000004 7.000000000000003 0.0
    vertex 7.352298209380038 1.912107640181277 5.639932965095795e-15
  endloop
endfacet
facet normal 1.633156689316262e-17 -2.9079056888956964e-17 -1.0
  outer loop
    vertex 7.000000000000004 7.000000000000003 0.0
    vertex 5.98612181134003 2.7291827170100387 4.229949723821846e-15
    vertex 7.000000000000004 9.600000000000001 0.0
  endloop
endfacet
facet normal 1.633156689316262e-17 -2.9079056888956964e-17 -1.0
  outer loop
    vertex 7.352298209380038 1.912107640181277 5.639932965095795e-15
    vertex 7.000000000000004 7.000000000000003 0.0
    vertex 14.000000000000002 7.000000000000003 0.0
  endloop
endfacet
facet normal 1.633156689316262e-17 -2.9079056888956964e-17 -1.0
  outer loop
    vertex 7.352298209380038 1.912107640181277 5.639932965095795e-15
    vertex 14.000000000000002 7.000000000000003 0.0
    vertex 8.791865020319074 1.2326247275343745 5.639932965095795e-15
  endloop
endfacet
facet normal 1.633156689316262e-17 -2.9079056888956964e-17 -1.0
  outer loop
    vertex 8.791865020319074 1.2326247275343745 5.639932965095795e-15
    vertex 14.000000000000002 7.000000000000003 0.0
    vertex 10.291007583813014 0.6972545695528928 5.639932965095795e-15
  endloop
endfacet
facet normal 1.633156689316262e-17 -2.9079056888956964e-17 -1.0
  outer loop
    vertex 10.291007583813014 0.6972545695528928 5.639932965095795e-15
    vertex 14.000000000000002 7.000000000000003 0.0
    vertex 11.835339526708 0.3111347929413981 5.639932965095795e-15
  endloop
endfacet
facet normal 1.633156689316262e-17 -2.9079056888956964e-17 -1.0
  outer loop
    vertex 11.835339526708 0.3111347929413981 5.639932965095795e-15
    vertex 14.000000000000002 7.000000000000003 0.0
    vertex 13.410040820445738 0.07797075789957869 4.229949723821846e-15
  endloop
endfacet
facet normal 1.633156689316262e-17 -2.9079056888956964e-17 -1.0
  outer loop
    vertex 13.410040820445738 0.07797075789957869 4.229949723821846e-15
    vertex 14.000000000000002 7.000000000000003 0.0
    vertex 15.000000000000004 0.0 4.229949723821846e-15
  endloop
endfacet
facet normal -1.0 2.6373374575446856e-16 -4.5657256250802857e-17
  outer loop
    vertex 0.0 10.000000000000005 7.999999999999998
    vertex 5.639932965095795e-15 30.000000000000007 1.4099832412739487e-15
    vertex 7.30516100012845e-16 10.000000000000004 0.0
  endloop
endfacet
facet normal -1.0 2.6373374575446856e-16 -4.5657256250802857e-17
  outer loop
    vertex 5.639932965095795e-15 30.000000000000007 1.4099832412739487e-15
    vertex 0.0 10.000000000000005 7.999999999999998
    vertex 5.639932965095795e-15 30.000000000000007 8.0
  endloop
endfacet
facet normal 2.0009240556828117e-16 -1.0 1.4773520360221572e-16
  outer loop
    vertex 35.0 5.183729740183349e-15 8.0
    vertex 15.000000000000004 0.0 4.229949723821846e-15
    vertex 35.0 5.183729740183349e-15 1.4099832412739487e-15
  endloop
endfacet
facet normal 2.0009240556828117e-16 -1.0 1.4773520360221572e-16
  outer loop
    vertex 15.000000000000004 0.0 4.229949723821846e-15
    vertex 35.0 5.183729740183349e-15 8.0
    vertex 15.000000000000004 2.3637632576354515e-15 8.000000000000002
  endloop
endfacet
facet normal -0.8810156450056034 -0.47308713072261965 7.116480589995422e-17
  outer loop
    vertex 0.6834957686589422 8.562334125757447 7.999999999999999
    vertex 7.30516100012845e-16 10.000000000000004 0.0
    vertex 0.683495768658943 8.562334125757443 1.4099832412739487e-15
  endloop
endfacet
facet normal -0.9031302846308873 -0.42936661372600055 6.802997130115516e-17
  outer loop
    vertex 7.30516100012845e-16 10.000000000000004 0.0
    vertex 0.6834957686589422 8.562334125757447 7.999999999999999
    vertex 0.0 10.000000000000005 7.999999999999998
  endloop
endfacet
facet normal -0.8304997875419798 -0.557018943028625 8.874593068516698e-17
  outer loop
    vertex 1.5043784524428327 7.198442175784848 8.0
    vertex 0.683495768658943 8.562334125757443 1.4099832412739487e-15
    vertex 1.5043784524428334 7.198442175784845 2.8199664825478975e-15
  endloop
endfacet
facet normal -0.8810156450056034 -0.47308713072261954 7.116480589995422e-17
  outer loop
    vertex 0.683495768658943 8.562334125757443 1.4099832412739487e-15
    vertex 1.5043784524428327 7.198442175784848 8.0
    vertex 0.6834957686589422 8.562334125757447 7.999999999999999
  endloop
endfacet
facet normal -0.7720141211097302 -0.6356053782081856 1.1730648680700884e-16
  outer loop
    vertex 2.4547705319668944 5.921412604116973 8.0
    vertex 1.5043784524428334 7.198442175784845 2.8199664825478975e-15
    vertex 2.454770531966895 5.921412604116971 2.8199664825478975e-15
  endloop
endfacet
facet normal -0.8304997875419797 -0.557018943028625 8.874593068516698e-17
  outer loop
    vertex 1.5043784524428334 7.198442175784845 2.8199664825478975e-15
    vertex 2.4547705319668944 5.921412604116973 8.0
    vertex 1.5043784524428327 7.198442175784848 8.0
  endloop
endfacet
facet normal -0.7061198976150664 -0.7080922893183402 1.4474132284480464e-16
  outer loop
    vertex 3.5255516637551625 4.743500298576981 8.000000000000002
    vertex 2.454770531966895 5.921412604116971 2.8199664825478975e-15
    vertex 3.5255516637551634 4.743500298576979 4.229949723821846e-15
  endloop
endfacet
facet normal -0.7720141211097303 -0.6356053782081857 1.1730648680700884e-16
  outer loop
    vertex 2.454770531966895 5.921412604116971 2.8199664825478975e-15
    vertex 3.5255516637551625 4.743500298576981 8.000000000000002
    vertex 2.4547705319668944 5.921412604116973 8.0
  endloop
endfacet
facet normal -7.052552541731752e-18 5.2600314352519454e-17 1.0
  outer loop
    vertex 15.000000000000004 2.3637632576354515e-15 8.000000000000002
    vertex 17.58518543427733 17.3529523872437 8.0
    vertex 17.5 18.000000000000004 8.0
  endloop
endfacet
facet normal -7.052552541731752e-18 5.2600314352519454e-17 1.0
  outer loop
    vertex 17.58518543427733 17.3529523872437 8.0
    vertex 15.000000000000004 2.3637632576354515e-15 8.000000000000002
    vertex 17.834936490538905 16.750000000000004 8.0
  endloop
endfacet
facet normal -7.052552541731752e-18 5.2600314352519454e-17 1.0
  outer loop
    vertex 17.834936490538905 16.750000000000004 8.0
    vertex 15.000000000000004 2.3637632576354515e-15 8.000000000000002
    vertex 18.232233047033635 16.232233047033635 8.0
  endloop
endfacet
facet normal -7.052552541731752e-18 5.2600314352519454e-17 1.0
  outer loop
    vertex 18.232233047033635 16.232233047033635 8.0
    vertex 15.000000000000004 2.3637632576354515e-15 8.000000000000002
    vertex 26.000000000000004 7.000000000000005 8.0
  endloop
endfacet
facet normal -7.052552541731752e-18 5.2600314352519454e-17 1.0
  outer loop
    vertex 26.000000000000004 7.000000000000005 8.0
    vertex 15.000000000000004 2.3637632576354515e-15 8.000000000000002
    vertex 35.0 5.183729740183349e-15 8.0
  endloop
endfacet
facet normal -7.052552541731752e-18 5.2600314352519454e-17 1.0
  outer loop
    vertex 18.232233047033635 16.232233047033635 8.0
    vertex 26.000000000000004 7.000000000000005 8.0
    vertex 18.750000000000004 15.834936490538906 8.0
  endloop
endfacet
facet normal -7.052552541731752e-18 5.2600314352519454e-17 1.0
  outer loop
    vertex 18.750000000000004 15.834936490538906 8.0
    vertex 26.000000000000004 7.000000000000005 8.0
    vertex 19.3529523872437 15.585185434277331 8.0
  endloop
endfacet
facet normal -7.052552541731752e-18 5.2600314352519454e-17 1.0
  outer loop
    vertex 19.3529523872437 15.585185434277331 8.0
    vertex 26.000000000000004 7.000000000000005 8.0
    vertex 20.000000000000004 15.500000000000002 8.0
  endloop
endfacet
facet normal -7.052552541731752e-18 5.2600314352519454e-17 1.0
  outer loop
    vertex 20.000000000000004 15.500000000000002 8.0
    vertex 26.000000000000004 7.000000000000005 8.0
    vertex 20.647047612756307 15.585185434277331 8.0
  endloop
endfacet
facet normal -7.052552541731752e-18 5.2600314352519454e-17 1.0
  outer loop
    vertex 20.647047612756307 15.585185434277331 8.0
    vertex 26.000000000000004 7.000000000000005 8.0
    vertex 21.250000000000004 15.834936490538906 8.0
  endloop
endfacet
facet normal -7.052552541731752e-18 5.2600314352519454e-17 1.0
  outer loop
    vertex 21.250000000000004 15.834936490538906 8.0
    vertex 26.000000000000004 7.000000000000005 8.0
    vertex 21.767766952966372 16.232233047033635 8.0
  endloop
endfacet
facet normal -7.052552541731752e-18 5.2600314352519454e-17 1.0
  outer loop
    vertex 21.767766952966372 16.232233047033635 8.0
    vertex 26.000000000000004 7.000000000000005 8.0
    vertex 22.1650635094611 16.750000000000004 8.0
  endloop
endfacet
facet normal -7.052552541731752e-18 5.2600314352519454e-17 1.0
  outer loop
    vertex 22.1650635094611 16.750000000000004 8.0
    vertex 26.000000000000004 7.000000000000005 8.0
    vertex 22.414814565722676 17.352952387243704 8.0
  endloop
endfacet
facet normal -7.052552541731752e-18 5.2600314352519454e-17 1.0
  outer loop
    vertex 22.414814565722676 17.352952387243704 8.0
    vertex 26.000000000000004 7.000000000000005 8.0
    vertex 22.500000000000004 18.000000000000004 8.0
  endloop
endfacet
facet normal -7.052552541731752e-18 5.2600314352519454e-17 1.0
  outer loop
    vertex 26.000000000000004 7.000000000000005 8.0
    vertex 35.0 5.183729740183349e-15 8.0
    vertex 33.0 7.000000000000005 8.0
  endloop
endfacet
facet normal -7.052552541731752e-18 5.2600314352519454e-17 1.0
  outer loop
    vertex 33.0 7.000000000000005 8.0
    vertex 35.0 5.183729740183349e-15 8.0
    vertex 33.0 14.600000000000007 8.0
  endloop
endfacet
facet normal -7.052552541731752e-18 5.2600314352519454e-17 1.0
  outer loop
    vertex 33.0 14.600000000000007 8.0
    vertex 35.0 5.183729740183349e-15 8.0
    vertex 33.0 15.600000000000005 8.0
  endloop
endfacet
facet normal -7.052552541731752e-18 5.2600314352519454e-17 1.0
  outer loop
    vertex 33.0 15.600000000000005 8.0
    vertex 35.0 5.183729740183349e-15 8.0
    vertex 33.0 20.600000000000005 8.0
  endloop
endfacet
facet normal -7.052552541731752e-18 5.2600314352519454e-17 1.0
  outer loop
    vertex 33.0 20.600000000000005 8.0
    vertex 35.0 5.183729740183349e-15 8.0
    vertex 33.0 21.600000000000005 8.0
  endloop
endfacet
facet normal -7.052552541731752e-18 5.2600314352519454e-17 1.0
  outer loop
    vertex 33.0 21.600000000000005 8.0
    vertex 35.0 5.183729740183349e-15 8.0
    vertex 33.0 26.60000000000001 8.0
  endloop
endfacet
facet normal -7.052552541731752e-18 5.2600314352519454e-17 1.0
  outer loop
    vertex 33.0 26.60000000000001 8.0
    vertex 35.0 5.183729740183349e-15 8.0
    vertex 33.0 27.600000000000005 8.0
  endloop
endfacet
facet normal -7.052552541731752e-18 5.2600314352519454e-17 1.0
  outer loop
    vertex 33.0 27.600000000000005 8.0
    vertex 35.0 5.183729740183349e-15 8.0
    vertex 33.0 30.000000000000007 8.0
  endloop
endfacet
facet normal -7.052552541731752e-18 5.2600314352519454e-17 1.0
  outer loop
    vertex 33.0 30.000000000000007 8.0
    vertex 35.0 5.183729740183349e-15 8.0
    vertex 35.0 30.000000000000007 8.0
  endloop
endfacet
facet normal -7.052552541731752e-18 5.2600314352519454e-17 1.0
  outer loop
    vertex 7.352298209380036 1.9121076401812795 8.000000000000004
    vertex 7.000000000000004 7.000000000000003 8.0
    vertex 5.98612181134003 2.729182717010041 8.000000000000002
  endloop
endfacet
facet normal -7.052552541731752e-18 5.2600314352519454e-17 1.0
  outer loop
    vertex 7.000000000000004 7.000000000000003 8.0
    vertex 7.352298209380036 1.9121076401812795 8.000000000000004
    vertex 14.000000000000002 7.000000000000003 8.0
  endloop
endfacet
facet normal -7.052552541731752e-18 5.2600314352519454e-17 1.0
  outer loop
    vertex 14.000000000000002 7.000000000000003 8.0
    vertex 7.352298209380036 1.9121076401812795 8.000000000000004
    vertex 8.791865020319072 1.2326247275343767 8.000000000000004
  endloop
endfacet
facet normal -7.052552541731752e-18 5.2600314352519454e-17 1.0
  outer loop
    vertex 14.000000000000002 7.000000000000003 8.0
    vertex 8.791865020319072 1.2326247275343767 8.000000000000004
    vertex 10.291007583813014 0.6972545695528951 8.000000000000004
  endloop
endfacet
facet normal -7.052552541731752e-18 5.2600314352519454e-17 1.0
  outer loop
    vertex 14.000000000000002 7.000000000000003 8.0
    vertex 10.291007583813014 0.6972545695528951 8.000000000000004
    vertex 11.835339526707997 0.3111347929414005 8.000000000000004
  endloop
endfacet
facet normal -7.052552541731752e-18 5.2600314352519454e-17 1.0
  outer loop
    vertex 14.000000000000002 7.000000000000003 8.0
    vertex 11.835339526707997 0.3111347929414005 8.000000000000004
    vertex 13.410040820445738 0.07797075789958106 8.000000000000002
  endloop
endfacet
facet normal -7.052552541731752e-18 5.2600314352519454e-17 1.0
  outer loop
    vertex 14.000000000000002 7.000000000000003 8.0
    vertex 13.410040820445738 0.07797075789958106 8.000000000000002
    vertex 15.000000000000004 2.3637632576354515e-15 8.000000000000002
  endloop
endfacet
facet normal -7.052552541731752e-18 5.2600314352519454e-17 1.0
  outer loop
    vertex 14.000000000000002 7.000000000000003 8.0
    vertex 15.000000000000004 2.3637632576354515e-15 8.000000000000002
    vertex 14.000000000000002 14.600000000000001 8.0
  endloop
endfacet
facet normal -7.052552541731752e-18 5.2600314352519454e-17 1.0
  outer loop
    vertex 14.000000000000002 14.600000000000001 8.0
    vertex 15.000000000000004 2.3637632576354515e-15 8.000000000000002
    vertex 14.000000000000002 15.600000000000003 8.0
  endloop
endfacet
facet normal -7.052552541731752e-18 5.2600314352519454e-17 1.0
  outer loop
    vertex 14.000000000000002 15.600000000000003 8.0
    vertex 15.000000000000004 2.3637632576354515e-15 8.000000000000002
    vertex 14.000000000000002 20.6 8.0
  endloop
endfacet
facet normal -7.052552541731752e-18 5.2600314352519454e-17 1.0
  outer loop
    vertex 14.000000000000002 20.6 8.0
    vertex 15.000000000000004 2.3637632576354515e-15 8.000000000000002
    vertex 14.000000000000002 21.6 8.0
  endloop
endfacet
facet normal -7.052552541731752e-18 5.2600314352519454e-17 1.0
  outer loop
    vertex 14.000000000000002 21.6 8.0
    vertex 15.000000000000004 2.3637632576354515e-15 8.000000000000002
    vertex 14.000000000000002 26.60000000000001 8.0
  endloop
endfacet
facet normal -7.052552541731752e-18 5.2600314352519454e-17 1.0
  outer loop
    vertex 14.000000000000002 26.60000000000001 8.0
    vertex 15.000000000000004 2.3637632576354515e-15 8.000000000000002
    vertex 14.000000000000002 27.600000000000005 8.0
  endloop
endfacet
facet normal -7.052552541731752e-18 5.2600314352519454e-17 1.0
  outer loop
    vertex 14.000000000000002 27.600000000000005 8.0
    vertex 15.000000000000004 2.3637632576354515e-15 8.000000000000002
    vertex 14.000000000000002 30.000000000000007 8.0
  endloop
endfacet
facet normal -7.052552541731752e-18 5.2600314352519454e-17 1.0
  outer loop
    vertex 14.000000000000002 30.000000000000007 8.0
    vertex 15.000000000000004 2.3637632576354515e-15 8.000000000000002
    vertex 17.58518543427733 18.647047612756307 8.0
  endloop
endfacet
facet normal -7.052552541731752e-18 5.2600314352519454e-17 1.0
  outer loop
    vertex 14.000000000000002 30.000000000000007 8.0
    vertex 17.58518543427733 18.647047612756307 8.0
    vertex 17.834936490538905 19.25 8.0
  endloop
endfacet
facet normal -7.052552541731752e-18 5.2600314352519454e-17 1.0
  outer loop
    vertex 14.000000000000002 30.000000000000007 8.0
    vertex 17.834936490538905 19.25 8.0
    vertex 26.000000000000004 30.000000000000007 8.0
  endloop
endfacet
facet normal -7.052552541731752e-18 5.2600314352519454e-17 1.0
  outer loop
    vertex 17.58518543427733 18.647047612756307 8.0
    vertex 15.000000000000004 2.3637632576354515e-15 8.000000000000002
    vertex 17.5 18.000000000000004 8.0
  endloop
endfacet
facet normal -7.052552541731752e-18 5.2600314352519454e-17 1.0
  outer loop
    vertex 26.000000000000004 30.000000000000007 8.0
    vertex 17.834936490538905 19.25 8.0
    vertex 18.23223304703363 19.767766952966372 8.0
  endloop
endfacet
facet normal -7.052552541731752e-18 5.2600314352519454e-17 1.0
  outer loop
    vertex 26.000000000000004 30.000000000000007 8.0
    vertex 18.23223304703363 19.767766952966372 8.0
    vertex 18.750000000000004 20.165063509461103 8.0
  endloop
endfacet
facet normal -7.052552541731752e-18 5.2600314352519454e-17 1.0
  outer loop
    vertex 26.000000000000004 30.000000000000007 8.0
    vertex 18.750000000000004 20.165063509461103 8.0
    vertex 19.3529523872437 20.414814565722676 8.0
  endloop
endfacet
facet normal -7.052552541731752e-18 5.2600314352519454e-17 1.0
  outer loop
    vertex 26.000000000000004 30.000000000000007 8.0
    vertex 19.3529523872437 20.414814565722676 8.0
    vertex 20.000000000000004 20.500000000000004 8.0
  endloop
endfacet
facet normal -7.052552541731752e-18 5.2600314352519454e-17 1.0
  outer loop
    vertex 26.000000000000004 30.000000000000007 8.0
    vertex 20.000000000000004 20.500000000000004 8.0
    vertex 20.647047612756303 20.414814565722676 8.0
  endloop
endfacet
facet normal -7.052552541731752e-18 5.2600314352519454e-17 1.0
  outer loop
    vertex 26.000000000000004 30.000000000000007 8.0
    vertex 20.647047612756303 20.414814565722676 8.0
    vertex 21.250000000000004 20.165063509461103 8.0
  endloop
endfacet
facet normal -7.052552541731752e-18 5.2600314352519454e-17 1.0
  outer loop
    vertex 26.000000000000004 30.000000000000007 8.0
    vertex 21.250000000000004 20.165063509461103 8.0
    vertex 21.767766952966372 19.767766952966372 8.0
  endloop
endfacet
facet normal -7.052552541731752e-18 5.2600314352519454e-17 1.0
  outer loop
    vertex 26.000000000000004 30.000000000000007 8.0
    vertex 21.767766952966372 19.767766952966372 8.0
    vertex 22.1650635094611 19.250000000000004 8.0
  endloop
endfacet
facet normal -7.052552541731752e-18 5.2600314352519454e-17 1.0
  outer loop
    vertex 26.000000000000004 30.000000000000007 8.0
    vertex 22.1650635094611 19.250000000000004 8.0
    vertex 22.414814565722676 18.647047612756307 8.0
  endloop
endfacet
facet normal -7.052552541731752e-18 5.2600314352519454e-17 1.0
  outer loop
    vertex 26.000000000000004 30.000000000000007 8.0
    vertex 22.414814565722676 18.647047612756307 8.0
    vertex 22.500000000000004 18.000000000000004 8.0
  endloop
endfacet
facet normal -7.052552541731752e-18 5.2600314352519454e-17 1.0
  outer loop
    vertex 26.000000000000004 30.000000000000007 8.0
    vertex 22.500000000000004 18.000000000000004 8.0
    vertex 26.000000000000004 7.000000000000005 8.0
  endloop
endfacet
facet normal -7.052552541731752e-18 5.2600314352519454e-17 1.0
  outer loop
    vertex 26.000000000000004 30.000000000000007 8.0
    vertex 26.000000000000004 7.000000000000005 8.0
    vertex 26.000000000000004 14.600000000000005 8.0
  endloop
endfacet
facet normal -7.052552541731752e-18 5.2600314352519454e-17 1.0
  outer loop
    vertex 26.000000000000004 30.000000000000007 8.0
    vertex 26.000000000000004 14.600000000000005 8.0
    vertex 26.000000000000004 15.600000000000005 8.0
  endloop
endfacet
facet normal -7.052552541731752e-18 5.2600314352519454e-17 1.0
  outer loop
    vertex 26.000000000000004 30.000000000000007 8.0
    vertex 26.000000000000004 15.600000000000005 8.0
    vertex 26.000000000000004 20.600000000000005 8.0
  endloop
endfacet
facet normal -7.052552541731752e-18 5.2600314352519454e-17 1.0
  outer loop
    vertex 26.000000000000004 30.000000000000007 8.0
    vertex 26.000000000000004 20.600000000000005 8.0
    vertex 26.000000000000004 21.600000000000005 8.0
  endloop
endfacet
facet normal -7.052552541731752e-18 5.2600314352519454e-17 1.0
  outer loop
    vertex 26.000000000000004 30.000000000000007 8.0
    vertex 26.000000000000004 21.600000000000005 8.0
    vertex 26.000000000000004 26.60000000000001 8.0
  endloop
endfacet
facet normal -7.052552541731752e-18 5.2600314352519454e-17 1.0
  outer loop
    vertex 26.000000000000004 30.000000000000007 8.0
    vertex 26.000000000000004 26.60000000000001 8.0
    vertex 26.000000000000004 27.600000000000005 8.0
  endloop
endfacet
facet normal -7.052552541731752e-18 5.2600314352519454e-17 1.0
  outer loop
    vertex 0.6834957686589422 8.562334125757447 7.999999999999999
    vertex 5.639932965095795e-15 30.000000000000007 8.0
    vertex 0.0 10.000000000000005 7.999999999999998
  endloop
endfacet
facet normal -7.052552541731752e-18 5.2600314352519454e-17 1.0
  outer loop
    vertex 5.639932965095795e-15 30.000000000000007 8.0
    vertex 0.6834957686589422 8.562334125757447 7.999999999999999
    vertex 7.000000000000004 30.000000000000007 8.0
  endloop
endfacet
facet normal -7.052552541731752e-18 5.2600314352519454e-17 1.0
  outer loop
    vertex 7.000000000000004 30.000000000000007 8.0
    vertex 0.6834957686589422 8.562334125757447 7.999999999999999
    vertex 1.5043784524428327 7.198442175784848 8.0
  endloop
endfacet
facet normal -7.052552541731752e-18 5.2600314352519454e-17 1.0
  outer loop
    vertex 7.000000000000004 30.000000000000007 8.0
    vertex 1.5043784524428327 7.198442175784848 8.0
    vertex 2.4547705319668944 5.921412604116973 8.0
  endloop
endfacet
facet normal -7.052552541731752e-18 5.2600314352519454e-17 1.0
  outer loop
    vertex 7.000000000000004 30.000000000000007 8.0
    vertex 2.4547705319668944 5.921412604116973 8.0
    vertex 3.5255516637551625 4.743500298576981 8.000000000000002
  endloop
endfacet
facet normal -7.052552541731752e-18 5.2600314352519454e-17 1.0
  outer loop
    vertex 7.000000000000004 30.000000000000007 8.0
    vertex 3.5255516637551625 4.743500298576981 8.000000000000002
    vertex 4.706446202713472 3.676008977958988 8.000000000000002
  endloop
endfacet
facet normal -7.052552541731752e-18 5.2600314352519454e-17 1.0
  outer loop
    vertex 7.000000000000004 30.000000000000007 8.0
    vertex 4.706446202713472 3.676008977958988 8.000000000000002
    vertex 5.98612181134003 2.729182717010041 8.000000000000002
  endloop
endfacet
facet normal -7.052552541731752e-18 5.2600314352519454e-17 1.0
  outer loop
    vertex 7.000000000000004 30.000000000000007 8.0
    vertex 5.98612181134003 2.729182717010041 8.000000000000002
    vertex 7.000000000000004 7.000000000000003 8.0
  endloop
endfacet
facet normal -7.052552541731752e-18 5.2600314352519454e-17 1.0
  outer loop
    vertex 7.000000000000004 30.000000000000007 8.0
    vertex 7.000000000000004 7.000000000000003 8.0
    vertex 7.000000000000004 14.600000000000001 8.0
  endloop
endfacet
facet normal -7.052552541731752e-18 5.2600314352519454e-17 1.0
  outer loop
    vertex 7.000000000000004 30.000000000000007 8.0
    vertex 7.000000000000004 14.600000000000001 8.0
    vertex 7.000000000000004 15.600000000000003 8.0
  endloop
endfacet
facet normal -7.052552541731752e-18 5.2600314352519454e-17 1.0
  outer loop
    vertex 7.000000000000004 30.000000000000007 8.0
    vertex 7.000000000000004 15.600000000000003 8.0
    vertex 7.000000000000004 20.6 8.0
  endloop
endfacet
facet normal -7.052552541731752e-18 5.2600314352519454e-17 1.0
  outer loop
    vertex 7.000000000000004 30.000000000000007 8.0
    vertex 7.000000000000004 20.6 8.0
    vertex 7.000000000000004 21.6 8.0
  endloop
endfacet
facet normal -7.052552541731752e-18 5.2600314352519454e-17 1.0
  outer loop
    vertex 7.000000000000004 30.000000000000007 8.0
    vertex 7.000000000000004 21.6 8.0
    vertex 7.000000000000004 26.60000000000001 8.0
  endloop
endfacet
facet normal -7.052552541731752e-18 5.2600314352519454e-17 1.0
  outer loop
    vertex 7.000000000000004 30.000000000000007 8.0
    vertex 7.000000000000004 26.60000000000001 8.0
    vertex 7.000000000000004 27.600000000000005 8.0
  endloop
endfacet
facet normal 1.0 0.0 0.0
  outer loop
    vertex 7.000000000000004 26.60000000000001 6.400000000000001
    vertex 7.000000000000004 21.6 7.249835000000001
    vertex 7.000000000000004 21.6 6.400000000000001
  endloop
endfacet
facet normal 1.0 0.0 0.0
  outer loop
    vertex 7.000000000000004 21.6 7.249835000000001
    vertex 7.000000000000004 26.60000000000001 6.400000000000001
    vertex 7.000000000000004 21.6 8.0
  endloop
endfacet
facet normal 1.0 0.0 0.0
  outer loop
    vertex 7.000000000000004 21.6 8.0
    vertex 7.000000000000004 26.60000000000001 6.400000000000001
    vertex 7.000000000000004 26.60000000000001 8.0
  endloop
endfacet
facet normal 1.0 0.0 0.0
  outer loop
    vertex 7.000000000000004 26.60000000000001 8.0
    vertex 7.000000000000004 26.60000000000001 6.400000000000001
    vertex 7.000000000000004 26.60000000000001 7.5
  endloop
endfacet
facet normal -1.0 0.0 0.0
  outer loop
    vertex 33.0 15.600000000000005 8.0
    vertex 33.0 14.600000000000007 7.5
    vertex 33.0 14.600000000000007 8.0
  endloop
endfacet
facet normal -1.0 0.0 0.0
  outer loop
    vertex 33.0 14.600000000000007 7.5
    vertex 33.0 15.600000000000005 8.0
    vertex 33.0 15.600000000000005 7.5
  endloop
endfacet
facet normal -1.0 0.0 0.0
  outer loop
    vertex 33.0 27.600000000000005 8.0
    vertex 33.0 26.60000000000001 7.5
    vertex 33.0 26.60000000000001 8.0
  endloop
endfacet
facet normal -1.0 0.0 0.0
  outer loop
    vertex 33.0 26.60000000000001 7.5
    vertex 33.0 27.600000000000005 8.0
    vertex 33.0 27.600000000000005 7.5
  endloop
endfacet
facet normal 0.0 1.0 0.0
  outer loop
    vertex 7.000000000000004 21.6 7.249835000000001
    vertex 14.000000000000002 21.6 6.400000000000001
    vertex 7.000000000000004 21.6 6.400000000000001
  endloop
endfacet
facet normal 0.0 1.0 0.0
  outer loop
    vertex 14.000000000000002 21.6 6.400000000000001
    vertex 7.000000000000004 21.6 7.249835000000001
    vertex 14.000000000000002 21.6 7.249835000000001
  endloop
endfacet
facet normal 1.342841182165666e-16 -1.0 4.840410965601197e-17
  outer loop
    vertex 33.0 9.600000000000007 4.4
    vertex 26.000000000000004 9.600000000000005 0.0
    vertex 33.0 9.600000000000007 0.0
  endloop
endfacet
facet normal 1.342841182165666e-16 -1.0 4.840410965601197e-17
  outer loop
    vertex 26.000000000000004 9.600000000000005 0.0
    vertex 33.0 9.600000000000007 4.4
    vertex 26.000000000000004 9.600000000000007 4.4
  endloop
endfacet
facet normal 1.0 0.0 0.0
  outer loop
    vertex 7.000000000000004 21.6 7.249835000000001
    vertex 7.000000000000004 20.6 8.0
    vertex 7.000000000000004 20.6 7.249835000000001
  endloop
endfacet
facet normal 1.0 0.0 0.0
  outer loop
    vertex 7.000000000000004 20.6 8.0
    vertex 7.000000000000004 21.6 7.249835000000001
    vertex 7.000000000000004 21.6 8.0
  endloop
endfacet
facet normal 0.0 0.0 1.0
  outer loop
    vertex 33.0 20.600000000000005 7.5
    vertex 26.000000000000004 21.600000000000005 7.5
    vertex 26.000000000000004 20.600000000000005 7.5
  endloop
endfacet
facet normal 0.0 0.0 1.0
  outer loop
    vertex 26.000000000000004 21.600000000000005 7.5
    vertex 33.0 20.600000000000005 7.5
    vertex 33.0 21.600000000000005 7.5
  endloop
endfacet
facet normal 0.0 0.0 1.0
  outer loop
    vertex 33.0 26.60000000000001 7.5
    vertex 26.000000000000004 27.600000000000005 7.5
    vertex 26.000000000000004 26.60000000000001 7.5
  endloop
endfacet
facet normal 0.0 0.0 1.0
  outer loop
    vertex 26.000000000000004 27.600000000000005 7.5
    vertex 33.0 26.60000000000001 7.5
    vertex 33.0 27.600000000000005 7.5
  endloop
endfacet
facet normal 1.0 0.0 0.0
  outer loop
    vertex 7.000000000000004 30.000000000000007 6.400000000000001
    vertex 7.000000000000004 27.600000000000005 7.5
    vertex 7.000000000000004 27.600000000000005 6.400000000000001
  endloop
endfacet
facet normal 1.0 0.0 0.0
  outer loop
    vertex 7.000000000000004 27.600000000000005 7.5
    vertex 7.000000000000004 30.000000000000007 6.400000000000001
    vertex 7.000000000000004 27.600000000000005 8.0
  endloop
endfacet
facet normal 1.0 0.0 0.0
  outer loop
    vertex 7.000000000000004 27.600000000000005 8.0
    vertex 7.000000000000004 30.000000000000007 6.400000000000001
    vertex 7.000000000000004 30.000000000000007 8.0
  endloop
endfacet
facet normal -1.0 0.0 0.0
  outer loop
    vertex 14.000000000000002 27.600000000000005 8.0
    vertex 14.000000000000002 26.60000000000001 7.5
    vertex 14.000000000000002 26.60000000000001 8.0
  endloop
endfacet
facet normal -1.0 0.0 0.0
  outer loop
    vertex 14.000000000000002 26.60000000000001 7.5
    vertex 14.000000000000002 27.600000000000005 8.0
    vertex 14.000000000000002 27.600000000000005 7.5
  endloop
endfacet
facet normal 0.0 0.0 1.0
  outer loop
    vertex 14.000000000000002 26.60000000000001 7.5
    vertex 7.000000000000004 27.600000000000005 7.5
    vertex 7.000000000000004 26.60000000000001 7.5
  endloop
endfacet
facet normal 0.0 0.0 1.0
  outer loop
    vertex 7.000000000000004 27.600000000000005 7.5
    vertex 14.000000000000002 26.60000000000001 7.5
    vertex 14.000000000000002 27.600000000000005 7.5
  endloop
endfacet
facet normal 0.0 0.0 1.0
  outer loop
    vertex 33.0 14.600000000000007 7.5
    vertex 26.000000000000004 15.600000000000005 7.5
    vertex 26.000000000000004 14.600000000000005 7.5
  endloop
endfacet
facet normal 0.0 0.0 1.0
  outer loop
    vertex 26.000000000000004 15.600000000000005 7.5
    vertex 33.0 14.600000000000007 7.5
    vertex 33.0 15.600000000000005 7.5
  endloop
endfacet
facet normal 0.0 0.0 1.0
  outer loop
    vertex 14.000000000000002 27.600000000000005 6.400000000000001
    vertex 7.000000000000004 30.000000000000007 6.400000000000001
    vertex 7.000000000000004 27.600000000000005 6.400000000000001
  endloop
endfacet
facet normal 0.0 0.0 1.0
  outer loop
    vertex 7.000000000000004 30.000000000000007 6.400000000000001
    vertex 14.000000000000002 27.600000000000005 6.400000000000001
    vertex 14.000000000000002 30.000000000000007 6.400000000000001
  endloop
endfacet
facet normal -0.9659258262890684 -0.25881904510252085 0.0
  outer loop
    vertex 22.414814565722676 18.647047612756307 8.0
    vertex 22.500000000000004 18.000000000000004 1.4099832412739487e-15
    vertex 22.500000000000004 18.000000000000004 8.0
  endloop
endfacet
facet normal -1.0 2.851555166607009e-16 0.0
  outer loop
    vertex 22.500000000000004 18.000000000000004 1.4099832412739487e-15
    vertex 22.414814565722676 18.647047612756307 8.0
    vertex 22.414814565722676 18.647047612756307 1.4099832412739487e-15
  endloop
endfacet
facet normal -1.0 2.851555166607009e-16 0.0
  outer loop
    vertex 22.500000000000004 18.000000000000004 8.0
    vertex 22.414814565722676 17.352952387243704 1.4099832412739487e-15
    vertex 22.414814565722676 17.352952387243704 8.0
  endloop
endfacet
facet normal -0.9659258262890684 0.25881904510252035 0.0
  outer loop
    vertex 22.414814565722676 17.352952387243704 1.4099832412739487e-15
    vertex 22.500000000000004 18.000000000000004 8.0
    vertex 22.500000000000004 18.000000000000004 1.4099832412739487e-15
  endloop
endfacet
facet normal -0.9659258262890684 0.25881904510252035 0.0
  outer loop
    vertex 22.414814565722676 17.352952387243704 8.0
    vertex 22.1650635094611 16.750000000000004 1.4099832412739487e-15
    vertex 22.1650635094611 16.750000000000004 8.0
  endloop
endfacet
facet normal -0.8660254037844394 0.4999999999999989 0.0
  outer loop
    vertex 22.1650635094611 16.750000000000004 1.4099832412739487e-15
    vertex 22.414814565722676 17.352952387243704 8.0
    vertex 22.414814565722676 17.352952387243704 1.4099832412739487e-15
  endloop
endfacet
facet normal -0.8660254037844394 0.4999999999999989 0.0
  outer loop
    vertex 22.1650635094611 16.750000000000004 8.0
    vertex 21.767766952966372 16.232233047033635 1.4099832412739487e-15
    vertex 21.767766952966372 16.232233047033635 8.0
  endloop
endfacet
facet normal -0.7071067811865476 0.7071067811865476 0.0
  outer loop
    vertex 21.767766952966372 16.232233047033635 1.4099832412739487e-15
    vertex 22.1650635094611 16.750000000000004 8.0
    vertex 22.1650635094611 16.750000000000004 1.4099832412739487e-15
  endloop
endfacet
facet normal -0.49999999999999956 0.8660254037844389 0.0
  outer loop
    vertex 21.250000000000004 15.834936490538906 8.0
    vertex 21.767766952966372 16.232233047033635 1.4099832412739487e-15
    vertex 21.250000000000004 15.834936490538906 1.4099832412739487e-15
  endloop
endfacet
facet normal -0.7071067811865476 0.7071067811865476 0.0
  outer loop
    vertex 21.767766952966372 16.232233047033635 1.4099832412739487e-15
    vertex 21.250000000000004 15.834936490538906 8.0
    vertex 21.767766952966372 16.232233047033635 8.0
  endloop
endfacet
facet normal -0.25881904510252085 0.9659258262890684 0.0
  outer loop
    vertex 20.647047612756307 15.585185434277331 8.0
    vertex 21.250000000000004 15.834936490538906 1.4099832412739487e-15
    vertex 20.647047612756307 15.585185434277331 1.4099832412739487e-15
  endloop
endfacet
facet normal -0.49999999999999956 0.8660254037844389 0.0
  outer loop
    vertex 21.250000000000004 15.834936490538906 1.4099832412739487e-15
    vertex 20.647047612756307 15.585185434277331 8.0
    vertex 21.250000000000004 15.834936490538906 8.0
  endloop
endfacet
facet normal 2.851555166607009e-16 1.0 0.0
  outer loop
    vertex 20.000000000000004 15.500000000000002 8.0
    vertex 20.647047612756307 15.585185434277331 1.4099832412739487e-15
    vertex 20.000000000000004 15.500000000000002 1.4099832412739487e-15
  endloop
endfacet
facet normal -0.25881904510252085 0.9659258262890684 0.0
  outer loop
    vertex 20.647047612756307 15.585185434277331 1.4099832412739487e-15
    vertex 20.000000000000004 15.500000000000002 8.0
    vertex 20.647047612756307 15.585185434277331 8.0
  endloop
endfacet
facet normal 0.25881904510252035 0.9659258262890684 0.0
  outer loop
    vertex 19.3529523872437 15.585185434277331 8.0
    vertex 20.000000000000004 15.500000000000002 1.4099832412739487e-15
    vertex 19.3529523872437 15.585185434277331 1.4099832412739487e-15
  endloop
endfacet
facet normal 2.851555166607009e-16 1.0 0.0
  outer loop
    vertex 20.000000000000004 15.500000000000002 1.4099832412739487e-15
    vertex 19.3529523872437 15.585185434277331 8.0
    vertex 20.000000000000004 15.500000000000002 8.0
  endloop
endfacet
facet normal 0.5 0.8660254037844387 0.0
  outer loop
    vertex 18.750000000000004 15.834936490538906 8.0
    vertex 19.3529523872437 15.585185434277331 1.4099832412739487e-15
    vertex 18.750000000000004 15.834936490538906 1.4099832412739487e-15
  endloop
endfacet
facet normal 0.25881904510252035 0.9659258262890684 0.0
  outer loop
    vertex 19.3529523872437 15.585185434277331 1.4099832412739487e-15
    vertex 18.750000000000004 15.834936490538906 8.0
    vertex 19.3529523872437 15.585185434277331 8.0
  endloop
endfacet
facet normal 0.7071067811865474 0.7071067811865478 0.0
  outer loop
    vertex 18.232233047033635 16.232233047033635 8.0
    vertex 18.750000000000004 15.834936490538906 1.4099832412739487e-15
    vertex 18.232233047033635 16.232233047033635 1.4099832412739487e-15
  endloop
endfacet
facet normal 0.5 0.8660254037844387 0.0
  outer loop
    vertex 18.750000000000004 15.834936490538906 1.4099832412739487e-15
    vertex 18.232233047033635 16.232233047033635 8.0
    vertex 18.750000000000004 15.834936490538906 8.0
  endloop
endfacet
facet normal 0.8660254037844382 0.5000000000000011 0.0
  outer loop
    vertex 17.834936490538905 16.750000000000004 1.4099832412739487e-15
    vertex 18.232233047033635 16.232233047033635 8.0
    vertex 18.232233047033635 16.232233047033635 1.4099832412739487e-15
  endloop
endfacet
facet normal 0.7071067811865474 0.7071067811865478 0.0
  outer loop
    vertex 18.232233047033635 16.232233047033635 8.0
    vertex 17.834936490538905 16.750000000000004 1.4099832412739487e-15
    vertex 17.834936490538905 16.750000000000004 8.0
  endloop
endfacet
facet normal 0.9659258262890684 0.25881904510252085 0.0
  outer loop
    vertex 17.58518543427733 17.3529523872437 1.4099832412739487e-15
    vertex 17.834936490538905 16.750000000000004 8.0
    vertex 17.834936490538905 16.750000000000004 1.4099832412739487e-15
  endloop
endfacet
facet normal 0.8660254037844382 0.5000000000000011 0.0
  outer loop
    vertex 17.834936490538905 16.750000000000004 8.0
    vertex 17.58518543427733 17.3529523872437 1.4099832412739487e-15
    vertex 17.58518543427733 17.3529523872437 8.0
  endloop
endfacet
facet normal 1.0 -2.851555166607009e-16 0.0
  outer loop
    vertex 17.5 18.000000000000004 1.4099832412739487e-15
    vertex 17.58518543427733 17.3529523872437 8.0
    vertex 17.58518543427733 17.3529523872437 1.4099832412739487e-15
  endloop
endfacet
facet normal 0.9659258262890684 0.25881904510252085 0.0
  outer loop
    vertex 17.58518543427733 17.3529523872437 8.0
    vertex 17.5 18.000000000000004 1.4099832412739487e-15
    vertex 17.5 18.000000000000004 8.0
  endloop
endfacet
facet normal 0.9659258262890682 -0.25881904510252113 0.0
  outer loop
    vertex 17.58518543427733 18.647047612756307 1.4099832412739487e-15
    vertex 17.5 18.000000000000004 8.0
    vertex 17.5 18.000000000000004 1.4099832412739487e-15
  endloop
endfacet
facet normal 1.0 -2.851555166607009e-16 0.0
  outer loop
    vertex 17.5 18.000000000000004 8.0
    vertex 17.58518543427733 18.647047612756307 1.4099832412739487e-15
    vertex 17.58518543427733 18.647047612756307 8.0
  endloop
endfacet
facet normal 0.8660254037844396 -0.4999999999999985 0.0
  outer loop
    vertex 17.834936490538905 19.25 1.4099832412739487e-15
    vertex 17.58518543427733 18.647047612756307 8.0
    vertex 17.58518543427733 18.647047612756307 1.4099832412739487e-15
  endloop
endfacet
facet normal 0.9659258262890682 -0.25881904510252113 0.0
  outer loop
    vertex 17.58518543427733 18.647047612756307 8.0
    vertex 17.834936490538905 19.25 1.4099832412739487e-15
    vertex 17.834936490538905 19.25 8.0
  endloop
endfacet
facet normal 0.7071067811865485 -0.7071067811865467 0.0
  outer loop
    vertex 18.23223304703363 19.767766952966372 1.4099832412739487e-15
    vertex 17.834936490538905 19.25 8.0
    vertex 17.834936490538905 19.25 1.4099832412739487e-15
  endloop
endfacet
facet normal 0.8660254037844396 -0.4999999999999985 0.0
  outer loop
    vertex 17.834936490538905 19.25 8.0
    vertex 18.23223304703363 19.767766952966372 1.4099832412739487e-15
    vertex 18.23223304703363 19.767766952966372 8.0
  endloop
endfacet
facet normal 0.49999999999999956 -0.8660254037844389 0.0
  outer loop
    vertex 18.750000000000004 20.165063509461103 8.0
    vertex 18.23223304703363 19.767766952966372 1.4099832412739487e-15
    vertex 18.750000000000004 20.165063509461103 1.4099832412739487e-15
  endloop
endfacet
facet normal 0.7071067811865485 -0.7071067811865467 0.0
  outer loop
    vertex 18.23223304703363 19.767766952966372 1.4099832412739487e-15
    vertex 18.750000000000004 20.165063509461103 8.0
    vertex 18.23223304703363 19.767766952966372 8.0
  endloop
endfacet
facet normal 0.25881904510252085 -0.9659258262890684 0.0
  outer loop
    vertex 19.3529523872437 20.414814565722676 8.0
    vertex 18.750000000000004 20.165063509461103 1.4099832412739487e-15
    vertex 19.3529523872437 20.414814565722676 1.4099832412739487e-15
  endloop
endfacet
facet normal 0.49999999999999956 -0.8660254037844389 0.0
  outer loop
    vertex 18.750000000000004 20.165063509461103 1.4099832412739487e-15
    vertex 19.3529523872437 20.414814565722676 8.0
    vertex 18.750000000000004 20.165063509461103 8.0
  endloop
endfacet
facet normal -2.851555166607009e-16 -1.0 0.0
  outer loop
    vertex 20.000000000000004 20.500000000000004 8.0
    vertex 19.3529523872437 20.414814565722676 1.4099832412739487e-15
    vertex 20.000000000000004 20.500000000000004 1.4099832412739487e-15
  endloop
endfacet
facet normal 0.25881904510252085 -0.9659258262890684 0.0
  outer loop
    vertex 19.3529523872437 20.414814565722676 1.4099832412739487e-15
    vertex 20.000000000000004 20.500000000000004 8.0
    vertex 19.3529523872437 20.414814565722676 8.0
  endloop
endfacet
facet normal -0.25881904510252035 -0.9659258262890684 0.0
  outer loop
    vertex 20.647047612756303 20.414814565722676 8.0
    vertex 20.000000000000004 20.500000000000004 1.4099832412739487e-15
    vertex 20.647047612756303 20.414814565722676 1.4099832412739487e-15
  endloop
endfacet
facet normal -2.851555166607009e-16 -1.0 0.0
  outer loop
    vertex 20.000000000000004 20.500000000000004 1.4099832412739487e-15
    vertex 20.647047612756303 20.414814565722676 8.0
    vertex 20.000000000000004 20.500000000000004 8.0
  endloop
endfacet
facet normal -0.4999999999999989 -0.8660254037844394 0.0
  outer loop
    vertex 21.250000000000004 20.165063509461103 8.0
    vertex 20.647047612756303 20.414814565722676 1.4099832412739487e-15
    vertex 21.250000000000004 20.165063509461103 1.4099832412739487e-15
  endloop
endfacet
facet normal -0.25881904510252035 -0.9659258262890684 0.0
  outer loop
    vertex 20.647047612756303 20.414814565722676 1.4099832412739487e-15
    vertex 21.250000000000004 20.165063509461103 8.0
    vertex 20.647047612756303 20.414814565722676 8.0
  endloop
endfacet
facet normal -0.7071067811865476 -0.7071067811865476 0.0
  outer loop
    vertex 21.767766952966372 19.767766952966372 8.0
    vertex 21.250000000000004 20.165063509461103 1.4099832412739487e-15
    vertex 21.767766952966372 19.767766952966372 1.4099832412739487e-15
  endloop
endfacet
facet normal -0.4999999999999989 -0.8660254037844394 0.0
  outer loop
    vertex 21.250000000000004 20.165063509461103 1.4099832412739487e-15
    vertex 21.767766952966372 19.767766952966372 8.0
    vertex 21.250000000000004 20.165063509461103 8.0
  endloop
endfacet
facet normal -0.7071067811865476 -0.7071067811865476 0.0
  outer loop
    vertex 21.767766952966372 19.767766952966372 8.0
    vertex 22.1650635094611 19.250000000000004 1.4099832412739487e-15
    vertex 22.1650635094611 19.250000000000004 8.0
  endloop
endfacet
facet normal -0.8660254037844389 -0.49999999999999956 0.0
  outer loop
    vertex 22.1650635094611 19.250000000000004 1.4099832412739487e-15
    vertex 21.767766952966372 19.767766952966372 8.0
    vertex 21.767766952966372 19.767766952966372 1.4099832412739487e-15
  endloop
endfacet
facet normal -0.8660254037844389 -0.49999999999999956 0.0
  outer loop
    vertex 22.1650635094611 19.250000000000004 8.0
    vertex 22.414814565722676 18.647047612756307 1.4099832412739487e-15
    vertex 22.414814565722676 18.647047612756307 8.0
  endloop
endfacet
facet normal -0.9659258262890684 -0.25881904510252085 0.0
  outer loop
    vertex 22.414814565722676 18.647047612756307 1.4099832412739487e-15
    vertex 22.1650635094611 19.250000000000004 8.0
    vertex 22.1650635094611 19.250000000000004 1.4099832412739487e-15
  endloop
endfacet
facet normal -0.633449464448402 -0.7737840628948318 1.707871631113265e-16
  outer loop
    vertex 4.706446202713472 3.676008977958988 8.000000000000002
    vertex 3.5255516637551634 4.743500298576979 4.229949723821846e-15
    vertex 4.706446202713473 3.676008977958986 4.229949723821846e-15
  endloop
endfacet
facet normal -0.7061198976150664 -0.7080922893183402 1.447413228448047e-16
  outer loop
    vertex 3.5255516637551634 4.743500298576979 4.229949723821846e-15
    vertex 4.706446202713472 3.676008977958988 8.000000000000002
    vertex 3.5255516637551625 4.743500298576981 8.000000000000002
  endloop
endfacet
facet normal -0.554700196225229 -0.8320502943378439 1.951940612797181e-16
  outer loop
    vertex 5.98612181134003 2.729182717010041 8.000000000000002
    vertex 4.706446202713473 3.676008977958986 4.229949723821846e-15
    vertex 5.98612181134003 2.7291827170100387 4.229949723821846e-15
  endloop
endfacet
facet normal -0.6334494644484018 -0.7737840628948319 1.7078716311132643e-16
  outer loop
    vertex 4.706446202713473 3.676008977958986 4.229949723821846e-15
    vertex 5.98612181134003 2.729182717010041 8.000000000000002
    vertex 4.706446202713472 3.676008977958988 8.000000000000002
  endloop
endfacet
facet normal -0.4706278024996894 -0.8823318375273066 2.1772779896866654e-16
  outer loop
    vertex 7.352298209380038 1.912107640181277 5.639932965095795e-15
    vertex 5.98612181134003 2.729182717010041 8.000000000000002
    vertex 5.98612181134003 2.7291827170100387 4.229949723821846e-15
  endloop
endfacet
facet normal -0.554700196225229 -0.8320502943378439 1.951940612797181e-16
  outer loop
    vertex 5.98612181134003 2.729182717010041 8.000000000000002
    vertex 7.352298209380038 1.912107640181277 5.639932965095795e-15
    vertex 7.352298209380036 1.9121076401812795 8.000000000000004
  endloop
endfacet
facet normal -0.38203907567267276 -0.9241461706132693 2.3817213339590464e-16
  outer loop
    vertex 8.791865020319072 1.2326247275343767 8.000000000000004
    vertex 7.352298209380038 1.912107640181277 5.639932965095795e-15
    vertex 8.791865020319074 1.2326247275343745 5.639932965095795e-15
  endloop
endfacet
facet normal -0.4706278024996894 -0.8823318375273066 2.1772779896866654e-16
  outer loop
    vertex 7.352298209380038 1.912107640181277 5.639932965095795e-15
    vertex 8.791865020319072 1.2326247275343767 8.000000000000004
    vertex 7.352298209380036 1.9121076401812795 8.000000000000004
  endloop
endfacet
facet normal -0.2897841486884308 -0.9570920264890527 2.5633087253065815e-16
  outer loop
    vertex 10.291007583813014 0.6972545695528951 8.000000000000004
    vertex 8.791865020319074 1.2326247275343745 5.639932965095795e-15
    vertex 10.291007583813014 0.6972545695528928 5.639932965095795e-15
  endloop
endfacet
facet normal -0.3820390756726727 -0.9241461706132693 2.3817213339590464e-16
  outer loop
    vertex 8.791865020319074 1.2326247275343745 5.639932965095795e-15
    vertex 10.291007583813014 0.6972545695528951 8.000000000000004
    vertex 8.791865020319072 1.2326247275343767 8.000000000000004
  endloop
endfacet
facet normal -0.19474833681797 -0.9808532435112984 2.720297578310394e-16
  outer loop
    vertex 11.835339526707997 0.3111347929414005 8.000000000000004
    vertex 10.291007583813014 0.6972545695528928 5.639932965095795e-15
    vertex 11.835339526708 0.3111347929413981 5.639932965095795e-15
  endloop
endfacet
facet normal -0.2897841486884307 -0.9570920264890527 2.5633087253065815e-16
  outer loop
    vertex 10.291007583813014 0.6972545695528928 5.639932965095795e-15
    vertex 11.835339526707997 0.3111347929414005 8.000000000000004
    vertex 10.291007583813014 0.6972545695528951 8.000000000000004
  endloop
endfacet
facet normal -0.09784364181872367 -0.9952017995138721 2.8757917403399223e-16
  outer loop
    vertex 13.410040820445738 0.07797075789958106 8.000000000000002
    vertex 11.835339526708 0.3111347929413981 5.639932965095795e-15
    vertex 13.410040820445738 0.07797075789957869 4.229949723821846e-15
  endloop
endfacet
facet normal -0.19474833681796994 -0.9808532435112984 2.720297578310394e-16
  outer loop
    vertex 11.835339526708 0.3111347929413981 5.639932965095795e-15
    vertex 13.410040820445738 0.07797075789958106 8.000000000000002
    vertex 11.835339526707997 0.3111347929414005 8.000000000000004
  endloop
endfacet
facet normal -0.04898061088904429 -0.9987997295538963 2.9555928945056937e-16
  outer loop
    vertex 15.000000000000004 2.3637632576354515e-15 8.000000000000002
    vertex 13.410040820445738 0.07797075789957869 4.229949723821846e-15
    vertex 15.000000000000004 0.0 4.229949723821846e-15
  endloop
endfacet
facet normal -0.09784364181872363 -0.9952017995138721 2.8757917403399227e-16
  outer loop
    vertex 13.410040820445738 0.07797075789957869 4.229949723821846e-15
    vertex 15.000000000000004 2.3637632576354515e-15 8.000000000000002
    vertex 13.410040820445738 0.07797075789958106 8.000000000000002
  endloop
endfacet
facet normal 4.028523546496997e-16 -1.0 0.0
  outer loop
    vertex 33.0 14.600000000000007 7.5
    vertex 26.000000000000004 14.600000000000005 6.400000000000001
    vertex 33.0 14.600000000000007 6.400000000000001
  endloop
endfacet
facet normal 4.028523546496997e-16 -1.0 0.0
  outer loop
    vertex 26.000000000000004 14.600000000000005 6.400000000000001
    vertex 33.0 14.600000000000007 7.5
    vertex 26.000000000000004 14.600000000000005 7.5
  endloop
endfacet
facet normal -1.0 0.0 0.0
  outer loop
    vertex 33.0 30.000000000000007 8.0
    vertex 33.0 27.600000000000005 7.5
    vertex 33.0 27.600000000000005 8.0
  endloop
endfacet
facet normal -1.0 0.0 0.0
  outer loop
    vertex 33.0 27.600000000000005 7.5
    vertex 33.0 30.000000000000007 8.0
    vertex 33.0 27.600000000000005 6.400000000000001
  endloop
endfacet
facet normal -1.0 0.0 0.0
  outer loop
    vertex 33.0 27.600000000000005 6.400000000000001
    vertex 33.0 30.000000000000007 8.0
    vertex 33.0 30.000000000000007 6.400000000000001
  endloop
endfacet
facet normal 0.0 1.0 0.0
  outer loop
    vertex 7.000000000000004 15.600000000000003 7.5
    vertex 14.000000000000002 15.600000000000003 6.400000000000001
    vertex 7.000000000000004 15.600000000000003 6.400000000000001
  endloop
endfacet
facet normal 0.0 1.0 0.0
  outer loop
    vertex 14.000000000000002 15.600000000000003 6.400000000000001
    vertex 7.000000000000004 15.600000000000003 7.5
    vertex 14.000000000000002 15.600000000000003 7.5
  endloop
endfacet
facet normal 0.0 1.0 0.0
  outer loop
    vertex 26.000000000000004 21.600000000000005 7.5
    vertex 33.0 21.600000000000005 6.400000000000001
    vertex 26.000000000000004 21.600000000000005 6.400000000000001
  endloop
endfacet
facet normal 0.0 1.0 0.0
  outer loop
    vertex 33.0 21.600000000000005 6.400000000000001
    vertex 26.000000000000004 21.600000000000005 7.5
    vertex 33.0 21.600000000000005 7.5
  endloop
endfacet
facet normal 1.0 0.0 0.0
  outer loop
    vertex 26.000000000000004 26.60000000000001 6.400000000000001
    vertex 26.000000000000004 21.600000000000005 7.5
    vertex 26.000000000000004 21.600000000000005 6.400000000000001
  endloop
endfacet
facet normal 1.0 0.0 0.0
  outer loop
    vertex 26.000000000000004 21.600000000000005 7.5
    vertex 26.000000000000004 26.60000000000001 6.400000000000001
    vertex 26.000000000000004 21.600000000000005 8.0
  endloop
endfacet
facet normal 1.0 0.0 0.0
  outer loop
    vertex 26.000000000000004 21.600000000000005 8.0
    vertex 26.000000000000004 26.60000000000001 6.400000000000001
    vertex 26.000000000000004 26.60000000000001 8.0
  endloop
endfacet
facet normal 1.0 0.0 0.0
  outer loop
    vertex 26.000000000000004 26.60000000000001 8.0
    vertex 26.000000000000004 26.60000000000001 6.400000000000001
    vertex 26.000000000000004 26.60000000000001 7.5
  endloop
endfacet
facet normal -0.0 -1.0 -0.0
  outer loop
    vertex 33.0 26.60000000000001 7.5
    vertex 26.000000000000004 26.60000000000001 6.400000000000001
    vertex 33.0 26.60000000000001 6.400000000000001
  endloop
endfacet
facet normal -0.0 -1.0 -0.0
  outer loop
    vertex 26.000000000000004 26.60000000000001 6.400000000000001
    vertex 33.0 26.60000000000001 7.5
    vertex 26.000000000000004 26.60000000000001 7.5
  endloop
endfacet
facet normal -1.0 0.0 0.0
  outer loop
    vertex 33.0 26.60000000000001 8.0
    vertex 33.0 21.600000000000005 7.5
    vertex 33.0 21.600000000000005 8.0
  endloop
endfacet
facet normal -1.0 0.0 0.0
  outer loop
    vertex 33.0 21.600000000000005 7.5
    vertex 33.0 26.60000000000001 8.0
    vertex 33.0 21.600000000000005 6.400000000000001
  endloop
endfacet
facet normal -1.0 0.0 0.0
  outer loop
    vertex 33.0 21.600000000000005 6.400000000000001
    vertex 33.0 26.60000000000001 8.0
    vertex 33.0 26.60000000000001 6.400000000000001
  endloop
endfacet
facet normal -1.0 0.0 0.0
  outer loop
    vertex 33.0 26.60000000000001 6.400000000000001
    vertex 33.0 26.60000000000001 8.0
    vertex 33.0 26.60000000000001 7.5
  endloop
endfacet
facet normal -0.0 -1.0 -0.0
  outer loop
    vertex 14.000000000000002 14.600000000000001 7.5
    vertex 7.000000000000004 14.600000000000001 6.400000000000001
    vertex 14.000000000000002 14.600000000000001 6.400000000000001
  endloop
endfacet
facet normal -0.0 -1.0 -0.0
  outer loop
    vertex 7.000000000000004 14.600000000000001 6.400000000000001
    vertex 14.000000000000002 14.600000000000001 7.5
    vertex 7.000000000000004 14.600000000000001 7.5
  endloop
endfacet
facet normal 0.0 1.0 0.0
  outer loop
    vertex 26.000000000000004 27.600000000000005 7.5
    vertex 33.0 27.600000000000005 6.400000000000001
    vertex 26.000000000000004 27.600000000000005 6.400000000000001
  endloop
endfacet
facet normal 0.0 1.0 0.0
  outer loop
    vertex 33.0 27.600000000000005 6.400000000000001
    vertex 26.000000000000004 27.600000000000005 7.5
    vertex 33.0 27.600000000000005 7.5
  endloop
endfacet
facet normal 1.0 0.0 0.0
  outer loop
    vertex 26.000000000000004 30.000000000000007 6.400000000000001
    vertex 26.000000000000004 27.600000000000005 7.5
    vertex 26.000000000000004 27.600000000000005 6.400000000000001
  endloop
endfacet
facet normal 1.0 0.0 0.0
  outer loop
    vertex 26.000000000000004 27.600000000000005 7.5
    vertex 26.000000000000004 30.000000000000007 6.400000000000001
    vertex 26.000000000000004 27.600000000000005 8.0
  endloop
endfacet
facet normal 1.0 0.0 0.0
  outer loop
    vertex 26.000000000000004 27.600000000000005 8.0
    vertex 26.000000000000004 30.000000000000007 6.400000000000001
    vertex 26.000000000000004 30.000000000000007 8.0
  endloop
endfacet
facet normal 1.0 0.0 0.0
  outer loop
    vertex 7.000000000000004 20.6 6.400000000000001
    vertex 7.000000000000004 15.600000000000003 7.5
    vertex 7.000000000000004 15.600000000000003 6.400000000000001
  endloop
endfacet
facet normal 1.0 0.0 0.0
  outer loop
    vertex 7.000000000000004 15.600000000000003 7.5
    vertex 7.000000000000004 20.6 6.400000000000001
    vertex 7.000000000000004 15.600000000000003 8.0
  endloop
endfacet
facet normal 1.0 0.0 0.0
  outer loop
    vertex 7.000000000000004 15.600000000000003 8.0
    vertex 7.000000000000004 20.6 6.400000000000001
    vertex 7.000000000000004 20.6 8.0
  endloop
endfacet
facet normal 1.0 0.0 0.0
  outer loop
    vertex 7.000000000000004 20.6 8.0
    vertex 7.000000000000004 20.6 6.400000000000001
    vertex 7.000000000000004 20.6 7.249835000000001
  endloop
endfacet
facet normal -0.0 -1.0 -0.0
  outer loop
    vertex 14.000000000000002 20.6 7.249835000000001
    vertex 7.000000000000004 20.6 6.400000000000001
    vertex 14.000000000000002 20.6 6.400000000000001
  endloop
endfacet
facet normal -0.0 -1.0 -0.0
  outer loop
    vertex 7.000000000000004 20.6 6.400000000000001
    vertex 14.000000000000002 20.6 7.249835000000001
    vertex 7.000000000000004 20.6 7.249835000000001
  endloop
endfacet
facet normal -1.0 0.0 0.0
  outer loop
    vertex 14.000000000000002 20.6 8.0
    vertex 14.000000000000002 15.600000000000003 7.5
    vertex 14.000000000000002 15.600000000000003 8.0
  endloop
endfacet
facet normal -1.0 0.0 0.0
  outer loop
    vertex 14.000000000000002 15.600000000000003 7.5
    vertex 14.000000000000002 20.6 8.0
    vertex 14.000000000000002 15.600000000000003 6.400000000000001
  endloop
endfacet
facet normal -1.0 0.0 0.0
  outer loop
    vertex 14.000000000000002 15.600000000000003 6.400000000000001
    vertex 14.000000000000002 20.6 8.0
    vertex 14.000000000000002 20.6 6.400000000000001
  endloop
endfacet
facet normal -1.0 0.0 0.0
  outer loop
    vertex 14.000000000000002 20.6 6.400000000000001
    vertex 14.000000000000002 20.6 8.0
    vertex 14.000000000000002 20.6 7.249835000000001
  endloop
endfacet
facet normal 0.0 0.0 1.0
  outer loop
    vertex 14.000000000000002 15.600000000000003 6.400000000000001
    vertex 7.000000000000004 20.6 6.400000000000001
    vertex 7.000000000000004 15.600000000000003 6.400000000000001
  endloop
endfacet
facet normal 0.0 0.0 1.0
  outer loop
    vertex 7.000000000000004 20.6 6.400000000000001
    vertex 14.000000000000002 15.600000000000003 6.400000000000001
    vertex 14.000000000000002 20.6 6.400000000000001
  endloop
endfacet
facet normal 0.0 0.0 1.0
  outer loop
    vertex 33.0 21.600000000000005 6.400000000000001
    vertex 26.000000000000004 26.60000000000001 6.400000000000001
    vertex 26.000000000000004 21.600000000000005 6.400000000000001
  endloop
endfacet
facet normal 0.0 0.0 1.0
  outer loop
    vertex 26.000000000000004 26.60000000000001 6.400000000000001
    vertex 33.0 21.600000000000005 6.400000000000001
    vertex 33.0 26.60000000000001 6.400000000000001
  endloop
endfacet
facet normal 0.0 0.0 1.0
  outer loop
    vertex 33.0 27.600000000000005 6.400000000000001
    vertex 26.000000000000004 30.000000000000007 6.400000000000001
    vertex 26.000000000000004 27.600000000000005 6.400000000000001
  endloop
endfacet
facet normal 0.0 0.0 1.0
  outer loop
    vertex 26.000000000000004 30.000000000000007 6.400000000000001
    vertex 33.0 27.600000000000005 6.400000000000001
    vertex 33.0 30.000000000000007 6.400000000000001
  endloop
endfacet
facet normal -1.0 0.0 0.0
  outer loop
    vertex 14.000000000000002 30.000000000000007 8.0
    vertex 14.000000000000002 27.600000000000005 7.5
    vertex 14.000000000000002 27.600000000000005 8.0
  endloop
endfacet
facet normal -1.0 0.0 0.0
  outer loop
    vertex 14.000000000000002 27.600000000000005 7.5
    vertex 14.000000000000002 30.000000000000007 8.0
    vertex 14.000000000000002 27.600000000000005 6.400000000000001
  endloop
endfacet
facet normal -1.0 0.0 0.0
  outer loop
    vertex 14.000000000000002 27.600000000000005 6.400000000000001
    vertex 14.000000000000002 30.000000000000007 8.0
    vertex 14.000000000000002 30.000000000000007 6.400000000000001
  endloop
endfacet
facet normal 0.0 1.0 0.0
  outer loop
    vertex 7.000000000000004 27.600000000000005 7.5
    vertex 14.000000000000002 27.600000000000005 6.400000000000001
    vertex 7.000000000000004 27.600000000000005 6.400000000000001
  endloop
endfacet
facet normal 0.0 1.0 0.0
  outer loop
    vertex 14.000000000000002 27.600000000000005 6.400000000000001
    vertex 7.000000000000004 27.600000000000005 7.5
    vertex 14.000000000000002 27.600000000000005 7.5
  endloop
endfacet
facet normal 0.0 0.0 1.0
  outer loop
    vertex 14.000000000000002 20.6 7.249835000000001
    vertex 7.000000000000004 21.6 7.249835000000001
    vertex 7.000000000000004 20.6 7.249835000000001
  endloop
endfacet
facet normal 0.0 0.0 1.0
  outer loop
    vertex 7.000000000000004 21.6 7.249835000000001
    vertex 14.000000000000002 20.6 7.249835000000001
    vertex 14.000000000000002 21.6 7.249835000000001
  endloop
endfacet
facet normal 1.0 0.0 0.0
  outer loop
    vertex 7.000000000000004 15.600000000000003 7.5
    vertex 7.000000000000004 14.600000000000001 8.0
    vertex 7.000000000000004 14.600000000000001 7.5
  endloop
endfacet
facet normal 1.0 0.0 0.0
  outer loop
    vertex 7.000000000000004 14.600000000000001 8.0
    vertex 7.000000000000004 15.600000000000003 7.5
    vertex 7.000000000000004 15.600000000000003 8.0
  endloop
endfacet
facet normal -1.0 0.0 0.0
  outer loop
    vertex 14.000000000000002 15.600000000000003 8.0
    vertex 14.000000000000002 14.600000000000001 7.5
    vertex 14.000000000000002 14.600000000000001 8.0
  endloop
endfacet
facet normal -1.0 0.0 0.0
  outer loop
    vertex 14.000000000000002 14.600000000000001 7.5
    vertex 14.000000000000002 15.600000000000003 8.0
    vertex 14.000000000000002 15.600000000000003 7.5
  endloop
endfacet
facet normal 1.0 0.0 0.0
  outer loop
    vertex 26.000000000000004 27.600000000000005 7.5
    vertex 26.000000000000004 26.60000000000001 8.0
    vertex 26.000000000000004 26.60000000000001 7.5
  endloop
endfacet
facet normal 1.0 0.0 0.0
  outer loop
    vertex 26.000000000000004 26.60000000000001 8.0
    vertex 26.000000000000004 27.600000000000005 7.5
    vertex 26.000000000000004 27.600000000000005 8.0
  endloop
endfacet
facet normal -1.0 0.0 0.0
  outer loop
    vertex 14.000000000000002 21.6 8.0
    vertex 14.000000000000002 20.6 7.249835000000001
    vertex 14.000000000000002 20.6 8.0
  endloop
endfacet
facet normal -1.0 0.0 0.0
  outer loop
    vertex 14.000000000000002 20.6 7.249835000000001
    vertex 14.000000000000002 21.6 8.0
    vertex 14.000000000000002 21.6 7.249835000000001
  endloop
endfacet
facet normal 0.0 1.0 0.0
  outer loop
    vertex 7.000000000000004 7.000000000000003 8.0
    vertex 14.000000000000002 7.000000000000003 0.0
    vertex 7.000000000000004 7.000000000000003 0.0
  endloop
endfacet
facet normal 0.0 1.0 0.0
  outer loop
    vertex 14.000000000000002 7.000000000000003 0.0
    vertex 7.000000000000004 7.000000000000003 8.0
    vertex 14.000000000000002 7.000000000000003 8.0
  endloop
endfacet
facet normal 0.0 1.0 0.0
  outer loop
    vertex 26.000000000000004 7.000000000000005 8.0
    vertex 33.0 7.000000000000005 0.0
    vertex 26.000000000000004 7.000000000000005 0.0
  endloop
endfacet
facet normal 0.0 1.0 0.0
  outer loop
    vertex 33.0 7.000000000000005 0.0
    vertex 26.000000000000004 7.000000000000005 8.0
    vertex 33.0 7.000000000000005 8.0
  endloop
endfacet
facet normal 1.0 0.0 0.0
  outer loop
    vertex 26.000000000000004 21.600000000000005 7.5
    vertex 26.000000000000004 20.600000000000005 8.0
    vertex 26.000000000000004 20.600000000000005 7.5
  endloop
endfacet
facet normal 1.0 0.0 0.0
  outer loop
    vertex 26.000000000000004 20.600000000000005 8.0
    vertex 26.000000000000004 21.600000000000005 7.5
    vertex 26.000000000000004 21.600000000000005 8.0
  endloop
endfacet
facet normal 1.0 0.0 0.0
  outer loop
    vertex 26.000000000000004 15.600000000000005 7.5
    vertex 26.000000000000004 14.600000000000005 8.0
    vertex 26.000000000000004 14.600000000000005 7.5
  endloop
endfacet
facet normal 1.0 0.0 0.0
  outer loop
    vertex 26.000000000000004 14.600000000000005 8.0
    vertex 26.000000000000004 15.600000000000005 7.5
    vertex 26.000000000000004 15.600000000000005 8.0
  endloop
endfacet
facet normal 0.0 0.0 1.0
  outer loop
    vertex 14.000000000000002 14.600000000000001 7.5
    vertex 7.000000000000004 15.600000000000003 7.5
    vertex 7.000000000000004 14.600000000000001 7.5
  endloop
endfacet
facet normal 0.0 0.0 1.0
  outer loop
    vertex 7.000000000000004 15.600000000000003 7.5
    vertex 14.000000000000002 14.600000000000001 7.5
    vertex 14.000000000000002 15.600000000000003 7.5
  endloop
endfacet
facet normal 1.0 0.0 0.0
  outer loop
    vertex 7.000000000000004 27.600000000000005 7.5
    vertex 7.000000000000004 26.60000000000001 8.0
    vertex 7.000000000000004 26.60000000000001 7.5
  endloop
endfacet
facet normal 1.0 0.0 0.0
  outer loop
    vertex 7.000000000000004 26.60000000000001 8.0
    vertex 7.000000000000004 27.600000000000005 7.5
    vertex 7.000000000000004 27.600000000000005 8.0
  endloop
endfacet
facet normal -1.0 0.0 0.0
  outer loop
    vertex 33.0 21.600000000000005 8.0
    vertex 33.0 20.600000000000005 7.5
    vertex 33.0 20.600000000000005 8.0
  endloop
endfacet
facet normal -1.0 0.0 0.0
  outer loop
    vertex 33.0 20.600000000000005 7.5
    vertex 33.0 21.600000000000005 8.0
    vertex 33.0 21.600000000000005 7.5
  endloop
endfacet
facet normal 1.3428411821656657e-16 -1.0 4.840410965601198e-17
  outer loop
    vertex 14.000000000000002 9.600000000000003 4.4
    vertex 7.000000000000004 9.600000000000001 0.0
    vertex 14.000000000000002 9.600000000000003 0.0
  endloop
endfacet
facet normal 1.3428411821656657e-16 -1.0 4.840410965601198e-17
  outer loop
    vertex 7.000000000000004 9.600000000000001 0.0
    vertex 14.000000000000002 9.600000000000003 4.4
    vertex 7.000000000000003 9.600000000000003 4.4
  endloop
endfacet
facet normal -0.0 -1.0 -0.0
  outer loop
    vertex 14.000000000000002 26.60000000000001 7.5
    vertex 7.000000000000004 26.60000000000001 6.400000000000001
    vertex 14.000000000000002 26.60000000000001 6.400000000000001
  endloop
endfacet
facet normal -0.0 -1.0 -0.0
  outer loop
    vertex 7.000000000000004 26.60000000000001 6.400000000000001
    vertex 14.000000000000002 26.60000000000001 7.5
    vertex 7.000000000000004 26.60000000000001 7.5
  endloop
endfacet
facet normal -1.0 0.0 0.0
  outer loop
    vertex 14.000000000000002 26.60000000000001 8.0
    vertex 14.000000000000002 21.6 7.249835000000001
    vertex 14.000000000000002 21.6 8.0
  endloop
endfacet
facet normal -1.0 0.0 0.0
  outer loop
    vertex 14.000000000000002 21.6 7.249835000000001
    vertex 14.000000000000002 26.60000000000001 8.0
    vertex 14.000000000000002 21.6 6.400000000000001
  endloop
endfacet
facet normal -1.0 0.0 0.0
  outer loop
    vertex 14.000000000000002 21.6 6.400000000000001
    vertex 14.000000000000002 26.60000000000001 8.0
    vertex 14.000000000000002 26.60000000000001 6.400000000000001
  endloop
endfacet
facet normal -1.0 0.0 0.0
  outer loop
    vertex 14.000000000000002 26.60000000000001 6.400000000000001
    vertex 14.000000000000002 26.60000000000001 8.0
    vertex 14.000000000000002 26.60000000000001 7.5
  endloop
endfacet
facet normal 0.0 0.0 1.0
  outer loop
    vertex 14.000000000000002 21.6 6.400000000000001
    vertex 7.000000000000004 26.60000000000001 6.400000000000001
    vertex 7.000000000000004 21.6 6.400000000000001
  endloop
endfacet
facet normal 0.0 0.0 1.0
  outer loop
    vertex 7.000000000000004 26.60000000000001 6.400000000000001
    vertex 14.000000000000002 21.6 6.400000000000001
    vertex 14.000000000000002 26.60000000000001 6.400000000000001
  endloop
endfacet
facet normal -1.0 0.0 0.0
  outer loop
    vertex 33.0 7.000000000000005 8.0
    vertex 33.0 10.600000000000007 6.400000000000001
    vertex 33.0 7.000000000000005 0.0
  endloop
endfacet
facet normal -1.0 0.0 0.0
  outer loop
    vertex 33.0 10.600000000000007 6.400000000000001
    vertex 33.0 7.000000000000005 8.0
    vertex 33.0 14.600000000000007 8.0
  endloop
endfacet
facet normal -1.0 0.0 0.0
  outer loop
    vertex 33.0 7.000000000000005 0.0
    vertex 33.0 10.600000000000007 6.400000000000001
    vertex 33.0 9.600000000000007 4.4
  endloop
endfacet
facet normal -1.0 0.0 0.0
  outer loop
    vertex 33.0 10.600000000000007 6.400000000000001
    vertex 33.0 14.600000000000007 8.0
    vertex 33.0 14.600000000000007 6.400000000000001
  endloop
endfacet
facet normal -1.0 0.0 0.0
  outer loop
    vertex 33.0 14.600000000000007 6.400000000000001
    vertex 33.0 14.600000000000007 8.0
    vertex 33.0 14.600000000000007 7.5
  endloop
endfacet
facet normal -1.0 0.0 0.0
  outer loop
    vertex 33.0 9.600000000000007 0.0
    vertex 33.0 7.000000000000005 0.0
    vertex 33.0 9.600000000000007 4.4
  endloop
endfacet
facet normal 1.0 0.0 0.0
  outer loop
    vertex 26.000000000000004 9.600000000000005 0.0
    vertex 26.000000000000004 7.000000000000005 8.0
    vertex 26.000000000000004 7.000000000000005 0.0
  endloop
endfacet
facet normal 1.0 0.0 0.0
  outer loop
    vertex 26.000000000000004 7.000000000000005 8.0
    vertex 26.000000000000004 9.600000000000005 0.0
    vertex 26.000000000000004 9.600000000000007 4.4
  endloop
endfacet
facet normal 1.0 0.0 0.0
  outer loop
    vertex 26.000000000000004 7.000000000000005 8.0
    vertex 26.000000000000004 9.600000000000007 4.4
    vertex 26.000000000000004 10.600000000000007 6.400000000000001
  endloop
endfacet
facet normal 1.0 0.0 0.0
  outer loop
    vertex 26.000000000000004 7.000000000000005 8.0
    vertex 26.000000000000004 10.600000000000007 6.400000000000001
    vertex 26.000000000000004 14.600000000000005 8.0
  endloop
endfacet
facet normal 1.0 0.0 0.0
  outer loop
    vertex 26.000000000000004 14.600000000000005 8.0
    vertex 26.000000000000004 10.600000000000007 6.400000000000001
    vertex 26.000000000000004 14.600000000000005 6.400000000000001
  endloop
endfacet
facet normal 1.0 0.0 0.0
  outer loop
    vertex 26.000000000000004 14.600000000000005 8.0
    vertex 26.000000000000004 14.600000000000005 6.400000000000001
    vertex 26.000000000000004 14.600000000000005 7.5
  endloop
endfacet
facet normal 0.0 0.0 1.0
  outer loop
    vertex 14.000000000000002 10.600000000000003 6.400000000000001
    vertex 7.000000000000004 14.600000000000001 6.400000000000001
    vertex 7.000000000000003 10.600000000000003 6.400000000000001
  endloop
endfacet
facet normal 0.0 0.0 1.0
  outer loop
    vertex 7.000000000000004 14.600000000000001 6.400000000000001
    vertex 14.000000000000002 10.600000000000003 6.400000000000001
    vertex 14.000000000000002 14.600000000000001 6.400000000000001
  endloop
endfacet
facet normal 0.0 0.0 1.0
  outer loop
    vertex 33.0 10.600000000000007 6.400000000000001
    vertex 26.000000000000004 14.600000000000005 6.400000000000001
    vertex 26.000000000000004 10.600000000000007 6.400000000000001
  endloop
endfacet
facet normal 0.0 0.0 1.0
  outer loop
    vertex 26.000000000000004 14.600000000000005 6.400000000000001
    vertex 33.0 10.600000000000007 6.400000000000001
    vertex 33.0 14.600000000000007 6.400000000000001
  endloop
endfacet
facet normal 0.0 -0.894427190999916 0.4472135954999577
  outer loop
    vertex 33.0 10.600000000000007 6.400000000000001
    vertex 26.000000000000004 9.600000000000007 4.4
    vertex 33.0 9.600000000000007 4.4
  endloop
endfacet
facet normal 0.0 -0.894427190999916 0.4472135954999577
  outer loop
    vertex 26.000000000000004 9.600000000000007 4.4
    vertex 33.0 10.600000000000007 6.400000000000001
    vertex 26.000000000000004 10.600000000000007 6.400000000000001
  endloop
endfacet
endsolid left outside holder ver2
