solid right belt holder ver2-no hole
facet normal -0.38268343236508934 0.9238795325112871 -7.233864325540367e-17
  outer loop
    vertex 12.346331352698204 53.477590650225736 6.399999999999999
    vertex 14.823619097949587 54.31851652578136 1.4099832412739487e-15
    vertex 12.346331352698204 53.477590650225736 1.4099832412739487e-15
  endloop
endfacet
facet normal -0.2588190451025202 0.9659258262890684 -1.0731479526345517e-16
  outer loop
    vertex 14.823619097949587 54.31851652578136 1.4099832412739487e-15
    vertex 12.346331352698204 53.477590650225736 6.399999999999999
    vertex 14.823619097949587 54.31851652578136 6.399999999999999
  endloop
endfacet
facet normal -0.5000000000000011 0.866025403784438 -2.5520217030598377e-17
  outer loop
    vertex 10.000000000000002 52.32050807568878 6.399999999999997
    vertex 12.346331352698204 53.477590650225736 1.4099832412739487e-15
    vertex 10.000000000000002 52.32050807568878 0.0
  endloop
endfacet
facet normal -0.38268343236508934 0.923879532511287 -7.233864325540367e-17
  outer loop
    vertex 12.346331352698204 53.477590650225736 1.4099832412739487e-15
    vertex 10.000000000000002 52.32050807568878 6.399999999999997
    vertex 12.346331352698204 53.477590650225736 6.399999999999999
  endloop
endfacet
facet normal -0.6087614290087208 0.7933533402912353 -2.848568443371196e-17
  outer loop
    vertex 7.824771419825589 50.8670668058247 7.9999999999999964
    vertex 8.000000000000002 50.98415079985017 1.4099832412739487e-15
    vertex 7.824771419825589 50.8670668058247 0.0
  endloop
endfacet
facet normal -0.5555702330196046 0.8314696123025436 2.3705479213384077e-17
  outer loop
    vertex 8.000000000000002 50.98415079985017 1.4099832412739487e-15
    vertex 7.824771419825589 50.8670668058247 7.9999999999999964
    vertex 8.000000000000002 50.98415079985017 6.399999999999999
  endloop
endfacet
facet normal -0.5555702330196046 0.8314696123025436 2.3705479213384077e-17
  outer loop
    vertex 8.000000000000002 50.98415079985017 1.4099832412739487e-15
    vertex 8.000000000000002 50.98415079985017 6.399999999999999
    vertex 10.000000000000002 52.32050807568878 6.399999999999997
  endloop
endfacet
facet normal -0.5555702330196046 0.8314696123025436 2.3705479213384077e-17
  outer loop
    vertex 8.000000000000002 50.98415079985017 6.399999999999999
    vertex 7.824771419825589 50.8670668058247 7.9999999999999964
    vertex 8.000000000000002 50.98415079985017 7.999999999999998
  endloop
endfacet
facet normal -0.5000000000000011 0.866025403784438 -2.5520217030598377e-17
  outer loop
    vertex 10.000000000000002 52.32050807568878 6.399999999999997
    vertex 10.000000000000002 52.32050807568878 0.0
    vertex 8.000000000000002 50.98415079985017 1.4099832412739487e-15
  endloop
endfacet
facet normal -0.707106781186547 0.707106781186548 -8.118430549529466e-17
  outer loop
    vertex 5.857864376269051 49.14213562373096 7.9999999999999964
    vertex 7.824771419825589 50.8670668058247 0.0
    vertex 5.857864376269052 49.14213562373096 0.0
  endloop
endfacet
facet normal -0.608761429008721 0.793353340291235 -2.848568443371219e-17
  outer loop
    vertex 7.824771419825589 50.8670668058247 0.0
    vertex 5.857864376269051 49.14213562373096 7.9999999999999964
    vertex 7.824771419825589 50.8670668058247 7.9999999999999964
  endloop
endfacet
facet normal -0.707106781186547 0.707106781186548 -8.118430549529466e-17
  outer loop
    vertex 5.857864376269051 49.14213562373096 7.9999999999999964
    vertex 4.132933194175299 47.17522858017441 0.0
    vertex 4.1329331941752985 47.17522858017441 7.9999999999999964
  endloop
endfacet
facet normal -0.7933533402912354 0.6087614290087204 -8.139904280840887e-17
  outer loop
    vertex 4.132933194175299 47.17522858017441 0.0
    vertex 5.857864376269051 49.14213562373096 7.9999999999999964
    vertex 5.857864376269052 49.14213562373096 0.0
  endloop
endfacet
facet normal -0.7933533402912354 0.6087614290087203 -8.139904280840885e-17
  outer loop
    vertex 4.1329331941752985 47.17522858017441 7.9999999999999964
    vertex 2.679491924311228 45.0 0.0
    vertex 2.679491924311228 45.0 7.9999999999999964
  endloop
endfacet
facet normal -0.8660254037844387 0.5000000000000001 -8.022101993099288e-17
  outer loop
    vertex 2.679491924311228 45.0 0.0
    vertex 4.1329331941752985 47.17522858017441 7.9999999999999964
    vertex 4.132933194175299 47.17522858017441 0.0
  endloop
endfacet
facet normal -0.8660254037844387 0.5000000000000001 -8.022101993099288e-17
  outer loop
    vertex 2.679491924311228 45.0 7.9999999999999964
    vertex 1.522409349774265 42.65366864730179 1.4099832412739487e-15
    vertex 1.5224093497742646 42.65366864730179 7.999999999999998
  endloop
endfacet
facet normal -0.923879532511287 0.38268343236508945 -7.767039316108894e-17
  outer loop
    vertex 1.522409349774265 42.65366864730179 1.4099832412739487e-15
    vertex 2.679491924311228 45.0 7.9999999999999964
    vertex 2.679491924311228 45.0 0.0
  endloop
endfacet
facet normal -0.9238795325112871 0.3826834323650895 -7.767039316108897e-17
  outer loop
    vertex 1.5224093497742646 42.65366864730179 7.999999999999998
    vertex 0.6814834742186355 40.17638090205041 1.4099832412739487e-15
    vertex 0.6814834742186351 40.17638090205041 7.999999999999998
  endloop
endfacet
facet normal -0.9659258262890684 0.25881904510252074 -7.379080442989755e-17
  outer loop
    vertex 0.6814834742186355 40.17638090205041 1.4099832412739487e-15
    vertex 1.5224093497742646 42.65366864730179 7.999999999999998
    vertex 1.522409349774265 42.65366864730179 1.4099832412739487e-15
  endloop
endfacet
facet normal -0.9659258262890683 0.2588190451025207 -7.379080442989754e-17
  outer loop
    vertex 0.6814834742186351 40.17638090205041 7.999999999999998
    vertex 0.1711027725237925 37.61052384440103 2.8199664825478975e-15
    vertex 0.171102772523792 37.61052384440103 7.999999999999999
  endloop
endfacet
facet normal -0.9914448613738104 0.13052619222005163 -6.691172901520587e-17
  outer loop
    vertex 0.1711027725237925 37.61052384440103 2.8199664825478975e-15
    vertex 0.6814834742186351 40.17638090205041 7.999999999999998
    vertex 0.6814834742186355 40.17638090205041 1.4099832412739487e-15
  endloop
endfacet
facet normal -0.9914448613738104 0.1305261922200516 -6.691172901520587e-17
  outer loop
    vertex 0.171102772523792 37.61052384440103 7.999999999999999
    vertex 4.986549404157982e-16 34.99999999999999 2.8199664825478975e-15
    vertex 0.0 34.99999999999999 7.999999999999999
  endloop
endfacet
facet normal -0.9978589232386036 0.06540312923014302 -6.21643981581853e-17
  outer loop
    vertex 4.986549404157982e-16 34.99999999999999 2.8199664825478975e-15
    vertex 0.171102772523792 37.61052384440103 7.999999999999999
    vertex 0.1711027725237925 37.61052384440103 2.8199664825478975e-15
  endloop
endfacet
facet normal -0.13052619222005116 0.9914448613738105 -7.237454072270256e-17
  outer loop
    vertex 17.38947615559897 54.82889722747621 1.4099832412739487e-15
    vertex 20.0 55.0 7.999999999999999
    vertex 20.0 55.0 0.0
  endloop
endfacet
facet normal -0.06540312923014317 0.9978589232386036 0.0
  outer loop
    vertex 20.0 55.0 7.999999999999999
    vertex 17.38947615559897 54.82889722747621 1.4099832412739487e-15
    vertex 17.38947615559897 54.82889722747621 7.999999999999998
  endloop
endfacet
facet normal -0.25881904510251985 0.9659258262890686 -1.0731479526345535e-16
  outer loop
    vertex 14.823619097949587 54.31851652578136 6.399999999999999
    vertex 15.0 54.353600868568776 2.8199664825478975e-15
    vertex 14.823619097949587 54.31851652578136 1.4099832412739487e-15
  endloop
endfacet
facet normal -0.19509032201612742 0.9807852804032307 -1.4443916255088894e-16
  outer loop
    vertex 15.0 54.353600868568776 2.8199664825478975e-15
    vertex 17.38947615559897 54.82889722747621 7.999999999999998
    vertex 17.38947615559897 54.82889722747621 1.4099832412739487e-15
  endloop
endfacet
facet normal -0.13052619222005118 0.9914448613738105 -7.237454072270257e-17
  outer loop
    vertex 17.38947615559897 54.82889722747621 7.999999999999998
    vertex 15.0 54.353600868568776 2.8199664825478975e-15
    vertex 15.0 54.353600868568776 6.3999999999999995
  endloop
endfacet
facet normal -0.19509032201612742 0.9807852804032307 -1.4443916255088894e-16
  outer loop
    vertex 15.0 54.353600868568776 6.3999999999999995
    vertex 15.0 54.353600868568776 2.8199664825478975e-15
    vertex 14.823619097949587 54.31851652578136 6.399999999999999
  endloop
endfacet
facet normal -0.13052619222005118 0.9914448613738105 -7.237454072270257e-17
  outer loop
    vertex 17.38947615559897 54.82889722747621 7.999999999999998
    vertex 15.0 54.353600868568776 6.3999999999999995
    vertex 15.0 54.353600868568776 7.999999999999999
  endloop
endfacet
facet normal -0.0 -1.0 -0.0
  outer loop
    vertex 15.0 42.6 7.499999999999999
    vertex 8.000000000000002 42.6 6.3999999999999995
    vertex 15.0 42.6 6.3999999999999995
  endloop
endfacet
facet normal -0.0 -1.0 -0.0
  outer loop
    vertex 8.000000000000002 42.6 6.3999999999999995
    vertex 15.0 42.6 7.499999999999999
    vertex 8.000000000000002 42.6 7.499999999999999
  endloop
endfacet
facet normal 0.0 1.0 0.0
  outer loop
    vertex 8.000000000000002 31.599999999999998 7.499999999999999
    vertex 15.0 31.599999999999998 6.3999999999999995
    vertex 8.000000000000002 31.599999999999998 6.3999999999999995
  endloop
endfacet
facet normal 0.0 1.0 0.0
  outer loop
    vertex 15.0 31.599999999999998 6.3999999999999995
    vertex 8.000000000000002 31.599999999999998 7.499999999999999
    vertex 15.0 31.599999999999998 7.499999999999999
  endloop
endfacet
facet normal 0.0 1.0 0.0
  outer loop
    vertex 8.000000000000002 37.6 7.499999999999999
    vertex 15.0 37.6 6.3999999999999995
    vertex 8.000000000000002 37.6 6.3999999999999995
  endloop
endfacet
facet normal 0.0 1.0 0.0
  outer loop
    vertex 15.0 37.6 6.3999999999999995
    vertex 8.000000000000002 37.6 7.499999999999999
    vertex 15.0 37.6 7.499999999999999
  endloop
endfacet
facet normal 0.0 0.0 1.0
  outer loop
    vertex 15.0 31.599999999999998 6.3999999999999995
    vertex 8.000000000000002 36.6 6.3999999999999995
    vertex 8.000000000000002 31.599999999999998 6.3999999999999995
  endloop
endfacet
facet normal 0.0 0.0 1.0
  outer loop
    vertex 8.000000000000002 36.6 6.3999999999999995
    vertex 15.0 31.599999999999998 6.3999999999999995
    vertex 15.0 36.6 6.3999999999999995
  endloop
endfacet
facet normal 0.0 0.0 1.0
  outer loop
    vertex 15.0 43.6 6.3999999999999995
    vertex 8.000000000000002 48.6 6.3999999999999995
    vertex 8.000000000000002 43.6 6.3999999999999995
  endloop
endfacet
facet normal 0.0 0.0 1.0
  outer loop
    vertex 8.000000000000002 48.6 6.3999999999999995
    vertex 15.0 43.6 6.3999999999999995
    vertex 15.0 48.6 6.3999999999999995
  endloop
endfacet
facet normal 0.0 0.0 1.0
  outer loop
    vertex 15.0 37.6 6.3999999999999995
    vertex 8.000000000000002 42.6 6.3999999999999995
    vertex 8.000000000000002 37.6 6.3999999999999995
  endloop
endfacet
facet normal 0.0 0.0 1.0
  outer loop
    vertex 8.000000000000002 42.6 6.3999999999999995
    vertex 15.0 37.6 6.3999999999999995
    vertex 15.0 42.6 6.3999999999999995
  endloop
endfacet
facet normal 0.0 0.0 1.0
  outer loop
    vertex 15.0 42.6 7.499999999999999
    vertex 8.000000000000002 43.6 7.499999999999999
    vertex 8.000000000000002 42.6 7.499999999999999
  endloop
endfacet
facet normal 0.0 0.0 1.0
  outer loop
    vertex 8.000000000000002 43.6 7.499999999999999
    vertex 15.0 42.6 7.499999999999999
    vertex 15.0 43.6 7.499999999999999
  endloop
endfacet
facet normal 4.0285235464969966e-16 -1.0 0.0
  outer loop
    vertex 15.0 17.000000000000004 7.999999999999999
    vertex 8.0 17.0 0.0
    vertex 15.0 17.000000000000004 0.0
  endloop
endfacet
facet normal 4.0285235464969966e-16 -1.0 0.0
  outer loop
    vertex 8.0 17.0 0.0
    vertex 15.0 17.000000000000004 7.999999999999999
    vertex 8.0 17.0 7.999999999999999
  endloop
endfacet
facet normal -0.0 -1.0 -0.0
  outer loop
    vertex 20.0 0.0 7.999999999999999
    vertex 0.0 0.0 0.0
    vertex 20.0 0.0 0.0
  endloop
endfacet
facet normal -0.0 -1.0 -0.0
  outer loop
    vertex 0.0 0.0 0.0
    vertex 20.0 0.0 7.999999999999999
    vertex 0.0 0.0 7.999999999999999
  endloop
endfacet
facet normal -4.8721210132458674e-17 3.5851002907967593e-17 1.0
  outer loop
    vertex 0.0 0.0 7.999999999999999
    vertex 8.0 17.0 7.999999999999999
    vertex 0.0 34.99999999999999 7.999999999999999
  endloop
endfacet
facet normal -4.8721210132458674e-17 3.5851002907967593e-17 1.0
  outer loop
    vertex 8.0 17.0 7.999999999999999
    vertex 0.0 0.0 7.999999999999999
    vertex 20.0 0.0 7.999999999999999
  endloop
endfacet
facet normal -4.8721210132458674e-17 3.5851002907967593e-17 1.0
  outer loop
    vertex 0.0 34.99999999999999 7.999999999999999
    vertex 8.0 17.0 7.999999999999999
    vertex 0.171102772523792 37.61052384440103 7.999999999999999
  endloop
endfacet
facet normal -4.8721210132458674e-17 3.5851002907967593e-17 1.0
  outer loop
    vertex 0.171102772523792 37.61052384440103 7.999999999999999
    vertex 8.0 17.0 7.999999999999999
    vertex 0.6814834742186351 40.17638090205041 7.999999999999998
  endloop
endfacet
facet normal -4.8721210132458674e-17 3.5851002907967593e-17 1.0
  outer loop
    vertex 0.6814834742186351 40.17638090205041 7.999999999999998
    vertex 8.0 17.0 7.999999999999999
    vertex 1.5224093497742646 42.65366864730179 7.999999999999998
  endloop
endfacet
facet normal -4.8721210132458674e-17 3.5851002907967593e-17 1.0
  outer loop
    vertex 1.5224093497742646 42.65366864730179 7.999999999999998
    vertex 8.0 17.0 7.999999999999999
    vertex 2.679491924311228 45.0 7.9999999999999964
  endloop
endfacet
facet normal -4.8721210132458674e-17 3.5851002907967593e-17 1.0
  outer loop
    vertex 2.679491924311228 45.0 7.9999999999999964
    vertex 8.0 17.0 7.999999999999999
    vertex 4.1329331941752985 47.17522858017441 7.9999999999999964
  endloop
endfacet
facet normal -4.8721210132458674e-17 3.5851002907967593e-17 1.0
  outer loop
    vertex 4.1329331941752985 47.17522858017441 7.9999999999999964
    vertex 8.0 17.0 7.999999999999999
    vertex 5.857864376269051 49.14213562373096 7.9999999999999964
  endloop
endfacet
facet normal -4.8721210132458674e-17 3.5851002907967593e-17 1.0
  outer loop
    vertex 5.857864376269051 49.14213562373096 7.9999999999999964
    vertex 8.0 17.0 7.999999999999999
    vertex 7.824771419825589 50.8670668058247 7.9999999999999964
  endloop
endfacet
facet normal -4.8721210132458674e-17 3.5851002907967593e-17 1.0
  outer loop
    vertex 8.0 17.0 7.999999999999999
    vertex 20.0 0.0 7.999999999999999
    vertex 15.0 17.000000000000004 7.999999999999999
  endloop
endfacet
facet normal -4.8721210132458674e-17 3.5851002907967593e-17 1.0
  outer loop
    vertex 15.0 17.000000000000004 7.999999999999999
    vertex 20.0 0.0 7.999999999999999
    vertex 15.0 54.353600868568776 7.999999999999999
  endloop
endfacet
facet normal -4.8721210132458674e-17 3.5851002907967593e-17 1.0
  outer loop
    vertex 15.0 54.353600868568776 7.999999999999999
    vertex 20.0 0.0 7.999999999999999
    vertex 17.38947615559897 54.82889722747621 7.999999999999998
  endloop
endfacet
facet normal -4.8721210132458674e-17 3.5851002907967593e-17 1.0
  outer loop
    vertex 17.38947615559897 54.82889722747621 7.999999999999998
    vertex 20.0 0.0 7.999999999999999
    vertex 20.0 55.0 7.999999999999999
  endloop
endfacet
facet normal -4.8721210132458674e-17 3.5851002907967593e-17 1.0
  outer loop
    vertex 8.000000000000002 50.98415079985017 7.999999999999998
    vertex 7.824771419825589 50.8670668058247 7.9999999999999964
    vertex 8.0 17.0 7.999999999999999
  endloop
endfacet
facet normal 1.0 0.0 0.0
  outer loop
    vertex 20.0 55.0 0.0
    vertex 20.0 0.0 7.999999999999999
    vertex 20.0 0.0 0.0
  endloop
endfacet
facet normal 1.0 0.0 0.0
  outer loop
    vertex 20.0 0.0 7.999999999999999
    vertex 20.0 55.0 0.0
    vertex 20.0 55.0 7.999999999999999
  endloop
endfacet
facet normal -1.0 7.123642005939977e-18 -3.1165933775987385e-17
  outer loop
    vertex 0.0 34.99999999999999 7.999999999999999
    vertex 0.0 0.0 0.0
    vertex 0.0 0.0 7.999999999999999
  endloop
endfacet
facet normal -1.0 7.123642005939977e-18 -3.1165933775987385e-17
  outer loop
    vertex 0.0 0.0 0.0
    vertex 0.0 34.99999999999999 7.999999999999999
    vertex 4.986549404157982e-16 34.99999999999999 2.8199664825478975e-15
  endloop
endfacet
facet normal -3.086863815077863e-17 1.4555590991300688e-17 -1.0
  outer loop
    vertex 8.000000000000002 50.98415079985017 1.4099832412739487e-15
    vertex 8.0 19.599999999999998 0.0
    vertex 7.824771419825589 50.8670668058247 0.0
  endloop
endfacet
facet normal -3.086863815077863e-17 1.4555590991300688e-17 -1.0
  outer loop
    vertex 8.0 19.599999999999998 0.0
    vertex 8.000000000000002 50.98415079985017 1.4099832412739487e-15
    vertex 15.0 19.599999999999998 0.0
  endloop
endfacet
facet normal -3.086863815077863e-17 1.4555590991300688e-17 -1.0
  outer loop
    vertex 15.0 19.599999999999998 0.0
    vertex 8.000000000000002 50.98415079985017 1.4099832412739487e-15
    vertex 10.000000000000002 52.32050807568878 0.0
  endloop
endfacet
facet normal -3.086863815077863e-17 1.4555590991300688e-17 -1.0
  outer loop
    vertex 15.0 19.599999999999998 0.0
    vertex 10.000000000000002 52.32050807568878 0.0
    vertex 12.346331352698204 53.477590650225736 1.4099832412739487e-15
  endloop
endfacet
facet normal -3.086863815077863e-17 1.4555590991300688e-17 -1.0
  outer loop
    vertex 15.0 19.599999999999998 0.0
    vertex 12.346331352698204 53.477590650225736 1.4099832412739487e-15
    vertex 14.823619097949587 54.31851652578136 1.4099832412739487e-15
  endloop
endfacet
facet normal -3.086863815077863e-17 1.4555590991300688e-17 -1.0
  outer loop
    vertex 15.0 19.599999999999998 0.0
    vertex 14.823619097949587 54.31851652578136 1.4099832412739487e-15
    vertex 15.0 54.353600868568776 2.8199664825478975e-15
  endloop
endfacet
facet normal -3.086863815077863e-17 1.4555590991300688e-17 -1.0
  outer loop
    vertex 15.0 19.599999999999998 0.0
    vertex 15.0 54.353600868568776 2.8199664825478975e-15
    vertex 17.38947615559897 54.82889722747621 1.4099832412739487e-15
  endloop
endfacet
facet normal -3.086863815077863e-17 1.4555590991300688e-17 -1.0
  outer loop
    vertex 15.0 19.599999999999998 0.0
    vertex 17.38947615559897 54.82889722747621 1.4099832412739487e-15
    vertex 15.0 17.000000000000004 0.0
  endloop
endfacet
facet normal -3.086863815077863e-17 1.4555590991300688e-17 -1.0
  outer loop
    vertex 0.0 0.0 0.0
    vertex 8.0 17.0 0.0
    vertex 20.0 0.0 0.0
  endloop
endfacet
facet normal -3.086863815077863e-17 1.4555590991300688e-17 -1.0
  outer loop
    vertex 8.0 17.0 0.0
    vertex 0.0 0.0 0.0
    vertex 4.986549404157982e-16 34.99999999999999 2.8199664825478975e-15
  endloop
endfacet
facet normal -3.086863815077863e-17 1.4555590991300688e-17 -1.0
  outer loop
    vertex 8.0 17.0 0.0
    vertex 4.986549404157982e-16 34.99999999999999 2.8199664825478975e-15
    vertex 0.1711027725237925 37.61052384440103 2.8199664825478975e-15
  endloop
endfacet
facet normal -3.086863815077863e-17 1.4555590991300688e-17 -1.0
  outer loop
    vertex 8.0 17.0 0.0
    vertex 0.1711027725237925 37.61052384440103 2.8199664825478975e-15
    vertex 0.6814834742186355 40.17638090205041 1.4099832412739487e-15
  endloop
endfacet
facet normal -3.086863815077863e-17 1.4555590991300688e-17 -1.0
  outer loop
    vertex 8.0 17.0 0.0
    vertex 0.6814834742186355 40.17638090205041 1.4099832412739487e-15
    vertex 1.522409349774265 42.65366864730179 1.4099832412739487e-15
  endloop
endfacet
facet normal -3.086863815077863e-17 1.4555590991300688e-17 -1.0
  outer loop
    vertex 8.0 17.0 0.0
    vertex 1.522409349774265 42.65366864730179 1.4099832412739487e-15
    vertex 2.679491924311228 45.0 0.0
  endloop
endfacet
facet normal -3.086863815077863e-17 1.4555590991300688e-17 -1.0
  outer loop
    vertex 8.0 17.0 0.0
    vertex 2.679491924311228 45.0 0.0
    vertex 4.132933194175299 47.17522858017441 0.0
  endloop
endfacet
facet normal -3.086863815077863e-17 1.4555590991300688e-17 -1.0
  outer loop
    vertex 8.0 17.0 0.0
    vertex 4.132933194175299 47.17522858017441 0.0
    vertex 5.857864376269052 49.14213562373096 0.0
  endloop
endfacet
facet normal -3.086863815077863e-17 1.4555590991300688e-17 -1.0
  outer loop
    vertex 8.0 17.0 0.0
    vertex 5.857864376269052 49.14213562373096 0.0
    vertex 7.824771419825589 50.8670668058247 0.0
  endloop
endfacet
facet normal -3.086863815077863e-17 1.4555590991300688e-17 -1.0
  outer loop
    vertex 8.0 17.0 0.0
    vertex 7.824771419825589 50.8670668058247 0.0
    vertex 8.0 19.599999999999998 0.0
  endloop
endfacet
facet normal -3.086863815077863e-17 1.4555590991300688e-17 -1.0
  outer loop
    vertex 20.0 0.0 0.0
    vertex 8.0 17.0 0.0
    vertex 15.0 17.000000000000004 0.0
  endloop
endfacet
facet normal -3.086863815077863e-17 1.4555590991300688e-17 -1.0
  outer loop
    vertex 20.0 0.0 0.0
    vertex 15.0 17.000000000000004 0.0
    vertex 17.38947615559897 54.82889722747621 1.4099832412739487e-15
  endloop
endfacet
facet normal -3.086863815077863e-17 1.4555590991300688e-17 -1.0
  outer loop
    vertex 20.0 0.0 0.0
    vertex 17.38947615559897 54.82889722747621 1.4099832412739487e-15
    vertex 20.0 55.0 0.0
  endloop
endfacet
facet normal 0.0 0.0 1.0
  outer loop
    vertex 15.0 24.599999999999994 7.499999999999999
    vertex 8.000000000000002 25.599999999999998 7.499999999999999
    vertex 8.000000000000002 24.599999999999998 7.499999999999999
  endloop
endfacet
facet normal 0.0 0.0 1.0
  outer loop
    vertex 8.000000000000002 25.599999999999998 7.499999999999999
    vertex 15.0 24.599999999999994 7.499999999999999
    vertex 15.0 25.599999999999998 7.499999999999999
  endloop
endfacet
facet normal 0.0 0.0 1.0
  outer loop
    vertex 15.0 30.6 7.499999999999999
    vertex 8.000000000000002 31.599999999999998 7.499999999999999
    vertex 8.000000000000002 30.6 7.499999999999999
  endloop
endfacet
facet normal 0.0 0.0 1.0
  outer loop
    vertex 8.000000000000002 31.599999999999998 7.499999999999999
    vertex 15.0 30.6 7.499999999999999
    vertex 15.0 31.599999999999998 7.499999999999999
  endloop
endfacet
facet normal 0.0 0.0 1.0
  outer loop
    vertex 15.0 36.6 7.499999999999999
    vertex 8.000000000000002 37.6 7.499999999999999
    vertex 8.000000000000002 36.6 7.499999999999999
  endloop
endfacet
facet normal 0.0 0.0 1.0
  outer loop
    vertex 8.000000000000002 37.6 7.499999999999999
    vertex 15.0 36.6 7.499999999999999
    vertex 15.0 37.6 7.499999999999999
  endloop
endfacet
facet normal 0.0 1.0 -3.169534746609932e-16
  outer loop
    vertex 8.000000000000002 49.6 7.499999999999999
    vertex 15.0 49.6 6.3999999999999995
    vertex 8.000000000000002 49.6 6.3999999999999995
  endloop
endfacet
facet normal 0.0 1.0 -3.169534746609932e-16
  outer loop
    vertex 15.0 49.6 6.3999999999999995
    vertex 8.000000000000002 49.6 7.499999999999999
    vertex 15.0 49.6 7.499999999999999
  endloop
endfacet
facet normal -1.9871893771542672e-16 3.169534746609932e-16 1.0
  outer loop
    vertex 15.0 49.6 6.3999999999999995
    vertex 8.000000000000002 50.98415079985017 6.399999999999999
    vertex 8.000000000000002 49.6 6.3999999999999995
  endloop
endfacet
facet normal -1.9871893771542672e-16 3.169534746609932e-16 1.0
  outer loop
    vertex 8.000000000000002 50.98415079985017 6.399999999999999
    vertex 15.0 49.6 6.3999999999999995
    vertex 10.000000000000002 52.32050807568878 6.399999999999997
  endloop
endfacet
facet normal -1.9871893771542672e-16 3.169534746609932e-16 1.0
  outer loop
    vertex 10.000000000000002 52.32050807568878 6.399999999999997
    vertex 15.0 49.6 6.3999999999999995
    vertex 12.346331352698204 53.477590650225736 6.399999999999999
  endloop
endfacet
facet normal -1.9871893771542672e-16 3.169534746609932e-16 1.0
  outer loop
    vertex 12.346331352698204 53.477590650225736 6.399999999999999
    vertex 15.0 49.6 6.3999999999999995
    vertex 14.823619097949587 54.31851652578136 6.399999999999999
  endloop
endfacet
facet normal -1.9871893771542672e-16 3.169534746609932e-16 1.0
  outer loop
    vertex 14.823619097949587 54.31851652578136 6.399999999999999
    vertex 15.0 49.6 6.3999999999999995
    vertex 15.0 54.353600868568776 6.3999999999999995
  endloop
endfacet
facet normal -4.028523546496997e-16 -1.0 -0.0
  outer loop
    vertex 15.0 24.599999999999994 7.499999999999999
    vertex 8.000000000000002 24.599999999999998 6.3999999999999995
    vertex 15.0 24.599999999999994 6.3999999999999995
  endloop
endfacet
facet normal -4.028523546496997e-16 -1.0 -0.0
  outer loop
    vertex 8.000000000000002 24.599999999999998 6.3999999999999995
    vertex 15.0 24.599999999999994 7.499999999999999
    vertex 8.000000000000002 24.599999999999998 7.499999999999999
  endloop
endfacet
facet normal -0.0 -1.0 -0.0
  outer loop
    vertex 15.0 30.6 7.499999999999999
    vertex 8.000000000000002 30.6 6.3999999999999995
    vertex 15.0 30.6 6.3999999999999995
  endloop
endfacet
facet normal -0.0 -1.0 -0.0
  outer loop
    vertex 8.000000000000002 30.6 6.3999999999999995
    vertex 15.0 30.6 7.499999999999999
    vertex 8.000000000000002 30.6 7.499999999999999
  endloop
endfacet
facet normal 0.0 0.0 1.0
  outer loop
    vertex 15.0 48.6 7.499999999999999
    vertex 8.000000000000002 49.6 7.499999999999999
    vertex 8.000000000000002 48.6 7.499999999999999
  endloop
endfacet
facet normal 0.0 0.0 1.0
  outer loop
    vertex 8.000000000000002 49.6 7.499999999999999
    vertex 15.0 48.6 7.499999999999999
    vertex 15.0 49.6 7.499999999999999
  endloop
endfacet
facet normal 0.0 1.0 0.0
  outer loop
    vertex 8.000000000000002 25.599999999999998 7.499999999999999
    vertex 15.0 25.599999999999998 6.3999999999999995
    vertex 8.000000000000002 25.599999999999998 6.3999999999999995
  endloop
endfacet
facet normal 0.0 1.0 0.0
  outer loop
    vertex 15.0 25.599999999999998 6.3999999999999995
    vertex 8.000000000000002 25.599999999999998 7.499999999999999
    vertex 15.0 25.599999999999998 7.499999999999999
  endloop
endfacet
facet normal 0.0 0.0 1.0
  outer loop
    vertex 15.0 25.599999999999998 6.3999999999999995
    vertex 8.000000000000002 30.6 6.3999999999999995
    vertex 8.000000000000002 25.599999999999998 6.3999999999999995
  endloop
endfacet
facet normal 0.0 0.0 1.0
  outer loop
    vertex 8.000000000000002 30.6 6.3999999999999995
    vertex 15.0 25.599999999999998 6.3999999999999995
    vertex 15.0 30.6 6.3999999999999995
  endloop
endfacet
facet normal 4.4609855372378257e-20 0.9999980823566702 0.001958387852894999
  outer loop
    vertex 8.0 19.591383076923076 4.399999999999999
    vertex 15.0 19.599999999999998 0.0
    vertex 8.0 19.599999999999998 0.0
  endloop
endfacet
facet normal 4.4609855372378257e-20 0.9999980823566702 0.001958387852894999
  outer loop
    vertex 15.0 19.599999999999998 0.0
    vertex 8.0 19.591383076923076 4.399999999999999
    vertex 15.0 19.591383076923076 4.399999999999999
  endloop
endfacet
facet normal -0.0 -1.0 -0.0
  outer loop
    vertex 15.0 48.6 7.499999999999999
    vertex 8.000000000000002 48.6 6.3999999999999995
    vertex 15.0 48.6 6.3999999999999995
  endloop
endfacet
facet normal -0.0 -1.0 -0.0
  outer loop
    vertex 8.000000000000002 48.6 6.3999999999999995
    vertex 15.0 48.6 7.499999999999999
    vertex 8.000000000000002 48.6 7.499999999999999
  endloop
endfacet
facet normal -0.0 -1.0 -0.0
  outer loop
    vertex 15.0 36.6 7.499999999999999
    vertex 8.000000000000002 36.6 6.3999999999999995
    vertex 15.0 36.6 6.3999999999999995
  endloop
endfacet
facet normal -0.0 -1.0 -0.0
  outer loop
    vertex 8.000000000000002 36.6 6.3999999999999995
    vertex 15.0 36.6 7.499999999999999
    vertex 8.000000000000002 36.6 7.499999999999999
  endloop
endfacet
facet normal 0.0 1.0 0.0
  outer loop
    vertex 8.000000000000002 43.6 7.499999999999999
    vertex 15.0 43.6 6.3999999999999995
    vertex 8.000000000000002 43.6 6.3999999999999995
  endloop
endfacet
facet normal 0.0 1.0 0.0
  outer loop
    vertex 15.0 43.6 6.3999999999999995
    vertex 8.000000000000002 43.6 7.499999999999999
    vertex 15.0 43.6 7.499999999999999
  endloop
endfacet
facet normal -5.098389216021067e-18 0.892876451529249 -0.4503017236304309
  outer loop
    vertex 8.0 20.600037124992525 6.3999999999999995
    vertex 15.0 19.591383076923076 4.399999999999999
    vertex 8.0 19.591383076923076 4.399999999999999
  endloop
endfacet
facet normal -5.098389216021067e-18 0.892876451529249 -0.4503017236304309
  outer loop
    vertex 15.0 19.591383076923076 4.399999999999999
    vertex 8.0 20.600037124992525 6.3999999999999995
    vertex 15.0 20.600037124992525 6.3999999999999995
  endloop
endfacet
facet normal -1.0 2.423710883270107e-17 1.1684140603600524e-16
  outer loop
    vertex 8.0 19.599999999999998 0.0
    vertex 8.0 17.0 0.0
    vertex 8.0 19.591383076923076 4.399999999999999
  endloop
endfacet
facet normal -1.0 2.423710883270107e-17 1.1684140603600524e-16
  outer loop
    vertex 8.0 17.0 7.999999999999999
    vertex 8.0 20.600037124992525 6.3999999999999995
    vertex 8.0 17.0 0.0
  endloop
endfacet
facet normal -1.0 2.423710883270107e-17 1.1684140603600524e-16
  outer loop
    vertex 8.0 20.600037124992525 6.3999999999999995
    vertex 8.0 17.0 7.999999999999999
    vertex 8.000000000000002 24.599999999999998 7.499999999999999
  endloop
endfacet
facet normal -1.0 2.423710883270107e-17 1.1684140603600524e-16
  outer loop
    vertex 8.000000000000002 24.599999999999998 7.499999999999999
    vertex 8.0 17.0 7.999999999999999
    vertex 8.000000000000002 50.98415079985017 7.999999999999998
  endloop
endfacet
facet normal -1.0 2.423710883270107e-17 1.1684140603600524e-16
  outer loop
    vertex 8.0 17.0 0.0
    vertex 8.0 20.600037124992525 6.3999999999999995
    vertex 8.0 19.591383076923076 4.399999999999999
  endloop
endfacet
facet normal -1.0 2.423710883270107e-17 1.1684140603600524e-16
  outer loop
    vertex 8.000000000000002 24.599999999999998 7.499999999999999
    vertex 8.000000000000002 50.98415079985017 7.999999999999998
    vertex 8.000000000000002 25.599999999999998 7.499999999999999
  endloop
endfacet
facet normal -1.0 2.423710883270107e-17 1.1684140603600524e-16
  outer loop
    vertex 8.000000000000002 25.599999999999998 7.499999999999999
    vertex 8.000000000000002 50.98415079985017 7.999999999999998
    vertex 8.000000000000002 30.6 7.499999999999999
  endloop
endfacet
facet normal -1.0 2.423710883270107e-17 1.1684140603600524e-16
  outer loop
    vertex 8.000000000000002 25.599999999999998 7.499999999999999
    vertex 8.000000000000002 30.6 7.499999999999999
    vertex 8.000000000000002 25.599999999999998 6.3999999999999995
  endloop
endfacet
facet normal -1.0 2.423710883270107e-17 1.1684140603600524e-16
  outer loop
    vertex 8.000000000000002 30.6 7.499999999999999
    vertex 8.000000000000002 50.98415079985017 7.999999999999998
    vertex 8.000000000000002 31.599999999999998 7.499999999999999
  endloop
endfacet
facet normal -1.0 2.423710883270107e-17 1.1684140603600524e-16
  outer loop
    vertex 8.000000000000002 31.599999999999998 7.499999999999999
    vertex 8.000000000000002 50.98415079985017 7.999999999999998
    vertex 8.000000000000002 36.6 7.499999999999999
  endloop
endfacet
facet normal -1.0 2.423710883270107e-17 1.1684140603600524e-16
  outer loop
    vertex 8.000000000000002 31.599999999999998 7.499999999999999
    vertex 8.000000000000002 36.6 7.499999999999999
    vertex 8.000000000000002 31.599999999999998 6.3999999999999995
  endloop
endfacet
facet normal -1.0 2.423710883270107e-17 1.1684140603600524e-16
  outer loop
    vertex 8.000000000000002 36.6 7.499999999999999
    vertex 8.000000000000002 50.98415079985017 7.999999999999998
    vertex 8.000000000000002 37.6 7.499999999999999
  endloop
endfacet
facet normal -1.0 2.423710883270107e-17 1.1684140603600524e-16
  outer loop
    vertex 8.000000000000002 37.6 7.499999999999999
    vertex 8.000000000000002 50.98415079985017 7.999999999999998
    vertex 8.000000000000002 42.6 7.499999999999999
  endloop
endfacet
facet normal -1.0 2.423710883270107e-17 1.1684140603600524e-16
  outer loop
    vertex 8.000000000000002 37.6 7.499999999999999
    vertex 8.000000000000002 42.6 7.499999999999999
    vertex 8.000000000000002 37.6 6.3999999999999995
  endloop
endfacet
facet normal -1.0 2.423710883270107e-17 1.1684140603600524e-16
  outer loop
    vertex 8.000000000000002 42.6 7.499999999999999
    vertex 8.000000000000002 50.98415079985017 7.999999999999998
    vertex 8.000000000000002 43.6 7.499999999999999
  endloop
endfacet
facet normal -1.0 2.423710883270107e-17 1.1684140603600524e-16
  outer loop
    vertex 8.000000000000002 43.6 7.499999999999999
    vertex 8.000000000000002 50.98415079985017 7.999999999999998
    vertex 8.000000000000002 48.6 7.499999999999999
  endloop
endfacet
facet normal -1.0 2.423710883270107e-17 1.1684140603600524e-16
  outer loop
    vertex 8.000000000000002 43.6 7.499999999999999
    vertex 8.000000000000002 48.6 7.499999999999999
    vertex 8.000000000000002 43.6 6.3999999999999995
  endloop
endfacet
facet normal -1.0 2.423710883270107e-17 1.1684140603600524e-16
  outer loop
    vertex 8.000000000000002 48.6 7.499999999999999
    vertex 8.000000000000002 50.98415079985017 7.999999999999998
    vertex 8.000000000000002 49.6 7.499999999999999
  endloop
endfacet
facet normal -1.0 2.423710883270107e-17 1.1684140603600524e-16
  outer loop
    vertex 8.000000000000002 49.6 7.499999999999999
    vertex 8.000000000000002 50.98415079985017 7.999999999999998
    vertex 8.000000000000002 49.6 6.3999999999999995
  endloop
endfacet
facet normal -1.0 2.423710883270107e-17 1.1684140603600524e-16
  outer loop
    vertex 8.000000000000002 49.6 6.3999999999999995
    vertex 8.000000000000002 50.98415079985017 7.999999999999998
    vertex 8.000000000000002 50.98415079985017 6.399999999999999
  endloop
endfacet
facet normal -1.0 2.423710883270107e-17 1.1684140603600524e-16
  outer loop
    vertex 8.000000000000002 48.6 6.3999999999999995
    vertex 8.000000000000002 43.6 6.3999999999999995
    vertex 8.000000000000002 48.6 7.499999999999999
  endloop
endfacet
facet normal -1.0 2.423710883270107e-17 1.1684140603600524e-16
  outer loop
    vertex 8.000000000000002 42.6 6.3999999999999995
    vertex 8.000000000000002 37.6 6.3999999999999995
    vertex 8.000000000000002 42.6 7.499999999999999
  endloop
endfacet
facet normal -1.0 2.423710883270107e-17 1.1684140603600524e-16
  outer loop
    vertex 8.000000000000002 36.6 6.3999999999999995
    vertex 8.000000000000002 31.599999999999998 6.3999999999999995
    vertex 8.000000000000002 36.6 7.499999999999999
  endloop
endfacet
facet normal -1.0 2.423710883270107e-17 1.1684140603600524e-16
  outer loop
    vertex 8.000000000000002 30.6 6.3999999999999995
    vertex 8.000000000000002 25.599999999999998 6.3999999999999995
    vertex 8.000000000000002 30.6 7.499999999999999
  endloop
endfacet
facet normal -1.0 2.423710883270107e-17 1.1684140603600524e-16
  outer loop
    vertex 8.000000000000002 24.599999999999998 6.3999999999999995
    vertex 8.0 20.600037124992525 6.3999999999999995
    vertex 8.000000000000002 24.599999999999998 7.499999999999999
  endloop
endfacet
facet normal -1.0 0.0 0.0
  outer loop
    vertex 15.0 17.000000000000004 7.999999999999999
    vertex 15.0 20.600037124992525 6.3999999999999995
    vertex 15.0 17.000000000000004 0.0
  endloop
endfacet
facet normal -1.0 0.0 0.0
  outer loop
    vertex 15.0 20.600037124992525 6.3999999999999995
    vertex 15.0 17.000000000000004 7.999999999999999
    vertex 15.0 24.599999999999994 7.499999999999999
  endloop
endfacet
facet normal -1.0 0.0 0.0
  outer loop
    vertex 15.0 24.599999999999994 7.499999999999999
    vertex 15.0 17.000000000000004 7.999999999999999
    vertex 15.0 54.353600868568776 7.999999999999999
  endloop
endfacet
facet normal -1.0 0.0 0.0
  outer loop
    vertex 15.0 17.000000000000004 0.0
    vertex 15.0 20.600037124992525 6.3999999999999995
    vertex 15.0 19.591383076923076 4.399999999999999
  endloop
endfacet
facet normal -1.0 0.0 0.0
  outer loop
    vertex 15.0 24.599999999999994 7.499999999999999
    vertex 15.0 54.353600868568776 7.999999999999999
    vertex 15.0 25.599999999999998 7.499999999999999
  endloop
endfacet
facet normal -1.0 0.0 0.0
  outer loop
    vertex 15.0 25.599999999999998 7.499999999999999
    vertex 15.0 54.353600868568776 7.999999999999999
    vertex 15.0 30.6 7.499999999999999
  endloop
endfacet
facet normal -1.0 0.0 0.0
  outer loop
    vertex 15.0 25.599999999999998 7.499999999999999
    vertex 15.0 30.6 7.499999999999999
    vertex 15.0 25.599999999999998 6.3999999999999995
  endloop
endfacet
facet normal -1.0 0.0 0.0
  outer loop
    vertex 15.0 30.6 7.499999999999999
    vertex 15.0 54.353600868568776 7.999999999999999
    vertex 15.0 31.599999999999998 7.499999999999999
  endloop
endfacet
facet normal -1.0 0.0 0.0
  outer loop
    vertex 15.0 31.599999999999998 7.499999999999999
    vertex 15.0 54.353600868568776 7.999999999999999
    vertex 15.0 36.6 7.499999999999999
  endloop
endfacet
facet normal -1.0 0.0 0.0
  outer loop
    vertex 15.0 31.599999999999998 7.499999999999999
    vertex 15.0 36.6 7.499999999999999
    vertex 15.0 31.599999999999998 6.3999999999999995
  endloop
endfacet
facet normal -1.0 0.0 0.0
  outer loop
    vertex 15.0 36.6 7.499999999999999
    vertex 15.0 54.353600868568776 7.999999999999999
    vertex 15.0 37.6 7.499999999999999
  endloop
endfacet
facet normal -1.0 0.0 0.0
  outer loop
    vertex 15.0 37.6 7.499999999999999
    vertex 15.0 54.353600868568776 7.999999999999999
    vertex 15.0 42.6 7.499999999999999
  endloop
endfacet
facet normal -1.0 0.0 0.0
  outer loop
    vertex 15.0 37.6 7.499999999999999
    vertex 15.0 42.6 7.499999999999999
    vertex 15.0 37.6 6.3999999999999995
  endloop
endfacet
facet normal -1.0 0.0 0.0
  outer loop
    vertex 15.0 42.6 7.499999999999999
    vertex 15.0 54.353600868568776 7.999999999999999
    vertex 15.0 43.6 7.499999999999999
  endloop
endfacet
facet normal -1.0 0.0 0.0
  outer loop
    vertex 15.0 43.6 7.499999999999999
    vertex 15.0 54.353600868568776 7.999999999999999
    vertex 15.0 48.6 7.499999999999999
  endloop
endfacet
facet normal -1.0 0.0 0.0
  outer loop
    vertex 15.0 43.6 7.499999999999999
    vertex 15.0 48.6 7.499999999999999
    vertex 15.0 43.6 6.3999999999999995
  endloop
endfacet
facet normal -1.0 0.0 0.0
  outer loop
    vertex 15.0 48.6 7.499999999999999
    vertex 15.0 54.353600868568776 7.999999999999999
    vertex 15.0 49.6 7.499999999999999
  endloop
endfacet
facet normal -1.0 0.0 0.0
  outer loop
    vertex 15.0 49.6 7.499999999999999
    vertex 15.0 54.353600868568776 7.999999999999999
    vertex 15.0 49.6 6.3999999999999995
  endloop
endfacet
facet normal -1.0 0.0 0.0
  outer loop
    vertex 15.0 49.6 6.3999999999999995
    vertex 15.0 54.353600868568776 7.999999999999999
    vertex 15.0 54.353600868568776 6.3999999999999995
  endloop
endfacet
facet normal -1.0 0.0 0.0
  outer loop
    vertex 15.0 48.6 6.3999999999999995
    vertex 15.0 43.6 6.3999999999999995
    vertex 15.0 48.6 7.499999999999999
  endloop
endfacet
facet normal -1.0 0.0 0.0
  outer loop
    vertex 15.0 42.6 6.3999999999999995
    vertex 15.0 37.6 6.3999999999999995
    vertex 15.0 42.6 7.499999999999999
  endloop
endfacet
facet normal -1.0 0.0 0.0
  outer loop
    vertex 15.0 36.6 6.3999999999999995
    vertex 15.0 31.599999999999998 6.3999999999999995
    vertex 15.0 36.6 7.499999999999999
  endloop
endfacet
facet normal -1.0 0.0 0.0
  outer loop
    vertex 15.0 30.6 6.3999999999999995
    vertex 15.0 25.599999999999998 6.3999999999999995
    vertex 15.0 30.6 7.499999999999999
  endloop
endfacet
facet normal -1.0 0.0 0.0
  outer loop
    vertex 15.0 24.599999999999994 6.3999999999999995
    vertex 15.0 20.600037124992525 6.3999999999999995
    vertex 15.0 24.599999999999994 7.499999999999999
  endloop
endfacet
facet normal -1.0 0.0 0.0
  outer loop
    vertex 15.0 19.599999999999998 0.0
    vertex 15.0 17.000000000000004 0.0
    vertex 15.0 19.591383076923076 4.399999999999999
  endloop
endfacet
facet normal 0.0 0.0 1.0
  outer loop
    vertex 15.0 20.600037124992525 6.3999999999999995
    vertex 8.000000000000002 24.599999999999998 6.3999999999999995
    vertex 8.0 20.600037124992525 6.3999999999999995
  endloop
endfacet
facet normal 0.0 0.0 1.0
  outer loop
    vertex 8.000000000000002 24.599999999999998 6.3999999999999995
    vertex 15.0 20.600037124992525 6.3999999999999995
    vertex 15.0 24.599999999999994 6.3999999999999995
  endloop
endfacet
endsolid right belt holder ver2-no hole
