solid right belt holder ver2
facet normal -0.38268343236508934 0.9238795325112871 -7.233864325540367e-17
  outer loop
    vertex 12.346331352698204 53.477590650225736 6.399999999999999
    vertex 14.823619097949587 54.31851652578136 1.4099832412739487e-15
    vertex 12.346331352698204 53.477590650225736 1.4099832412739487e-15
  endloop
endfacet
facet normal -0.2588190451025202 0.9659258262890684 -1.0731479526345517e-16
  outer loop
    vertex 14.823619097949587 54.31851652578136 1.4099832412739487e-15
    vertex 12.346331352698204 53.477590650225736 6.399999999999999
    vertex 14.823619097949587 54.31851652578136 6.399999999999999
  endloop
endfacet
facet normal -0.5000000000000011 0.866025403784438 -2.5520217030598377e-17
  outer loop
    vertex 10.000000000000002 52.32050807568878 6.399999999999997
    vertex 12.346331352698204 53.477590650225736 1.4099832412739487e-15
    vertex 10.000000000000002 52.32050807568878 0.0
  endloop
endfacet
facet normal -0.38268343236508934 0.923879532511287 -7.233864325540367e-17
  outer loop
    vertex 12.346331352698204 53.477590650225736 1.4099832412739487e-15
    vertex 10.000000000000002 52.32050807568878 6.399999999999997
    vertex 12.346331352698204 53.477590650225736 6.399999999999999
  endloop
endfacet
facet normal -0.6087614290087208 0.7933533402912353 -2.848568443371196e-17
  outer loop
    vertex 7.824771419825589 50.8670668058247 7.9999999999999964
    vertex 8.000000000000002 50.98415079985017 1.4099832412739487e-15
    vertex 7.824771419825589 50.8670668058247 0.0
  endloop
endfacet
facet normal -0.5555702330196046 0.8314696123025436 2.3705479213384077e-17
  outer loop
    vertex 8.000000000000002 50.98415079985017 1.4099832412739487e-15
    vertex 7.824771419825589 50.8670668058247 7.9999999999999964
    vertex 8.000000000000002 50.98415079985017 6.399999999999999
  endloop
endfacet
facet normal -0.5555702330196046 0.8314696123025436 2.3705479213384077e-17
  outer loop
    vertex 8.000000000000002 50.98415079985017 1.4099832412739487e-15
    vertex 8.000000000000002 50.98415079985017 6.399999999999999
    vertex 10.000000000000002 52.32050807568878 6.399999999999997
  endloop
endfacet
facet normal -0.5555702330196046 0.8314696123025436 2.3705479213384077e-17
  outer loop
    vertex 8.000000000000002 50.98415079985017 6.399999999999999
    vertex 7.824771419825589 50.8670668058247 7.9999999999999964
    vertex 8.000000000000002 50.98415079985017 7.999999999999998
  endloop
endfacet
facet normal -0.5000000000000011 0.866025403784438 -2.5520217030598377e-17
  outer loop
    vertex 10.000000000000002 52.32050807568878 6.399999999999997
    vertex 10.000000000000002 52.32050807568878 0.0
    vertex 8.000000000000002 50.98415079985017 1.4099832412739487e-15
  endloop
endfacet
facet normal -0.707106781186547 0.707106781186548 -8.118430549529466e-17
  outer loop
    vertex 5.857864376269051 49.14213562373096 7.9999999999999964
    vertex 7.824771419825589 50.8670668058247 0.0
    vertex 5.857864376269052 49.14213562373096 0.0
  endloop
endfacet
facet normal -0.608761429008721 0.793353340291235 -2.848568443371219e-17
  outer loop
    vertex 7.824771419825589 50.8670668058247 0.0
    vertex 5.857864376269051 49.14213562373096 7.9999999999999964
    vertex 7.824771419825589 50.8670668058247 7.9999999999999964
  endloop
endfacet
facet normal -0.707106781186547 0.707106781186548 -8.118430549529466e-17
  outer loop
    vertex 5.857864376269051 49.14213562373096 7.9999999999999964
    vertex 4.132933194175299 47.17522858017441 0.0
    vertex 4.1329331941752985 47.17522858017441 7.9999999999999964
  endloop
endfacet
facet normal -0.7933533402912353 0.6087614290087204 -8.139904280840886e-17
  outer loop
    vertex 4.132933194175299 47.17522858017441 0.0
    vertex 5.857864376269051 49.14213562373096 7.9999999999999964
    vertex 5.857864376269052 49.14213562373096 0.0
  endloop
endfacet
facet normal -0.7933533402912354 0.6087614290087204 -8.139904280840887e-17
  outer loop
    vertex 4.1329331941752985 47.17522858017441 7.9999999999999964
    vertex 2.679491924311228 45.0 0.0
    vertex 2.679491924311228 45.0 7.9999999999999964
  endloop
endfacet
facet normal -0.8660254037844387 0.5000000000000001 -8.022101993099288e-17
  outer loop
    vertex 2.679491924311228 45.0 0.0
    vertex 4.1329331941752985 47.17522858017441 7.9999999999999964
    vertex 4.132933194175299 47.17522858017441 0.0
  endloop
endfacet
facet normal -0.8660254037844387 0.5000000000000001 -8.022101993099288e-17
  outer loop
    vertex 2.679491924311228 45.0 7.9999999999999964
    vertex 1.522409349774265 42.65366864730179 1.4099832412739487e-15
    vertex 1.5224093497742646 42.65366864730179 7.999999999999998
  endloop
endfacet
facet normal -0.923879532511287 0.38268343236508945 -7.767039316108894e-17
  outer loop
    vertex 1.522409349774265 42.65366864730179 1.4099832412739487e-15
    vertex 2.679491924311228 45.0 7.9999999999999964
    vertex 2.679491924311228 45.0 0.0
  endloop
endfacet
facet normal -0.9238795325112871 0.3826834323650895 -7.767039316108897e-17
  outer loop
    vertex 1.5224093497742646 42.65366864730179 7.999999999999998
    vertex 0.6814834742186355 40.17638090205041 1.4099832412739487e-15
    vertex 0.6814834742186351 40.17638090205041 7.999999999999998
  endloop
endfacet
facet normal -0.9659258262890684 0.25881904510252074 -7.379080442989755e-17
  outer loop
    vertex 0.6814834742186355 40.17638090205041 1.4099832412739487e-15
    vertex 1.5224093497742646 42.65366864730179 7.999999999999998
    vertex 1.522409349774265 42.65366864730179 1.4099832412739487e-15
  endloop
endfacet
facet normal -0.9659258262890683 0.2588190451025207 -7.379080442989754e-17
  outer loop
    vertex 0.6814834742186351 40.17638090205041 7.999999999999998
    vertex 0.1711027725237925 37.61052384440103 2.8199664825478975e-15
    vertex 0.171102772523792 37.61052384440103 7.999999999999999
  endloop
endfacet
facet normal -0.9914448613738104 0.13052619222005163 -6.691172901520587e-17
  outer loop
    vertex 0.1711027725237925 37.61052384440103 2.8199664825478975e-15
    vertex 0.6814834742186351 40.17638090205041 7.999999999999998
    vertex 0.6814834742186355 40.17638090205041 1.4099832412739487e-15
  endloop
endfacet
facet normal -0.9914448613738104 0.1305261922200516 -6.691172901520587e-17
  outer loop
    vertex 0.171102772523792 37.61052384440103 7.999999999999999
    vertex 4.986549404157982e-16 34.99999999999999 2.8199664825478975e-15
    vertex 0.0 34.99999999999999 7.999999999999999
  endloop
endfacet
facet normal -0.9978589232386036 0.06540312923014302 -6.21643981581853e-17
  outer loop
    vertex 4.986549404157982e-16 34.99999999999999 2.8199664825478975e-15
    vertex 0.171102772523792 37.61052384440103 7.999999999999999
    vertex 0.1711027725237925 37.61052384440103 2.8199664825478975e-15
  endloop
endfacet
facet normal -0.13052619222005116 0.9914448613738105 -7.237454072270256e-17
  outer loop
    vertex 17.38947615559897 54.82889722747621 1.4099832412739487e-15
    vertex 20.0 55.0 7.999999999999999
    vertex 20.0 55.0 0.0
  endloop
endfacet
facet normal -0.06540312923014317 0.9978589232386036 0.0
  outer loop
    vertex 20.0 55.0 7.999999999999999
    vertex 17.38947615559897 54.82889722747621 1.4099832412739487e-15
    vertex 17.38947615559897 54.82889722747621 7.999999999999998
  endloop
endfacet
facet normal -0.25881904510251985 0.9659258262890686 -1.0731479526345535e-16
  outer loop
    vertex 14.823619097949587 54.31851652578136 6.399999999999999
    vertex 15.0 54.353600868568776 2.8199664825478975e-15
    vertex 14.823619097949587 54.31851652578136 1.4099832412739487e-15
  endloop
endfacet
facet normal -0.19509032201612742 0.9807852804032307 -1.4443916255088894e-16
  outer loop
    vertex 15.0 54.353600868568776 2.8199664825478975e-15
    vertex 17.38947615559897 54.82889722747621 7.999999999999998
    vertex 17.38947615559897 54.82889722747621 1.4099832412739487e-15
  endloop
endfacet
facet normal -0.13052619222005118 0.9914448613738105 -7.237454072270257e-17
  outer loop
    vertex 17.38947615559897 54.82889722747621 7.999999999999998
    vertex 15.0 54.353600868568776 2.8199664825478975e-15
    vertex 15.0 54.353600868568776 6.3999999999999995
  endloop
endfacet
facet normal -0.19509032201612742 0.9807852804032307 -1.4443916255088894e-16
  outer loop
    vertex 15.0 54.353600868568776 6.3999999999999995
    vertex 15.0 54.353600868568776 2.8199664825478975e-15
    vertex 14.823619097949587 54.31851652578136 6.399999999999999
  endloop
endfacet
facet normal -0.13052619222005118 0.9914448613738105 -7.237454072270257e-17
  outer loop
    vertex 17.38947615559897 54.82889722747621 7.999999999999998
    vertex 15.0 54.353600868568776 6.3999999999999995
    vertex 15.0 54.353600868568776 7.999999999999999
  endloop
endfacet
facet normal -0.0 -1.0 -0.0
  outer loop
    vertex 15.0 42.6 7.499999999999999
    vertex 8.000000000000002 42.6 6.3999999999999995
    vertex 15.0 42.6 6.3999999999999995
  endloop
endfacet
facet normal -0.0 -1.0 -0.0
  outer loop
    vertex 8.000000000000002 42.6 6.3999999999999995
    vertex 15.0 42.6 7.499999999999999
    vertex 8.000000000000002 42.6 7.499999999999999
  endloop
endfacet
facet normal 0.0 1.0 0.0
  outer loop
    vertex 8.000000000000002 31.599999999999998 7.499999999999999
    vertex 15.0 31.599999999999998 6.3999999999999995
    vertex 8.000000000000002 31.599999999999998 6.3999999999999995
  endloop
endfacet
facet normal 0.0 1.0 0.0
  outer loop
    vertex 15.0 31.599999999999998 6.3999999999999995
    vertex 8.000000000000002 31.599999999999998 7.499999999999999
    vertex 15.0 31.599999999999998 7.499999999999999
  endloop
endfacet
facet normal 0.0 1.0 0.0
  outer loop
    vertex 8.000000000000002 37.6 7.499999999999999
    vertex 15.0 37.6 6.3999999999999995
    vertex 8.000000000000002 37.6 6.3999999999999995
  endloop
endfacet
facet normal 0.0 1.0 0.0
  outer loop
    vertex 15.0 37.6 6.3999999999999995
    vertex 8.000000000000002 37.6 7.499999999999999
    vertex 15.0 37.6 7.499999999999999
  endloop
endfacet
facet normal 0.0 0.0 1.0
  outer loop
    vertex 15.0 31.599999999999998 6.3999999999999995
    vertex 8.000000000000002 36.6 6.3999999999999995
    vertex 8.000000000000002 31.599999999999998 6.3999999999999995
  endloop
endfacet
facet normal 0.0 0.0 1.0
  outer loop
    vertex 8.000000000000002 36.6 6.3999999999999995
    vertex 15.0 31.599999999999998 6.3999999999999995
    vertex 15.0 36.6 6.3999999999999995
  endloop
endfacet
facet normal 0.0 0.0 1.0
  outer loop
    vertex 15.0 43.6 6.3999999999999995
    vertex 8.000000000000002 48.6 6.3999999999999995
    vertex 8.000000000000002 43.6 6.3999999999999995
  endloop
endfacet
facet normal 0.0 0.0 1.0
  outer loop
    vertex 8.000000000000002 48.6 6.3999999999999995
    vertex 15.0 43.6 6.3999999999999995
    vertex 15.0 48.6 6.3999999999999995
  endloop
endfacet
facet normal 0.0 0.0 1.0
  outer loop
    vertex 15.0 37.6 6.3999999999999995
    vertex 8.000000000000002 42.6 6.3999999999999995
    vertex 8.000000000000002 37.6 6.3999999999999995
  endloop
endfacet
facet normal 0.0 0.0 1.0
  outer loop
    vertex 8.000000000000002 42.6 6.3999999999999995
    vertex 15.0 37.6 6.3999999999999995
    vertex 15.0 42.6 6.3999999999999995
  endloop
endfacet
facet normal 0.0 0.0 1.0
  outer loop
    vertex 15.0 42.6 7.499999999999999
    vertex 8.000000000000002 43.6 7.499999999999999
    vertex 8.000000000000002 42.6 7.499999999999999
  endloop
endfacet
facet normal 0.0 0.0 1.0
  outer loop
    vertex 8.000000000000002 43.6 7.499999999999999
    vertex 15.0 42.6 7.499999999999999
    vertex 15.0 43.6 7.499999999999999
  endloop
endfacet
facet normal 4.0285235464969966e-16 -1.0 0.0
  outer loop
    vertex 15.0 17.000000000000004 7.999999999999999
    vertex 8.0 17.0 0.0
    vertex 15.0 17.000000000000004 0.0
  endloop
endfacet
facet normal 4.0285235464969966e-16 -1.0 0.0
  outer loop
    vertex 8.0 17.0 0.0
    vertex 15.0 17.000000000000004 7.999999999999999
    vertex 8.0 17.0 7.999999999999999
  endloop
endfacet
facet normal -0.0 -1.0 -0.0
  outer loop
    vertex 20.0 0.0 7.999999999999999
    vertex 0.0 0.0 0.0
    vertex 20.0 0.0 0.0
  endloop
endfacet
facet normal -0.0 -1.0 -0.0
  outer loop
    vertex 0.0 0.0 0.0
    vertex 20.0 0.0 7.999999999999999
    vertex 0.0 0.0 7.999999999999999
  endloop
endfacet
facet normal -4.8721210132458674e-17 3.5851002907967593e-17 1.0
  outer loop
    vertex 1.4999999999999987 35.0 7.999999999999999
    vertex 1.5224093497742646 42.65366864730179 7.999999999999998
    vertex 0.6814834742186351 40.17638090205041 7.999999999999998
  endloop
endfacet
facet normal -4.8721210132458674e-17 3.5851002907967593e-17 1.0
  outer loop
    vertex 1.5224093497742646 42.65366864730179 7.999999999999998
    vertex 1.4999999999999987 35.0 7.999999999999999
    vertex 1.585185434277328 35.647047612756296 7.999999999999999
  endloop
endfacet
facet normal -4.8721210132458674e-17 3.5851002907967593e-17 1.0
  outer loop
    vertex 1.5224093497742646 42.65366864730179 7.999999999999998
    vertex 1.585185434277328 35.647047612756296 7.999999999999999
    vertex 2.679491924311228 45.0 7.9999999999999964
  endloop
endfacet
facet normal -4.8721210132458674e-17 3.5851002907967593e-17 1.0
  outer loop
    vertex 2.679491924311228 45.0 7.9999999999999964
    vertex 1.585185434277328 35.647047612756296 7.999999999999999
    vertex 1.834936490538902 36.24999999999999 7.999999999999999
  endloop
endfacet
facet normal -4.8721210132458674e-17 3.5851002907967593e-17 1.0
  outer loop
    vertex 2.679491924311228 45.0 7.9999999999999964
    vertex 1.834936490538902 36.24999999999999 7.999999999999999
    vertex 2.2322330470336302 36.76776695296637 7.999999999999999
  endloop
endfacet
facet normal -4.8721210132458674e-17 3.5851002907967593e-17 1.0
  outer loop
    vertex 2.679491924311228 45.0 7.9999999999999964
    vertex 2.2322330470336302 36.76776695296637 7.999999999999999
    vertex 2.7499999999999987 37.16506350946109 7.999999999999999
  endloop
endfacet
facet normal -4.8721210132458674e-17 3.5851002907967593e-17 1.0
  outer loop
    vertex 2.679491924311228 45.0 7.9999999999999964
    vertex 2.7499999999999987 37.16506350946109 7.999999999999999
    vertex 4.1329331941752985 47.17522858017441 7.9999999999999964
  endloop
endfacet
facet normal -4.8721210132458674e-17 3.5851002907967593e-17 1.0
  outer loop
    vertex 4.1329331941752985 47.17522858017441 7.9999999999999964
    vertex 2.7499999999999987 37.16506350946109 7.999999999999999
    vertex 3.352952387243697 37.414814565722665 7.999999999999999
  endloop
endfacet
facet normal -4.8721210132458674e-17 3.5851002907967593e-17 1.0
  outer loop
    vertex 4.1329331941752985 47.17522858017441 7.9999999999999964
    vertex 3.352952387243697 37.414814565722665 7.999999999999999
    vertex 3.9999999999999996 37.5 7.999999999999999
  endloop
endfacet
facet normal -4.8721210132458674e-17 3.5851002907967593e-17 1.0
  outer loop
    vertex 4.1329331941752985 47.17522858017441 7.9999999999999964
    vertex 3.9999999999999996 37.5 7.999999999999999
    vertex 4.647047612756301 37.41481456572267 7.999999999999999
  endloop
endfacet
facet normal -4.8721210132458674e-17 3.5851002907967593e-17 1.0
  outer loop
    vertex 4.1329331941752985 47.17522858017441 7.9999999999999964
    vertex 4.647047612756301 37.41481456572267 7.999999999999999
    vertex 5.857864376269051 49.14213562373096 7.9999999999999964
  endloop
endfacet
facet normal -4.8721210132458674e-17 3.5851002907967593e-17 1.0
  outer loop
    vertex 5.857864376269051 49.14213562373096 7.9999999999999964
    vertex 4.647047612756301 37.41481456572267 7.999999999999999
    vertex 5.249999999999999 37.1650635094611 7.999999999999999
  endloop
endfacet
facet normal -4.8721210132458674e-17 3.5851002907967593e-17 1.0
  outer loop
    vertex 5.857864376269051 49.14213562373096 7.9999999999999964
    vertex 5.249999999999999 37.1650635094611 7.999999999999999
    vertex 5.767766952966369 36.76776695296637 7.999999999999999
  endloop
endfacet
facet normal -4.8721210132458674e-17 3.5851002907967593e-17 1.0
  outer loop
    vertex 5.857864376269051 49.14213562373096 7.9999999999999964
    vertex 5.767766952966369 36.76776695296637 7.999999999999999
    vertex 6.165063509461096 36.25 7.999999999999999
  endloop
endfacet
facet normal -4.8721210132458674e-17 3.5851002907967593e-17 1.0
  outer loop
    vertex 5.857864376269051 49.14213562373096 7.9999999999999964
    vertex 6.165063509461096 36.25 7.999999999999999
    vertex 7.824771419825589 50.8670668058247 7.9999999999999964
  endloop
endfacet
facet normal -4.8721210132458674e-17 3.5851002907967593e-17 1.0
  outer loop
    vertex 7.824771419825589 50.8670668058247 7.9999999999999964
    vertex 6.165063509461096 36.25 7.999999999999999
    vertex 6.414814565722671 35.6470476127563 7.999999999999999
  endloop
endfacet
facet normal -4.8721210132458674e-17 3.5851002907967593e-17 1.0
  outer loop
    vertex 7.824771419825589 50.8670668058247 7.9999999999999964
    vertex 6.414814565722671 35.6470476127563 7.999999999999999
    vertex 6.500000000000001 35.0 7.999999999999999
  endloop
endfacet
facet normal -4.8721210132458674e-17 3.5851002907967593e-17 1.0
  outer loop
    vertex 0.0 0.0 7.999999999999999
    vertex 9.58518543427733 7.352952387243699 7.999999999999999
    vertex 0.0 34.99999999999999 7.999999999999999
  endloop
endfacet
facet normal -4.8721210132458674e-17 3.5851002907967593e-17 1.0
  outer loop
    vertex 9.58518543427733 7.352952387243699 7.999999999999999
    vertex 0.0 0.0 7.999999999999999
    vertex 9.834936490538903 6.749999999999999 7.999999999999999
  endloop
endfacet
facet normal -4.8721210132458674e-17 3.5851002907967593e-17 1.0
  outer loop
    vertex 9.834936490538903 6.749999999999999 7.999999999999999
    vertex 0.0 0.0 7.999999999999999
    vertex 10.23223304703363 6.23223304703363 7.999999999999999
  endloop
endfacet
facet normal -4.8721210132458674e-17 3.5851002907967593e-17 1.0
  outer loop
    vertex 10.23223304703363 6.23223304703363 7.999999999999999
    vertex 0.0 0.0 7.999999999999999
    vertex 10.749999999999998 5.834936490538903 7.999999999999999
  endloop
endfacet
facet normal -4.8721210132458674e-17 3.5851002907967593e-17 1.0
  outer loop
    vertex 10.749999999999998 5.834936490538903 7.999999999999999
    vertex 0.0 0.0 7.999999999999999
    vertex 20.0 0.0 7.999999999999999
  endloop
endfacet
facet normal -4.8721210132458674e-17 3.5851002907967593e-17 1.0
  outer loop
    vertex 0.0 34.99999999999999 7.999999999999999
    vertex 9.58518543427733 7.352952387243699 7.999999999999999
    vertex 0.171102772523792 37.61052384440103 7.999999999999999
  endloop
endfacet
facet normal -4.8721210132458674e-17 3.5851002907967593e-17 1.0
  outer loop
    vertex 0.171102772523792 37.61052384440103 7.999999999999999
    vertex 9.58518543427733 7.352952387243699 7.999999999999999
    vertex 1.585185434277328 34.3529523872437 7.999999999999999
  endloop
endfacet
facet normal -4.8721210132458674e-17 3.5851002907967593e-17 1.0
  outer loop
    vertex 0.171102772523792 37.61052384440103 7.999999999999999
    vertex 1.585185434277328 34.3529523872437 7.999999999999999
    vertex 0.6814834742186351 40.17638090205041 7.999999999999998
  endloop
endfacet
facet normal -4.8721210132458674e-17 3.5851002907967593e-17 1.0
  outer loop
    vertex 0.6814834742186351 40.17638090205041 7.999999999999998
    vertex 1.585185434277328 34.3529523872437 7.999999999999999
    vertex 1.4999999999999987 35.0 7.999999999999999
  endloop
endfacet
facet normal -4.8721210132458674e-17 3.5851002907967593e-17 1.0
  outer loop
    vertex 1.585185434277328 34.3529523872437 7.999999999999999
    vertex 9.58518543427733 7.352952387243699 7.999999999999999
    vertex 1.834936490538902 33.74999999999999 7.999999999999999
  endloop
endfacet
facet normal -4.8721210132458674e-17 3.5851002907967593e-17 1.0
  outer loop
    vertex 1.834936490538902 33.74999999999999 7.999999999999999
    vertex 9.58518543427733 7.352952387243699 7.999999999999999
    vertex 2.2322330470336302 33.23223304703363 7.999999999999999
  endloop
endfacet
facet normal -4.8721210132458674e-17 3.5851002907967593e-17 1.0
  outer loop
    vertex 2.2322330470336302 33.23223304703363 7.999999999999999
    vertex 9.58518543427733 7.352952387243699 7.999999999999999
    vertex 2.749999999999999 32.8349364905389 7.999999999999999
  endloop
endfacet
facet normal -4.8721210132458674e-17 3.5851002907967593e-17 1.0
  outer loop
    vertex 2.749999999999999 32.8349364905389 7.999999999999999
    vertex 9.58518543427733 7.352952387243699 7.999999999999999
    vertex 3.3529523872436977 32.58518543427733 7.999999999999999
  endloop
endfacet
facet normal -4.8721210132458674e-17 3.5851002907967593e-17 1.0
  outer loop
    vertex 3.3529523872436977 32.58518543427733 7.999999999999999
    vertex 9.58518543427733 7.352952387243699 7.999999999999999
    vertex 3.9999999999999996 32.5 7.999999999999999
  endloop
endfacet
facet normal -4.8721210132458674e-17 3.5851002907967593e-17 1.0
  outer loop
    vertex 3.9999999999999996 32.5 7.999999999999999
    vertex 9.58518543427733 7.352952387243699 7.999999999999999
    vertex 4.647047612756304 32.58518543427733 7.999999999999999
  endloop
endfacet
facet normal -4.8721210132458674e-17 3.5851002907967593e-17 1.0
  outer loop
    vertex 4.647047612756304 32.58518543427733 7.999999999999999
    vertex 9.58518543427733 7.352952387243699 7.999999999999999
    vertex 5.250000000000002 32.8349364905389 7.999999999999999
  endloop
endfacet
facet normal -4.8721210132458674e-17 3.5851002907967593e-17 1.0
  outer loop
    vertex 5.250000000000002 32.8349364905389 7.999999999999999
    vertex 9.58518543427733 7.352952387243699 7.999999999999999
    vertex 8.0 17.0 7.999999999999999
  endloop
endfacet
facet normal -4.8721210132458674e-17 3.5851002907967593e-17 1.0
  outer loop
    vertex 5.250000000000002 32.8349364905389 7.999999999999999
    vertex 8.0 17.0 7.999999999999999
    vertex 5.76776695296637 33.23223304703363 7.999999999999999
  endloop
endfacet
facet normal -4.8721210132458674e-17 3.5851002907967593e-17 1.0
  outer loop
    vertex 5.76776695296637 33.23223304703363 7.999999999999999
    vertex 8.0 17.0 7.999999999999999
    vertex 6.165063509461098 33.75 7.999999999999999
  endloop
endfacet
facet normal -4.8721210132458674e-17 3.5851002907967593e-17 1.0
  outer loop
    vertex 6.165063509461098 33.75 7.999999999999999
    vertex 8.0 17.0 7.999999999999999
    vertex 6.414814565722671 34.3529523872437 7.999999999999999
  endloop
endfacet
facet normal -4.8721210132458674e-17 3.5851002907967593e-17 1.0
  outer loop
    vertex 6.414814565722671 34.3529523872437 7.999999999999999
    vertex 8.0 17.0 7.999999999999999
    vertex 6.500000000000001 35.0 7.999999999999999
  endloop
endfacet
facet normal -4.8721210132458674e-17 3.5851002907967593e-17 1.0
  outer loop
    vertex 6.500000000000001 35.0 7.999999999999999
    vertex 8.0 17.0 7.999999999999999
    vertex 7.824771419825589 50.8670668058247 7.9999999999999964
  endloop
endfacet
facet normal -4.8721210132458674e-17 3.5851002907967593e-17 1.0
  outer loop
    vertex 8.0 17.0 7.999999999999999
    vertex 9.58518543427733 7.352952387243699 7.999999999999999
    vertex 9.5 7.999999999999999 7.999999999999999
  endloop
endfacet
facet normal -4.8721210132458674e-17 3.5851002907967593e-17 1.0
  outer loop
    vertex 10.749999999999998 5.834936490538903 7.999999999999999
    vertex 20.0 0.0 7.999999999999999
    vertex 11.352952387243697 5.585185434277328 7.999999999999999
  endloop
endfacet
facet normal -4.8721210132458674e-17 3.5851002907967593e-17 1.0
  outer loop
    vertex 11.352952387243697 5.585185434277328 7.999999999999999
    vertex 20.0 0.0 7.999999999999999
    vertex 12.0 5.499999999999998 7.999999999999999
  endloop
endfacet
facet normal -4.8721210132458674e-17 3.5851002907967593e-17 1.0
  outer loop
    vertex 12.0 5.499999999999998 7.999999999999999
    vertex 20.0 0.0 7.999999999999999
    vertex 12.647047612756301 5.585185434277328 7.999999999999999
  endloop
endfacet
facet normal -4.8721210132458674e-17 3.5851002907967593e-17 1.0
  outer loop
    vertex 12.647047612756301 5.585185434277328 7.999999999999999
    vertex 20.0 0.0 7.999999999999999
    vertex 13.249999999999998 5.834936490538901 7.999999999999999
  endloop
endfacet
facet normal -4.8721210132458674e-17 3.5851002907967593e-17 1.0
  outer loop
    vertex 13.249999999999998 5.834936490538901 7.999999999999999
    vertex 20.0 0.0 7.999999999999999
    vertex 13.767766952966369 6.232233047033629 7.999999999999999
  endloop
endfacet
facet normal -4.8721210132458674e-17 3.5851002907967593e-17 1.0
  outer loop
    vertex 13.767766952966369 6.232233047033629 7.999999999999999
    vertex 20.0 0.0 7.999999999999999
    vertex 14.165063509461099 6.749999999999997 7.999999999999999
  endloop
endfacet
facet normal -4.8721210132458674e-17 3.5851002907967593e-17 1.0
  outer loop
    vertex 14.165063509461099 6.749999999999997 7.999999999999999
    vertex 20.0 0.0 7.999999999999999
    vertex 14.414814565722672 7.352952387243695 7.999999999999999
  endloop
endfacet
facet normal -4.8721210132458674e-17 3.5851002907967593e-17 1.0
  outer loop
    vertex 14.414814565722672 7.352952387243695 7.999999999999999
    vertex 20.0 0.0 7.999999999999999
    vertex 14.500000000000002 7.999999999999999 7.999999999999999
  endloop
endfacet
facet normal -4.8721210132458674e-17 3.5851002907967593e-17 1.0
  outer loop
    vertex 14.500000000000002 7.999999999999999 7.999999999999999
    vertex 20.0 0.0 7.999999999999999
    vertex 15.0 17.000000000000004 7.999999999999999
  endloop
endfacet
facet normal -4.8721210132458674e-17 3.5851002907967593e-17 1.0
  outer loop
    vertex 15.0 17.000000000000004 7.999999999999999
    vertex 20.0 0.0 7.999999999999999
    vertex 15.0 54.353600868568776 7.999999999999999
  endloop
endfacet
facet normal -4.8721210132458674e-17 3.5851002907967593e-17 1.0
  outer loop
    vertex 15.0 54.353600868568776 7.999999999999999
    vertex 20.0 0.0 7.999999999999999
    vertex 17.38947615559897 54.82889722747621 7.999999999999998
  endloop
endfacet
facet normal -4.8721210132458674e-17 3.5851002907967593e-17 1.0
  outer loop
    vertex 17.38947615559897 54.82889722747621 7.999999999999998
    vertex 20.0 0.0 7.999999999999999
    vertex 20.0 55.0 7.999999999999999
  endloop
endfacet
facet normal -4.8721210132458674e-17 3.5851002907967593e-17 1.0
  outer loop
    vertex 8.0 17.0 7.999999999999999
    vertex 9.834936490538903 9.250000000000002 7.999999999999999
    vertex 15.0 17.000000000000004 7.999999999999999
  endloop
endfacet
facet normal -4.8721210132458674e-17 3.5851002907967593e-17 1.0
  outer loop
    vertex 9.834936490538903 9.250000000000002 7.999999999999999
    vertex 8.0 17.0 7.999999999999999
    vertex 9.58518543427733 8.647047612756301 7.999999999999999
  endloop
endfacet
facet normal -4.8721210132458674e-17 3.5851002907967593e-17 1.0
  outer loop
    vertex 9.58518543427733 8.647047612756301 7.999999999999999
    vertex 8.0 17.0 7.999999999999999
    vertex 9.5 7.999999999999999 7.999999999999999
  endloop
endfacet
facet normal -4.8721210132458674e-17 3.5851002907967593e-17 1.0
  outer loop
    vertex 15.0 17.000000000000004 7.999999999999999
    vertex 9.834936490538903 9.250000000000002 7.999999999999999
    vertex 10.232233047033631 9.76776695296637 7.999999999999999
  endloop
endfacet
facet normal -4.8721210132458674e-17 3.5851002907967593e-17 1.0
  outer loop
    vertex 15.0 17.000000000000004 7.999999999999999
    vertex 10.232233047033631 9.76776695296637 7.999999999999999
    vertex 10.75 10.165063509461097 7.999999999999999
  endloop
endfacet
facet normal -4.8721210132458674e-17 3.5851002907967593e-17 1.0
  outer loop
    vertex 15.0 17.000000000000004 7.999999999999999
    vertex 10.75 10.165063509461097 7.999999999999999
    vertex 11.352952387243699 10.41481456572267 7.999999999999999
  endloop
endfacet
facet normal -4.8721210132458674e-17 3.5851002907967593e-17 1.0
  outer loop
    vertex 15.0 17.000000000000004 7.999999999999999
    vertex 11.352952387243699 10.41481456572267 7.999999999999999
    vertex 12.0 10.5 7.999999999999999
  endloop
endfacet
facet normal -4.8721210132458674e-17 3.5851002907967593e-17 1.0
  outer loop
    vertex 15.0 17.000000000000004 7.999999999999999
    vertex 12.0 10.5 7.999999999999999
    vertex 12.647047612756303 10.41481456572267 7.999999999999999
  endloop
endfacet
facet normal -4.8721210132458674e-17 3.5851002907967593e-17 1.0
  outer loop
    vertex 15.0 17.000000000000004 7.999999999999999
    vertex 12.647047612756303 10.41481456572267 7.999999999999999
    vertex 13.250000000000002 10.165063509461097 7.999999999999999
  endloop
endfacet
facet normal -4.8721210132458674e-17 3.5851002907967593e-17 1.0
  outer loop
    vertex 15.0 17.000000000000004 7.999999999999999
    vertex 13.250000000000002 10.165063509461097 7.999999999999999
    vertex 13.76776695296637 9.767766952966369 7.999999999999999
  endloop
endfacet
facet normal -4.8721210132458674e-17 3.5851002907967593e-17 1.0
  outer loop
    vertex 15.0 17.000000000000004 7.999999999999999
    vertex 13.76776695296637 9.767766952966369 7.999999999999999
    vertex 14.165063509461099 9.25 7.999999999999999
  endloop
endfacet
facet normal -4.8721210132458674e-17 3.5851002907967593e-17 1.0
  outer loop
    vertex 15.0 17.000000000000004 7.999999999999999
    vertex 14.165063509461099 9.25 7.999999999999999
    vertex 14.414814565722672 8.647047612756301 7.999999999999999
  endloop
endfacet
facet normal -4.8721210132458674e-17 3.5851002907967593e-17 1.0
  outer loop
    vertex 15.0 17.000000000000004 7.999999999999999
    vertex 14.414814565722672 8.647047612756301 7.999999999999999
    vertex 14.500000000000002 7.999999999999999 7.999999999999999
  endloop
endfacet
facet normal -4.8721210132458674e-17 3.5851002907967593e-17 1.0
  outer loop
    vertex 8.000000000000002 50.98415079985017 7.999999999999998
    vertex 7.824771419825589 50.8670668058247 7.9999999999999964
    vertex 8.0 17.0 7.999999999999999
  endloop
endfacet
facet normal 1.0 0.0 0.0
  outer loop
    vertex 20.0 55.0 0.0
    vertex 20.0 0.0 7.999999999999999
    vertex 20.0 0.0 0.0
  endloop
endfacet
facet normal 1.0 0.0 0.0
  outer loop
    vertex 20.0 0.0 7.999999999999999
    vertex 20.0 55.0 0.0
    vertex 20.0 55.0 7.999999999999999
  endloop
endfacet
facet normal -1.0 7.123642005939977e-18 -3.1165933775987385e-17
  outer loop
    vertex 0.0 34.99999999999999 7.999999999999999
    vertex 0.0 0.0 0.0
    vertex 0.0 0.0 7.999999999999999
  endloop
endfacet
facet normal -1.0 7.123642005939977e-18 -3.1165933775987385e-17
  outer loop
    vertex 0.0 0.0 0.0
    vertex 0.0 34.99999999999999 7.999999999999999
    vertex 4.986549404157982e-16 34.99999999999999 2.8199664825478975e-15
  endloop
endfacet
facet normal -3.086863815077863e-17 1.4555590991300688e-17 -1.0
  outer loop
    vertex 1.522409349774265 42.65366864730179 1.4099832412739487e-15
    vertex 1.4999999999999987 35.0 0.0
    vertex 0.6814834742186355 40.17638090205041 1.4099832412739487e-15
  endloop
endfacet
facet normal -3.086863815077863e-17 1.4555590991300688e-17 -1.0
  outer loop
    vertex 1.4999999999999987 35.0 0.0
    vertex 1.522409349774265 42.65366864730179 1.4099832412739487e-15
    vertex 1.585185434277328 35.647047612756296 0.0
  endloop
endfacet
facet normal -3.086863815077863e-17 1.4555590991300688e-17 -1.0
  outer loop
    vertex 1.585185434277328 35.647047612756296 0.0
    vertex 1.522409349774265 42.65366864730179 1.4099832412739487e-15
    vertex 2.679491924311228 45.0 0.0
  endloop
endfacet
facet normal -3.086863815077863e-17 1.4555590991300688e-17 -1.0
  outer loop
    vertex 1.585185434277328 35.647047612756296 0.0
    vertex 2.679491924311228 45.0 0.0
    vertex 1.834936490538902 36.24999999999999 0.0
  endloop
endfacet
facet normal -3.086863815077863e-17 1.4555590991300688e-17 -1.0
  outer loop
    vertex 1.834936490538902 36.24999999999999 0.0
    vertex 2.679491924311228 45.0 0.0
    vertex 2.2322330470336302 36.76776695296637 0.0
  endloop
endfacet
facet normal -3.086863815077863e-17 1.4555590991300688e-17 -1.0
  outer loop
    vertex 2.2322330470336302 36.76776695296637 0.0
    vertex 2.679491924311228 45.0 0.0
    vertex 2.7499999999999987 37.16506350946109 0.0
  endloop
endfacet
facet normal -3.086863815077863e-17 1.4555590991300688e-17 -1.0
  outer loop
    vertex 2.7499999999999987 37.16506350946109 0.0
    vertex 2.679491924311228 45.0 0.0
    vertex 4.132933194175299 47.17522858017441 0.0
  endloop
endfacet
facet normal -3.086863815077863e-17 1.4555590991300688e-17 -1.0
  outer loop
    vertex 2.7499999999999987 37.16506350946109 0.0
    vertex 4.132933194175299 47.17522858017441 0.0
    vertex 3.352952387243697 37.414814565722665 0.0
  endloop
endfacet
facet normal -3.086863815077863e-17 1.4555590991300688e-17 -1.0
  outer loop
    vertex 3.352952387243697 37.414814565722665 0.0
    vertex 4.132933194175299 47.17522858017441 0.0
    vertex 3.9999999999999996 37.5 0.0
  endloop
endfacet
facet normal -3.086863815077863e-17 1.4555590991300688e-17 -1.0
  outer loop
    vertex 3.9999999999999996 37.5 0.0
    vertex 4.132933194175299 47.17522858017441 0.0
    vertex 4.647047612756301 37.41481456572267 0.0
  endloop
endfacet
facet normal -3.086863815077863e-17 1.4555590991300688e-17 -1.0
  outer loop
    vertex 4.647047612756301 37.41481456572267 0.0
    vertex 4.132933194175299 47.17522858017441 0.0
    vertex 5.857864376269052 49.14213562373096 0.0
  endloop
endfacet
facet normal -3.086863815077863e-17 1.4555590991300688e-17 -1.0
  outer loop
    vertex 4.647047612756301 37.41481456572267 0.0
    vertex 5.857864376269052 49.14213562373096 0.0
    vertex 5.249999999999999 37.1650635094611 0.0
  endloop
endfacet
facet normal -3.086863815077863e-17 1.4555590991300688e-17 -1.0
  outer loop
    vertex 5.249999999999999 37.1650635094611 0.0
    vertex 5.857864376269052 49.14213562373096 0.0
    vertex 5.767766952966369 36.76776695296637 0.0
  endloop
endfacet
facet normal -3.086863815077863e-17 1.4555590991300688e-17 -1.0
  outer loop
    vertex 5.767766952966369 36.76776695296637 0.0
    vertex 5.857864376269052 49.14213562373096 0.0
    vertex 6.165063509461096 36.25 0.0
  endloop
endfacet
facet normal -3.086863815077863e-17 1.4555590991300688e-17 -1.0
  outer loop
    vertex 6.165063509461096 36.25 0.0
    vertex 5.857864376269052 49.14213562373096 0.0
    vertex 7.824771419825589 50.8670668058247 0.0
  endloop
endfacet
facet normal -3.086863815077863e-17 1.4555590991300688e-17 -1.0
  outer loop
    vertex 6.165063509461096 36.25 0.0
    vertex 7.824771419825589 50.8670668058247 0.0
    vertex 6.414814565722671 35.6470476127563 0.0
  endloop
endfacet
facet normal -3.086863815077863e-17 1.4555590991300688e-17 -1.0
  outer loop
    vertex 6.414814565722671 35.6470476127563 0.0
    vertex 7.824771419825589 50.8670668058247 0.0
    vertex 6.500000000000001 35.0 0.0
  endloop
endfacet
facet normal -3.086863815077863e-17 1.4555590991300688e-17 -1.0
  outer loop
    vertex 8.0 17.0 0.0
    vertex 9.58518543427733 8.647047612756301 0.0
    vertex 9.5 7.999999999999999 0.0
  endloop
endfacet
facet normal -3.086863815077863e-17 1.4555590991300688e-17 -1.0
  outer loop
    vertex 9.58518543427733 8.647047612756301 0.0
    vertex 8.0 17.0 0.0
    vertex 9.834936490538903 9.250000000000002 0.0
  endloop
endfacet
facet normal -3.086863815077863e-17 1.4555590991300688e-17 -1.0
  outer loop
    vertex 9.834936490538903 9.250000000000002 0.0
    vertex 8.0 17.0 0.0
    vertex 15.0 17.000000000000004 0.0
  endloop
endfacet
facet normal -3.086863815077863e-17 1.4555590991300688e-17 -1.0
  outer loop
    vertex 9.834936490538903 9.250000000000002 0.0
    vertex 15.0 17.000000000000004 0.0
    vertex 10.232233047033631 9.76776695296637 0.0
  endloop
endfacet
facet normal -3.086863815077863e-17 1.4555590991300688e-17 -1.0
  outer loop
    vertex 10.232233047033631 9.76776695296637 0.0
    vertex 15.0 17.000000000000004 0.0
    vertex 10.75 10.165063509461097 0.0
  endloop
endfacet
facet normal -3.086863815077863e-17 1.4555590991300688e-17 -1.0
  outer loop
    vertex 10.75 10.165063509461097 0.0
    vertex 15.0 17.000000000000004 0.0
    vertex 11.352952387243699 10.41481456572267 0.0
  endloop
endfacet
facet normal -3.086863815077863e-17 1.4555590991300688e-17 -1.0
  outer loop
    vertex 11.352952387243699 10.41481456572267 0.0
    vertex 15.0 17.000000000000004 0.0
    vertex 12.0 10.5 0.0
  endloop
endfacet
facet normal -3.086863815077863e-17 1.4555590991300688e-17 -1.0
  outer loop
    vertex 12.0 10.5 0.0
    vertex 15.0 17.000000000000004 0.0
    vertex 12.647047612756303 10.41481456572267 0.0
  endloop
endfacet
facet normal -3.086863815077863e-17 1.4555590991300688e-17 -1.0
  outer loop
    vertex 12.647047612756303 10.41481456572267 0.0
    vertex 15.0 17.000000000000004 0.0
    vertex 13.250000000000002 10.165063509461097 0.0
  endloop
endfacet
facet normal -3.086863815077863e-17 1.4555590991300688e-17 -1.0
  outer loop
    vertex 13.250000000000002 10.165063509461097 0.0
    vertex 15.0 17.000000000000004 0.0
    vertex 13.76776695296637 9.767766952966369 0.0
  endloop
endfacet
facet normal -3.086863815077863e-17 1.4555590991300688e-17 -1.0
  outer loop
    vertex 13.76776695296637 9.767766952966369 0.0
    vertex 15.0 17.000000000000004 0.0
    vertex 14.165063509461099 9.25 0.0
  endloop
endfacet
facet normal -3.086863815077863e-17 1.4555590991300688e-17 -1.0
  outer loop
    vertex 14.165063509461099 9.25 0.0
    vertex 15.0 17.000000000000004 0.0
    vertex 14.414814565722672 8.647047612756301 0.0
  endloop
endfacet
facet normal -3.086863815077863e-17 1.4555590991300688e-17 -1.0
  outer loop
    vertex 14.414814565722672 8.647047612756301 0.0
    vertex 15.0 17.000000000000004 0.0
    vertex 14.500000000000002 7.999999999999999 0.0
  endloop
endfacet
facet normal -3.086863815077863e-17 1.4555590991300688e-17 -1.0
  outer loop
    vertex 8.000000000000002 50.98415079985017 1.4099832412739487e-15
    vertex 8.0 19.599999999999998 0.0
    vertex 7.824771419825589 50.8670668058247 0.0
  endloop
endfacet
facet normal -3.086863815077863e-17 1.4555590991300688e-17 -1.0
  outer loop
    vertex 8.0 19.599999999999998 0.0
    vertex 8.000000000000002 50.98415079985017 1.4099832412739487e-15
    vertex 15.0 19.599999999999998 0.0
  endloop
endfacet
facet normal -3.086863815077863e-17 1.4555590991300688e-17 -1.0
  outer loop
    vertex 15.0 19.599999999999998 0.0
    vertex 8.000000000000002 50.98415079985017 1.4099832412739487e-15
    vertex 10.000000000000002 52.32050807568878 0.0
  endloop
endfacet
facet normal -3.086863815077863e-17 1.4555590991300688e-17 -1.0
  outer loop
    vertex 15.0 19.599999999999998 0.0
    vertex 10.000000000000002 52.32050807568878 0.0
    vertex 12.346331352698204 53.477590650225736 1.4099832412739487e-15
  endloop
endfacet
facet normal -3.086863815077863e-17 1.4555590991300688e-17 -1.0
  outer loop
    vertex 15.0 19.599999999999998 0.0
    vertex 12.346331352698204 53.477590650225736 1.4099832412739487e-15
    vertex 14.823619097949587 54.31851652578136 1.4099832412739487e-15
  endloop
endfacet
facet normal -3.086863815077863e-17 1.4555590991300688e-17 -1.0
  outer loop
    vertex 15.0 19.599999999999998 0.0
    vertex 14.823619097949587 54.31851652578136 1.4099832412739487e-15
    vertex 15.0 54.353600868568776 2.8199664825478975e-15
  endloop
endfacet
facet normal -3.086863815077863e-17 1.4555590991300688e-17 -1.0
  outer loop
    vertex 15.0 19.599999999999998 0.0
    vertex 15.0 54.353600868568776 2.8199664825478975e-15
    vertex 17.38947615559897 54.82889722747621 1.4099832412739487e-15
  endloop
endfacet
facet normal -3.086863815077863e-17 1.4555590991300688e-17 -1.0
  outer loop
    vertex 15.0 19.599999999999998 0.0
    vertex 17.38947615559897 54.82889722747621 1.4099832412739487e-15
    vertex 15.0 17.000000000000004 0.0
  endloop
endfacet
facet normal -3.086863815077863e-17 1.4555590991300688e-17 -1.0
  outer loop
    vertex 0.0 0.0 0.0
    vertex 10.749999999999998 5.834936490538903 0.0
    vertex 20.0 0.0 0.0
  endloop
endfacet
facet normal -3.086863815077863e-17 1.4555590991300688e-17 -1.0
  outer loop
    vertex 10.749999999999998 5.834936490538903 0.0
    vertex 0.0 0.0 0.0
    vertex 10.23223304703363 6.23223304703363 0.0
  endloop
endfacet
facet normal -3.086863815077863e-17 1.4555590991300688e-17 -1.0
  outer loop
    vertex 10.23223304703363 6.23223304703363 0.0
    vertex 0.0 0.0 0.0
    vertex 9.834936490538903 6.749999999999999 0.0
  endloop
endfacet
facet normal -3.086863815077863e-17 1.4555590991300688e-17 -1.0
  outer loop
    vertex 9.834936490538903 6.749999999999999 0.0
    vertex 0.0 0.0 0.0
    vertex 9.58518543427733 7.352952387243699 0.0
  endloop
endfacet
facet normal -3.086863815077863e-17 1.4555590991300688e-17 -1.0
  outer loop
    vertex 9.58518543427733 7.352952387243699 0.0
    vertex 0.0 0.0 0.0
    vertex 4.986549404157982e-16 34.99999999999999 2.8199664825478975e-15
  endloop
endfacet
facet normal -3.086863815077863e-17 1.4555590991300688e-17 -1.0
  outer loop
    vertex 9.58518543427733 7.352952387243699 0.0
    vertex 4.986549404157982e-16 34.99999999999999 2.8199664825478975e-15
    vertex 0.1711027725237925 37.61052384440103 2.8199664825478975e-15
  endloop
endfacet
facet normal -3.086863815077863e-17 1.4555590991300688e-17 -1.0
  outer loop
    vertex 9.58518543427733 7.352952387243699 0.0
    vertex 0.1711027725237925 37.61052384440103 2.8199664825478975e-15
    vertex 1.585185434277328 34.3529523872437 0.0
  endloop
endfacet
facet normal -3.086863815077863e-17 1.4555590991300688e-17 -1.0
  outer loop
    vertex 1.585185434277328 34.3529523872437 0.0
    vertex 0.1711027725237925 37.61052384440103 2.8199664825478975e-15
    vertex 0.6814834742186355 40.17638090205041 1.4099832412739487e-15
  endloop
endfacet
facet normal -3.086863815077863e-17 1.4555590991300688e-17 -1.0
  outer loop
    vertex 1.585185434277328 34.3529523872437 0.0
    vertex 0.6814834742186355 40.17638090205041 1.4099832412739487e-15
    vertex 1.4999999999999987 35.0 0.0
  endloop
endfacet
facet normal -3.086863815077863e-17 1.4555590991300688e-17 -1.0
  outer loop
    vertex 9.58518543427733 7.352952387243699 0.0
    vertex 1.585185434277328 34.3529523872437 0.0
    vertex 1.834936490538902 33.74999999999999 0.0
  endloop
endfacet
facet normal -3.086863815077863e-17 1.4555590991300688e-17 -1.0
  outer loop
    vertex 9.58518543427733 7.352952387243699 0.0
    vertex 1.834936490538902 33.74999999999999 0.0
    vertex 2.2322330470336302 33.23223304703363 0.0
  endloop
endfacet
facet normal -3.086863815077863e-17 1.4555590991300688e-17 -1.0
  outer loop
    vertex 9.58518543427733 7.352952387243699 0.0
    vertex 2.2322330470336302 33.23223304703363 0.0
    vertex 2.749999999999999 32.8349364905389 0.0
  endloop
endfacet
facet normal -3.086863815077863e-17 1.4555590991300688e-17 -1.0
  outer loop
    vertex 9.58518543427733 7.352952387243699 0.0
    vertex 2.749999999999999 32.8349364905389 0.0
    vertex 3.3529523872436977 32.58518543427733 0.0
  endloop
endfacet
facet normal -3.086863815077863e-17 1.4555590991300688e-17 -1.0
  outer loop
    vertex 9.58518543427733 7.352952387243699 0.0
    vertex 3.3529523872436977 32.58518543427733 0.0
    vertex 3.9999999999999996 32.5 0.0
  endloop
endfacet
facet normal -3.086863815077863e-17 1.4555590991300688e-17 -1.0
  outer loop
    vertex 9.58518543427733 7.352952387243699 0.0
    vertex 3.9999999999999996 32.5 0.0
    vertex 4.647047612756304 32.58518543427733 0.0
  endloop
endfacet
facet normal -3.086863815077863e-17 1.4555590991300688e-17 -1.0
  outer loop
    vertex 9.58518543427733 7.352952387243699 0.0
    vertex 4.647047612756304 32.58518543427733 0.0
    vertex 5.250000000000002 32.8349364905389 0.0
  endloop
endfacet
facet normal -3.086863815077863e-17 1.4555590991300688e-17 -1.0
  outer loop
    vertex 9.58518543427733 7.352952387243699 0.0
    vertex 5.250000000000002 32.8349364905389 0.0
    vertex 8.0 17.0 0.0
  endloop
endfacet
facet normal -3.086863815077863e-17 1.4555590991300688e-17 -1.0
  outer loop
    vertex 8.0 17.0 0.0
    vertex 5.250000000000002 32.8349364905389 0.0
    vertex 5.76776695296637 33.23223304703363 0.0
  endloop
endfacet
facet normal -3.086863815077863e-17 1.4555590991300688e-17 -1.0
  outer loop
    vertex 8.0 17.0 0.0
    vertex 5.76776695296637 33.23223304703363 0.0
    vertex 6.165063509461098 33.75 0.0
  endloop
endfacet
facet normal -3.086863815077863e-17 1.4555590991300688e-17 -1.0
  outer loop
    vertex 8.0 17.0 0.0
    vertex 6.165063509461098 33.75 0.0
    vertex 6.414814565722671 34.3529523872437 0.0
  endloop
endfacet
facet normal -3.086863815077863e-17 1.4555590991300688e-17 -1.0
  outer loop
    vertex 8.0 17.0 0.0
    vertex 6.414814565722671 34.3529523872437 0.0
    vertex 6.500000000000001 35.0 0.0
  endloop
endfacet
facet normal -3.086863815077863e-17 1.4555590991300688e-17 -1.0
  outer loop
    vertex 8.0 17.0 0.0
    vertex 6.500000000000001 35.0 0.0
    vertex 7.824771419825589 50.8670668058247 0.0
  endloop
endfacet
facet normal -3.086863815077863e-17 1.4555590991300688e-17 -1.0
  outer loop
    vertex 8.0 17.0 0.0
    vertex 7.824771419825589 50.8670668058247 0.0
    vertex 8.0 19.599999999999998 0.0
  endloop
endfacet
facet normal -3.086863815077863e-17 1.4555590991300688e-17 -1.0
  outer loop
    vertex 9.58518543427733 7.352952387243699 0.0
    vertex 8.0 17.0 0.0
    vertex 9.5 7.999999999999999 0.0
  endloop
endfacet
facet normal -3.086863815077863e-17 1.4555590991300688e-17 -1.0
  outer loop
    vertex 20.0 0.0 0.0
    vertex 10.749999999999998 5.834936490538903 0.0
    vertex 11.352952387243697 5.585185434277328 0.0
  endloop
endfacet
facet normal -3.086863815077863e-17 1.4555590991300688e-17 -1.0
  outer loop
    vertex 20.0 0.0 0.0
    vertex 11.352952387243697 5.585185434277328 0.0
    vertex 12.0 5.499999999999998 0.0
  endloop
endfacet
facet normal -3.086863815077863e-17 1.4555590991300688e-17 -1.0
  outer loop
    vertex 20.0 0.0 0.0
    vertex 12.0 5.499999999999998 0.0
    vertex 12.647047612756301 5.585185434277328 0.0
  endloop
endfacet
facet normal -3.086863815077863e-17 1.4555590991300688e-17 -1.0
  outer loop
    vertex 20.0 0.0 0.0
    vertex 12.647047612756301 5.585185434277328 0.0
    vertex 13.249999999999998 5.834936490538901 0.0
  endloop
endfacet
facet normal -3.086863815077863e-17 1.4555590991300688e-17 -1.0
  outer loop
    vertex 20.0 0.0 0.0
    vertex 13.249999999999998 5.834936490538901 0.0
    vertex 13.767766952966369 6.232233047033629 0.0
  endloop
endfacet
facet normal -3.086863815077863e-17 1.4555590991300688e-17 -1.0
  outer loop
    vertex 20.0 0.0 0.0
    vertex 13.767766952966369 6.232233047033629 0.0
    vertex 14.165063509461099 6.749999999999997 0.0
  endloop
endfacet
facet normal -3.086863815077863e-17 1.4555590991300688e-17 -1.0
  outer loop
    vertex 20.0 0.0 0.0
    vertex 14.165063509461099 6.749999999999997 0.0
    vertex 14.414814565722672 7.352952387243695 0.0
  endloop
endfacet
facet normal -3.086863815077863e-17 1.4555590991300688e-17 -1.0
  outer loop
    vertex 20.0 0.0 0.0
    vertex 14.414814565722672 7.352952387243695 0.0
    vertex 14.500000000000002 7.999999999999999 0.0
  endloop
endfacet
facet normal -3.086863815077863e-17 1.4555590991300688e-17 -1.0
  outer loop
    vertex 20.0 0.0 0.0
    vertex 14.500000000000002 7.999999999999999 0.0
    vertex 15.0 17.000000000000004 0.0
  endloop
endfacet
facet normal -3.086863815077863e-17 1.4555590991300688e-17 -1.0
  outer loop
    vertex 20.0 0.0 0.0
    vertex 15.0 17.000000000000004 0.0
    vertex 17.38947615559897 54.82889722747621 1.4099832412739487e-15
  endloop
endfacet
facet normal -3.086863815077863e-17 1.4555590991300688e-17 -1.0
  outer loop
    vertex 20.0 0.0 0.0
    vertex 17.38947615559897 54.82889722747621 1.4099832412739487e-15
    vertex 20.0 55.0 0.0
  endloop
endfacet
facet normal -0.7071067811865485 -0.7071067811865467 0.0
  outer loop
    vertex 5.767766952966369 36.76776695296637 7.999999999999999
    vertex 5.249999999999999 37.1650635094611 0.0
    vertex 5.767766952966369 36.76776695296637 0.0
  endloop
endfacet
facet normal -0.5000000000000024 -0.8660254037844372 0.0
  outer loop
    vertex 5.249999999999999 37.1650635094611 0.0
    vertex 5.767766952966369 36.76776695296637 7.999999999999999
    vertex 5.249999999999999 37.1650635094611 7.999999999999999
  endloop
endfacet
facet normal -0.7071067811865485 -0.7071067811865467 0.0
  outer loop
    vertex 5.767766952966369 36.76776695296637 7.999999999999999
    vertex 6.165063509461096 36.25 0.0
    vertex 6.165063509461096 36.25 7.999999999999999
  endloop
endfacet
facet normal -0.866025403784437 -0.5000000000000028 0.0
  outer loop
    vertex 6.165063509461096 36.25 0.0
    vertex 5.767766952966369 36.76776695296637 7.999999999999999
    vertex 5.767766952966369 36.76776695296637 0.0
  endloop
endfacet
facet normal 4.1347549915801644e-15 -1.0 0.0
  outer loop
    vertex 3.9999999999999996 37.5 7.999999999999999
    vertex 3.352952387243697 37.414814565722665 0.0
    vertex 3.9999999999999996 37.5 0.0
  endloop
endfacet
facet normal 0.25881904510252257 -0.965925826289068 0.0
  outer loop
    vertex 3.352952387243697 37.414814565722665 0.0
    vertex 3.9999999999999996 37.5 7.999999999999999
    vertex 3.352952387243697 37.414814565722665 7.999999999999999
  endloop
endfacet
facet normal -0.2588190451025185 -0.965925826289069 0.0
  outer loop
    vertex 4.647047612756301 37.41481456572267 7.999999999999999
    vertex 3.9999999999999996 37.5 0.0
    vertex 4.647047612756301 37.41481456572267 0.0
  endloop
endfacet
facet normal 4.1347549915801644e-15 -1.0 0.0
  outer loop
    vertex 3.9999999999999996 37.5 0.0
    vertex 4.647047612756301 37.41481456572267 7.999999999999999
    vertex 3.9999999999999996 37.5 7.999999999999999
  endloop
endfacet
facet normal -0.5000000000000024 -0.8660254037844372 0.0
  outer loop
    vertex 5.249999999999999 37.1650635094611 7.999999999999999
    vertex 4.647047612756301 37.41481456572267 0.0
    vertex 5.249999999999999 37.1650635094611 0.0
  endloop
endfacet
facet normal -0.2588190451025185 -0.965925826289069 0.0
  outer loop
    vertex 4.647047612756301 37.41481456572267 0.0
    vertex 5.249999999999999 37.1650635094611 7.999999999999999
    vertex 4.647047612756301 37.41481456572267 7.999999999999999
  endloop
endfacet
facet normal 0.0 0.0 1.0
  outer loop
    vertex 15.0 24.599999999999994 7.499999999999999
    vertex 8.000000000000002 25.599999999999998 7.499999999999999
    vertex 8.000000000000002 24.599999999999998 7.499999999999999
  endloop
endfacet
facet normal 0.0 0.0 1.0
  outer loop
    vertex 8.000000000000002 25.599999999999998 7.499999999999999
    vertex 15.0 24.599999999999994 7.499999999999999
    vertex 15.0 25.599999999999998 7.499999999999999
  endloop
endfacet
facet normal 0.0 0.0 1.0
  outer loop
    vertex 15.0 30.6 7.499999999999999
    vertex 8.000000000000002 31.599999999999998 7.499999999999999
    vertex 8.000000000000002 30.6 7.499999999999999
  endloop
endfacet
facet normal 0.0 0.0 1.0
  outer loop
    vertex 8.000000000000002 31.599999999999998 7.499999999999999
    vertex 15.0 30.6 7.499999999999999
    vertex 15.0 31.599999999999998 7.499999999999999
  endloop
endfacet
facet normal 0.0 0.0 1.0
  outer loop
    vertex 15.0 36.6 7.499999999999999
    vertex 8.000000000000002 37.6 7.499999999999999
    vertex 8.000000000000002 36.6 7.499999999999999
  endloop
endfacet
facet normal 0.0 0.0 1.0
  outer loop
    vertex 8.000000000000002 37.6 7.499999999999999
    vertex 15.0 36.6 7.499999999999999
    vertex 15.0 37.6 7.499999999999999
  endloop
endfacet
facet normal 0.0 1.0 -3.169534746609932e-16
  outer loop
    vertex 8.000000000000002 49.6 7.499999999999999
    vertex 15.0 49.6 6.3999999999999995
    vertex 8.000000000000002 49.6 6.3999999999999995
  endloop
endfacet
facet normal 0.0 1.0 -3.169534746609932e-16
  outer loop
    vertex 15.0 49.6 6.3999999999999995
    vertex 8.000000000000002 49.6 7.499999999999999
    vertex 15.0 49.6 7.499999999999999
  endloop
endfacet
facet normal -1.9871893771542672e-16 3.169534746609932e-16 1.0
  outer loop
    vertex 15.0 49.6 6.3999999999999995
    vertex 8.000000000000002 50.98415079985017 6.399999999999999
    vertex 8.000000000000002 49.6 6.3999999999999995
  endloop
endfacet
facet normal -1.9871893771542672e-16 3.169534746609932e-16 1.0
  outer loop
    vertex 8.000000000000002 50.98415079985017 6.399999999999999
    vertex 15.0 49.6 6.3999999999999995
    vertex 10.000000000000002 52.32050807568878 6.399999999999997
  endloop
endfacet
facet normal -1.9871893771542672e-16 3.169534746609932e-16 1.0
  outer loop
    vertex 10.000000000000002 52.32050807568878 6.399999999999997
    vertex 15.0 49.6 6.3999999999999995
    vertex 12.346331352698204 53.477590650225736 6.399999999999999
  endloop
endfacet
facet normal -1.9871893771542672e-16 3.169534746609932e-16 1.0
  outer loop
    vertex 12.346331352698204 53.477590650225736 6.399999999999999
    vertex 15.0 49.6 6.3999999999999995
    vertex 14.823619097949587 54.31851652578136 6.399999999999999
  endloop
endfacet
facet normal -1.9871893771542672e-16 3.169534746609932e-16 1.0
  outer loop
    vertex 14.823619097949587 54.31851652578136 6.399999999999999
    vertex 15.0 49.6 6.3999999999999995
    vertex 15.0 54.353600868568776 6.3999999999999995
  endloop
endfacet
facet normal -4.028523546496997e-16 -1.0 -0.0
  outer loop
    vertex 15.0 24.599999999999994 7.499999999999999
    vertex 8.000000000000002 24.599999999999998 6.3999999999999995
    vertex 15.0 24.599999999999994 6.3999999999999995
  endloop
endfacet
facet normal -4.028523546496997e-16 -1.0 -0.0
  outer loop
    vertex 8.000000000000002 24.599999999999998 6.3999999999999995
    vertex 15.0 24.599999999999994 7.499999999999999
    vertex 8.000000000000002 24.599999999999998 7.499999999999999
  endloop
endfacet
facet normal -0.0 -1.0 -0.0
  outer loop
    vertex 15.0 30.6 7.499999999999999
    vertex 8.000000000000002 30.6 6.3999999999999995
    vertex 15.0 30.6 6.3999999999999995
  endloop
endfacet
facet normal -0.0 -1.0 -0.0
  outer loop
    vertex 8.000000000000002 30.6 6.3999999999999995
    vertex 15.0 30.6 7.499999999999999
    vertex 8.000000000000002 30.6 7.499999999999999
  endloop
endfacet
facet normal 0.0 0.0 1.0
  outer loop
    vertex 15.0 48.6 7.499999999999999
    vertex 8.000000000000002 49.6 7.499999999999999
    vertex 8.000000000000002 48.6 7.499999999999999
  endloop
endfacet
facet normal 0.0 0.0 1.0
  outer loop
    vertex 8.000000000000002 49.6 7.499999999999999
    vertex 15.0 48.6 7.499999999999999
    vertex 15.0 49.6 7.499999999999999
  endloop
endfacet
facet normal 0.0 1.0 0.0
  outer loop
    vertex 8.000000000000002 25.599999999999998 7.499999999999999
    vertex 15.0 25.599999999999998 6.3999999999999995
    vertex 8.000000000000002 25.599999999999998 6.3999999999999995
  endloop
endfacet
facet normal 0.0 1.0 0.0
  outer loop
    vertex 15.0 25.599999999999998 6.3999999999999995
    vertex 8.000000000000002 25.599999999999998 7.499999999999999
    vertex 15.0 25.599999999999998 7.499999999999999
  endloop
endfacet
facet normal 0.0 0.0 1.0
  outer loop
    vertex 15.0 25.599999999999998 6.3999999999999995
    vertex 8.000000000000002 30.6 6.3999999999999995
    vertex 8.000000000000002 25.599999999999998 6.3999999999999995
  endloop
endfacet
facet normal 0.0 0.0 1.0
  outer loop
    vertex 8.000000000000002 30.6 6.3999999999999995
    vertex 15.0 25.599999999999998 6.3999999999999995
    vertex 15.0 30.6 6.3999999999999995
  endloop
endfacet
facet normal -0.8660254037844389 0.4999999999999997 0.0
  outer loop
    vertex 6.165063509461098 33.75 7.999999999999999
    vertex 5.76776695296637 33.23223304703363 0.0
    vertex 5.76776695296637 33.23223304703363 7.999999999999999
  endloop
endfacet
facet normal -0.7071067811865476 0.7071067811865475 0.0
  outer loop
    vertex 5.76776695296637 33.23223304703363 0.0
    vertex 6.165063509461098 33.75 7.999999999999999
    vertex 6.165063509461098 33.75 0.0
  endloop
endfacet
facet normal -0.4999999999999999 0.8660254037844388 0.0
  outer loop
    vertex 5.250000000000002 32.8349364905389 7.999999999999999
    vertex 5.76776695296637 33.23223304703363 0.0
    vertex 5.250000000000002 32.8349364905389 0.0
  endloop
endfacet
facet normal -0.7071067811865476 0.7071067811865475 0.0
  outer loop
    vertex 5.76776695296637 33.23223304703363 0.0
    vertex 5.250000000000002 32.8349364905389 7.999999999999999
    vertex 5.76776695296637 33.23223304703363 7.999999999999999
  endloop
endfacet
facet normal -0.25881904510252257 0.965925826289068 0.0
  outer loop
    vertex 4.647047612756304 32.58518543427733 7.999999999999999
    vertex 5.250000000000002 32.8349364905389 0.0
    vertex 4.647047612756304 32.58518543427733 0.0
  endloop
endfacet
facet normal -0.4999999999999999 0.8660254037844388 0.0
  outer loop
    vertex 5.250000000000002 32.8349364905389 0.0
    vertex 4.647047612756304 32.58518543427733 7.999999999999999
    vertex 5.250000000000002 32.8349364905389 7.999999999999999
  endloop
endfacet
facet normal -0.9659258262890681 -0.25881904510252157 0.0
  outer loop
    vertex 6.414814565722671 35.6470476127563 7.999999999999999
    vertex 6.500000000000001 35.0 0.0
    vertex 6.500000000000001 35.0 7.999999999999999
  endloop
endfacet
facet normal -1.0 5.792221432170487e-16 0.0
  outer loop
    vertex 6.500000000000001 35.0 0.0
    vertex 6.414814565722671 35.6470476127563 7.999999999999999
    vertex 6.414814565722671 35.6470476127563 0.0
  endloop
endfacet
facet normal 2.0495552759987886e-16 1.0 0.0
  outer loop
    vertex 3.9999999999999996 32.5 7.999999999999999
    vertex 4.647047612756304 32.58518543427733 0.0
    vertex 3.9999999999999996 32.5 0.0
  endloop
endfacet
facet normal -0.25881904510252257 0.965925826289068 0.0
  outer loop
    vertex 4.647047612756304 32.58518543427733 0.0
    vertex 3.9999999999999996 32.5 7.999999999999999
    vertex 4.647047612756304 32.58518543427733 7.999999999999999
  endloop
endfacet
facet normal -1.0 5.792221432170487e-16 0.0
  outer loop
    vertex 6.500000000000001 35.0 7.999999999999999
    vertex 6.414814565722671 34.3529523872437 0.0
    vertex 6.414814565722671 34.3529523872437 7.999999999999999
  endloop
endfacet
facet normal -0.9659258262890683 0.25881904510252063 0.0
  outer loop
    vertex 6.414814565722671 34.3529523872437 0.0
    vertex 6.500000000000001 35.0 7.999999999999999
    vertex 6.500000000000001 35.0 0.0
  endloop
endfacet
facet normal 0.2588190451025226 0.965925826289068 0.0
  outer loop
    vertex 3.3529523872436977 32.58518543427733 7.999999999999999
    vertex 3.9999999999999996 32.5 0.0
    vertex 3.3529523872436977 32.58518543427733 0.0
  endloop
endfacet
facet normal 2.0495552759987886e-16 1.0 0.0
  outer loop
    vertex 3.9999999999999996 32.5 0.0
    vertex 3.3529523872436977 32.58518543427733 7.999999999999999
    vertex 3.9999999999999996 32.5 7.999999999999999
  endloop
endfacet
facet normal 0.49999999999999956 0.8660254037844389 0.0
  outer loop
    vertex 2.749999999999999 32.8349364905389 7.999999999999999
    vertex 3.3529523872436977 32.58518543427733 0.0
    vertex 2.749999999999999 32.8349364905389 0.0
  endloop
endfacet
facet normal 0.2588190451025226 0.965925826289068 0.0
  outer loop
    vertex 3.3529523872436977 32.58518543427733 0.0
    vertex 2.749999999999999 32.8349364905389 7.999999999999999
    vertex 3.3529523872436977 32.58518543427733 7.999999999999999
  endloop
endfacet
facet normal -0.9659258262890683 0.25881904510252063 0.0
  outer loop
    vertex 6.414814565722671 34.3529523872437 7.999999999999999
    vertex 6.165063509461098 33.75 0.0
    vertex 6.165063509461098 33.75 7.999999999999999
  endloop
endfacet
facet normal -0.8660254037844389 0.4999999999999997 0.0
  outer loop
    vertex 6.165063509461098 33.75 0.0
    vertex 6.414814565722671 34.3529523872437 7.999999999999999
    vertex 6.414814565722671 34.3529523872437 0.0
  endloop
endfacet
facet normal -0.866025403784437 -0.5000000000000028 0.0
  outer loop
    vertex 6.165063509461096 36.25 7.999999999999999
    vertex 6.414814565722671 35.6470476127563 0.0
    vertex 6.414814565722671 35.6470476127563 7.999999999999999
  endloop
endfacet
facet normal -0.9659258262890681 -0.25881904510252157 0.0
  outer loop
    vertex 6.414814565722671 35.6470476127563 0.0
    vertex 6.165063509461096 36.25 7.999999999999999
    vertex 6.165063509461096 36.25 0.0
  endloop
endfacet
facet normal -0.25881904510252063 -0.9659258262890684 0.0
  outer loop
    vertex 12.647047612756303 10.41481456572267 7.999999999999999
    vertex 12.0 10.5 0.0
    vertex 12.647047612756303 10.41481456572267 0.0
  endloop
endfacet
facet normal 1.425777583303505e-16 -1.0 0.0
  outer loop
    vertex 12.0 10.5 0.0
    vertex 12.647047612756303 10.41481456572267 7.999999999999999
    vertex 12.0 10.5 7.999999999999999
  endloop
endfacet
facet normal 0.7071067811865478 -0.7071067811865472 0.0
  outer loop
    vertex 2.2322330470336302 36.76776695296637 0.0
    vertex 1.834936490538902 36.24999999999999 7.999999999999999
    vertex 1.834936490538902 36.24999999999999 0.0
  endloop
endfacet
facet normal 0.8660254037844386 -0.4999999999999999 0.0
  outer loop
    vertex 1.834936490538902 36.24999999999999 7.999999999999999
    vertex 2.2322330470336302 36.76776695296637 0.0
    vertex 2.2322330470336302 36.76776695296637 7.999999999999999
  endloop
endfacet
facet normal -0.5 -0.8660254037844387 0.0
  outer loop
    vertex 13.250000000000002 10.165063509461097 7.999999999999999
    vertex 12.647047612756303 10.41481456572267 0.0
    vertex 13.250000000000002 10.165063509461097 0.0
  endloop
endfacet
facet normal -0.25881904510252063 -0.9659258262890684 0.0
  outer loop
    vertex 12.647047612756303 10.41481456572267 0.0
    vertex 13.250000000000002 10.165063509461097 7.999999999999999
    vertex 12.647047612756303 10.41481456572267 7.999999999999999
  endloop
endfacet
facet normal -0.7071067811865477 -0.7071067811865475 0.0
  outer loop
    vertex 13.76776695296637 9.767766952966369 7.999999999999999
    vertex 13.250000000000002 10.165063509461097 0.0
    vertex 13.76776695296637 9.767766952966369 0.0
  endloop
endfacet
facet normal -0.5 -0.8660254037844387 0.0
  outer loop
    vertex 13.250000000000002 10.165063509461097 0.0
    vertex 13.76776695296637 9.767766952966369 7.999999999999999
    vertex 13.250000000000002 10.165063509461097 7.999999999999999
  endloop
endfacet
facet normal -0.7071067811865477 -0.7071067811865475 0.0
  outer loop
    vertex 13.76776695296637 9.767766952966369 7.999999999999999
    vertex 14.165063509461099 9.25 0.0
    vertex 14.165063509461099 9.25 7.999999999999999
  endloop
endfacet
facet normal -0.8660254037844387 -0.49999999999999994 0.0
  outer loop
    vertex 14.165063509461099 9.25 0.0
    vertex 13.76776695296637 9.767766952966369 7.999999999999999
    vertex 13.76776695296637 9.767766952966369 0.0
  endloop
endfacet
facet normal -0.8660254037844387 -0.49999999999999994 0.0
  outer loop
    vertex 14.165063509461099 9.25 7.999999999999999
    vertex 14.414814565722672 8.647047612756301 0.0
    vertex 14.414814565722672 8.647047612756301 7.999999999999999
  endloop
endfacet
facet normal -0.9659258262890684 -0.25881904510252063 0.0
  outer loop
    vertex 14.414814565722672 8.647047612756301 0.0
    vertex 14.165063509461099 9.25 7.999999999999999
    vertex 14.165063509461099 9.25 0.0
  endloop
endfacet
facet normal -0.9659258262890684 -0.25881904510252063 0.0
  outer loop
    vertex 14.414814565722672 8.647047612756301 7.999999999999999
    vertex 14.500000000000002 7.999999999999999 0.0
    vertex 14.500000000000002 7.999999999999999 7.999999999999999
  endloop
endfacet
facet normal -1.0 -1.425777583303505e-16 0.0
  outer loop
    vertex 14.500000000000002 7.999999999999999 0.0
    vertex 14.414814565722672 8.647047612756301 7.999999999999999
    vertex 14.414814565722672 8.647047612756301 0.0
  endloop
endfacet
facet normal -1.0 -1.425777583303505e-16 0.0
  outer loop
    vertex 14.500000000000002 7.999999999999999 7.999999999999999
    vertex 14.414814565722672 7.352952387243695 0.0
    vertex 14.414814565722672 7.352952387243695 7.999999999999999
  endloop
endfacet
facet normal -0.9659258262890684 0.25881904510252046 0.0
  outer loop
    vertex 14.414814565722672 7.352952387243695 0.0
    vertex 14.500000000000002 7.999999999999999 7.999999999999999
    vertex 14.500000000000002 7.999999999999999 0.0
  endloop
endfacet
facet normal 0.8660254037844386 -0.4999999999999999 0.0
  outer loop
    vertex 1.834936490538902 36.24999999999999 0.0
    vertex 1.585185434277328 35.647047612756296 7.999999999999999
    vertex 1.585185434277328 35.647047612756296 0.0
  endloop
endfacet
facet normal 0.9659258262890682 -0.25881904510252135 0.0
  outer loop
    vertex 1.585185434277328 35.647047612756296 7.999999999999999
    vertex 1.834936490538902 36.24999999999999 0.0
    vertex 1.834936490538902 36.24999999999999 7.999999999999999
  endloop
endfacet
facet normal -0.9659258262890684 0.25881904510252046 0.0
  outer loop
    vertex 14.414814565722672 7.352952387243695 7.999999999999999
    vertex 14.165063509461099 6.749999999999997 0.0
    vertex 14.165063509461099 6.749999999999997 7.999999999999999
  endloop
endfacet
facet normal -0.866025403784438 0.5000000000000013 0.0
  outer loop
    vertex 14.165063509461099 6.749999999999997 0.0
    vertex 14.414814565722672 7.352952387243695 7.999999999999999
    vertex 14.414814565722672 7.352952387243695 0.0
  endloop
endfacet
facet normal -0.866025403784438 0.5000000000000013 0.0
  outer loop
    vertex 14.165063509461099 6.749999999999997 7.999999999999999
    vertex 13.767766952966369 6.232233047033629 0.0
    vertex 13.767766952966369 6.232233047033629 7.999999999999999
  endloop
endfacet
facet normal -0.7071067811865461 0.7071067811865489 0.0
  outer loop
    vertex 13.767766952966369 6.232233047033629 0.0
    vertex 14.165063509461099 6.749999999999997 7.999999999999999
    vertex 14.165063509461099 6.749999999999997 0.0
  endloop
endfacet
facet normal 0.9659258262890682 -0.25881904510252135 0.0
  outer loop
    vertex 1.585185434277328 35.647047612756296 0.0
    vertex 1.4999999999999987 35.0 7.999999999999999
    vertex 1.4999999999999987 35.0 0.0
  endloop
endfacet
facet normal 1.0 0.0 0.0
  outer loop
    vertex 1.4999999999999987 35.0 7.999999999999999
    vertex 1.585185434277328 35.647047612756296 0.0
    vertex 1.585185434277328 35.647047612756296 7.999999999999999
  endloop
endfacet
facet normal 0.866025403784438 0.500000000000001 0.0
  outer loop
    vertex 1.834936490538902 33.74999999999999 0.0
    vertex 2.2322330470336302 33.23223304703363 7.999999999999999
    vertex 2.2322330470336302 33.23223304703363 0.0
  endloop
endfacet
facet normal 0.7071067811865457 0.7071067811865493 0.0
  outer loop
    vertex 2.2322330470336302 33.23223304703363 7.999999999999999
    vertex 1.834936490538902 33.74999999999999 0.0
    vertex 1.834936490538902 33.74999999999999 7.999999999999999
  endloop
endfacet
facet normal -0.4999999999999995 0.8660254037844389 0.0
  outer loop
    vertex 13.249999999999998 5.834936490538901 7.999999999999999
    vertex 13.767766952966369 6.232233047033629 0.0
    vertex 13.249999999999998 5.834936490538901 0.0
  endloop
endfacet
facet normal -0.7071067811865461 0.7071067811865489 0.0
  outer loop
    vertex 13.767766952966369 6.232233047033629 0.0
    vertex 13.249999999999998 5.834936490538901 7.999999999999999
    vertex 13.767766952966369 6.232233047033629 7.999999999999999
  endloop
endfacet
facet normal 0.9659258262890685 0.2588190451025198 0.0
  outer loop
    vertex 1.585185434277328 34.3529523872437 0.0
    vertex 1.834936490538902 33.74999999999999 7.999999999999999
    vertex 1.834936490538902 33.74999999999999 0.0
  endloop
endfacet
facet normal 0.866025403784438 0.500000000000001 0.0
  outer loop
    vertex 1.834936490538902 33.74999999999999 7.999999999999999
    vertex 1.585185434277328 34.3529523872437 0.0
    vertex 1.585185434277328 34.3529523872437 7.999999999999999
  endloop
endfacet
facet normal -0.25881904510252063 0.9659258262890684 0.0
  outer loop
    vertex 12.647047612756301 5.585185434277328 7.999999999999999
    vertex 13.249999999999998 5.834936490538901 0.0
    vertex 12.647047612756301 5.585185434277328 0.0
  endloop
endfacet
facet normal -0.4999999999999995 0.8660254037844389 0.0
  outer loop
    vertex 13.249999999999998 5.834936490538901 0.0
    vertex 12.647047612756301 5.585185434277328 7.999999999999999
    vertex 13.249999999999998 5.834936490538901 7.999999999999999
  endloop
endfacet
facet normal -2.7624440676505406e-16 1.0 0.0
  outer loop
    vertex 12.0 5.499999999999998 7.999999999999999
    vertex 12.647047612756301 5.585185434277328 0.0
    vertex 12.0 5.499999999999998 0.0
  endloop
endfacet
facet normal -0.25881904510252063 0.9659258262890684 0.0
  outer loop
    vertex 12.647047612756301 5.585185434277328 0.0
    vertex 12.0 5.499999999999998 7.999999999999999
    vertex 12.647047612756301 5.585185434277328 7.999999999999999
  endloop
endfacet
facet normal 0.2588190451025214 0.9659258262890681 0.0
  outer loop
    vertex 11.352952387243697 5.585185434277328 7.999999999999999
    vertex 12.0 5.499999999999998 0.0
    vertex 11.352952387243697 5.585185434277328 0.0
  endloop
endfacet
facet normal -2.7624440676505406e-16 1.0 0.0
  outer loop
    vertex 12.0 5.499999999999998 0.0
    vertex 11.352952387243697 5.585185434277328 7.999999999999999
    vertex 12.0 5.499999999999998 7.999999999999999
  endloop
endfacet
facet normal 0.5000000000000007 0.8660254037844383 0.0
  outer loop
    vertex 10.749999999999998 5.834936490538903 7.999999999999999
    vertex 11.352952387243697 5.585185434277328 0.0
    vertex 10.749999999999998 5.834936490538903 0.0
  endloop
endfacet
facet normal 0.2588190451025214 0.9659258262890681 0.0
  outer loop
    vertex 11.352952387243697 5.585185434277328 0.0
    vertex 10.749999999999998 5.834936490538903 7.999999999999999
    vertex 11.352952387243697 5.585185434277328 7.999999999999999
  endloop
endfacet
facet normal 0.7071067811865476 0.7071067811865476 0.0
  outer loop
    vertex 10.23223304703363 6.23223304703363 7.999999999999999
    vertex 10.749999999999998 5.834936490538903 0.0
    vertex 10.23223304703363 6.23223304703363 0.0
  endloop
endfacet
facet normal 0.5000000000000007 0.8660254037844383 0.0
  outer loop
    vertex 10.749999999999998 5.834936490538903 0.0
    vertex 10.23223304703363 6.23223304703363 7.999999999999999
    vertex 10.749999999999998 5.834936490538903 7.999999999999999
  endloop
endfacet
facet normal 0.7071067811865457 0.7071067811865493 0.0
  outer loop
    vertex 2.2322330470336302 33.23223304703363 7.999999999999999
    vertex 2.749999999999999 32.8349364905389 0.0
    vertex 2.2322330470336302 33.23223304703363 0.0
  endloop
endfacet
facet normal 0.49999999999999956 0.8660254037844389 0.0
  outer loop
    vertex 2.749999999999999 32.8349364905389 0.0
    vertex 2.2322330470336302 33.23223304703363 7.999999999999999
    vertex 2.749999999999999 32.8349364905389 7.999999999999999
  endloop
endfacet
facet normal 0.8660254037844389 0.49999999999999956 0.0
  outer loop
    vertex 9.834936490538903 6.749999999999999 0.0
    vertex 10.23223304703363 6.23223304703363 7.999999999999999
    vertex 10.23223304703363 6.23223304703363 0.0
  endloop
endfacet
facet normal 0.7071067811865476 0.7071067811865476 0.0
  outer loop
    vertex 10.23223304703363 6.23223304703363 7.999999999999999
    vertex 9.834936490538903 6.749999999999999 0.0
    vertex 9.834936490538903 6.749999999999999 7.999999999999999
  endloop
endfacet
facet normal 0.9659258262890684 0.2588190451025203 0.0
  outer loop
    vertex 9.58518543427733 7.352952387243699 0.0
    vertex 9.834936490538903 6.749999999999999 7.999999999999999
    vertex 9.834936490538903 6.749999999999999 0.0
  endloop
endfacet
facet normal 0.8660254037844389 0.49999999999999956 0.0
  outer loop
    vertex 9.834936490538903 6.749999999999999 7.999999999999999
    vertex 9.58518543427733 7.352952387243699 0.0
    vertex 9.58518543427733 7.352952387243699 7.999999999999999
  endloop
endfacet
facet normal 1.0 1.247555385390567e-16 0.0
  outer loop
    vertex 9.5 7.999999999999999 0.0
    vertex 9.58518543427733 7.352952387243699 7.999999999999999
    vertex 9.58518543427733 7.352952387243699 0.0
  endloop
endfacet
facet normal 0.9659258262890684 0.2588190451025203 0.0
  outer loop
    vertex 9.58518543427733 7.352952387243699 7.999999999999999
    vertex 9.5 7.999999999999999 0.0
    vertex 9.5 7.999999999999999 7.999999999999999
  endloop
endfacet
facet normal 0.9659258262890684 -0.2588190451025202 0.0
  outer loop
    vertex 9.58518543427733 8.647047612756301 0.0
    vertex 9.5 7.999999999999999 7.999999999999999
    vertex 9.5 7.999999999999999 0.0
  endloop
endfacet
facet normal 1.0 1.247555385390567e-16 0.0
  outer loop
    vertex 9.5 7.999999999999999 7.999999999999999
    vertex 9.58518543427733 8.647047612756301 0.0
    vertex 9.58518543427733 8.647047612756301 7.999999999999999
  endloop
endfacet
facet normal 0.8660254037844386 -0.5000000000000003 0.0
  outer loop
    vertex 9.834936490538903 9.250000000000002 0.0
    vertex 9.58518543427733 8.647047612756301 7.999999999999999
    vertex 9.58518543427733 8.647047612756301 0.0
  endloop
endfacet
facet normal 0.9659258262890684 -0.2588190451025202 0.0
  outer loop
    vertex 9.58518543427733 8.647047612756301 7.999999999999999
    vertex 9.834936490538903 9.250000000000002 0.0
    vertex 9.834936490538903 9.250000000000002 7.999999999999999
  endloop
endfacet
facet normal 0.707106781186547 -0.7071067811865481 0.0
  outer loop
    vertex 10.232233047033631 9.76776695296637 0.0
    vertex 9.834936490538903 9.250000000000002 7.999999999999999
    vertex 9.834936490538903 9.250000000000002 0.0
  endloop
endfacet
facet normal 0.8660254037844386 -0.5000000000000003 0.0
  outer loop
    vertex 9.834936490538903 9.250000000000002 7.999999999999999
    vertex 10.232233047033631 9.76776695296637 0.0
    vertex 10.232233047033631 9.76776695296637 7.999999999999999
  endloop
endfacet
facet normal 0.49999999999999967 -0.8660254037844388 0.0
  outer loop
    vertex 2.7499999999999987 37.16506350946109 7.999999999999999
    vertex 2.2322330470336302 36.76776695296637 0.0
    vertex 2.7499999999999987 37.16506350946109 0.0
  endloop
endfacet
facet normal 0.7071067811865478 -0.7071067811865472 0.0
  outer loop
    vertex 2.2322330470336302 36.76776695296637 0.0
    vertex 2.7499999999999987 37.16506350946109 7.999999999999999
    vertex 2.2322330470336302 36.76776695296637 7.999999999999999
  endloop
endfacet
facet normal 0.49999999999999956 -0.8660254037844389 0.0
  outer loop
    vertex 10.75 10.165063509461097 7.999999999999999
    vertex 10.232233047033631 9.76776695296637 0.0
    vertex 10.75 10.165063509461097 0.0
  endloop
endfacet
facet normal 0.707106781186547 -0.7071067811865481 0.0
  outer loop
    vertex 10.232233047033631 9.76776695296637 0.0
    vertex 10.75 10.165063509461097 7.999999999999999
    vertex 10.232233047033631 9.76776695296637 7.999999999999999
  endloop
endfacet
facet normal 0.25881904510252035 -0.9659258262890684 0.0
  outer loop
    vertex 11.352952387243699 10.41481456572267 7.999999999999999
    vertex 10.75 10.165063509461097 0.0
    vertex 11.352952387243699 10.41481456572267 0.0
  endloop
endfacet
facet normal 0.49999999999999956 -0.8660254037844389 0.0
  outer loop
    vertex 10.75 10.165063509461097 0.0
    vertex 11.352952387243699 10.41481456572267 7.999999999999999
    vertex 10.75 10.165063509461097 7.999999999999999
  endloop
endfacet
facet normal 1.425777583303505e-16 -1.0 0.0
  outer loop
    vertex 12.0 10.5 7.999999999999999
    vertex 11.352952387243699 10.41481456572267 0.0
    vertex 12.0 10.5 0.0
  endloop
endfacet
facet normal 0.25881904510252035 -0.9659258262890684 0.0
  outer loop
    vertex 11.352952387243699 10.41481456572267 0.0
    vertex 12.0 10.5 7.999999999999999
    vertex 11.352952387243699 10.41481456572267 7.999999999999999
  endloop
endfacet
facet normal 0.25881904510252257 -0.965925826289068 0.0
  outer loop
    vertex 3.352952387243697 37.414814565722665 7.999999999999999
    vertex 2.7499999999999987 37.16506350946109 0.0
    vertex 3.352952387243697 37.414814565722665 0.0
  endloop
endfacet
facet normal 0.49999999999999967 -0.8660254037844388 0.0
  outer loop
    vertex 2.7499999999999987 37.16506350946109 0.0
    vertex 3.352952387243697 37.414814565722665 7.999999999999999
    vertex 2.7499999999999987 37.16506350946109 7.999999999999999
  endloop
endfacet
facet normal 1.0 0.0 0.0
  outer loop
    vertex 1.4999999999999987 35.0 0.0
    vertex 1.585185434277328 34.3529523872437 7.999999999999999
    vertex 1.585185434277328 34.3529523872437 0.0
  endloop
endfacet
facet normal 0.9659258262890685 0.2588190451025198 0.0
  outer loop
    vertex 1.585185434277328 34.3529523872437 7.999999999999999
    vertex 1.4999999999999987 35.0 0.0
    vertex 1.4999999999999987 35.0 7.999999999999999
  endloop
endfacet
facet normal 4.4609855372378257e-20 0.9999980823566702 0.001958387852894999
  outer loop
    vertex 8.0 19.591383076923076 4.399999999999999
    vertex 15.0 19.599999999999998 0.0
    vertex 8.0 19.599999999999998 0.0
  endloop
endfacet
facet normal 4.4609855372378257e-20 0.9999980823566702 0.001958387852894999
  outer loop
    vertex 15.0 19.599999999999998 0.0
    vertex 8.0 19.591383076923076 4.399999999999999
    vertex 15.0 19.591383076923076 4.399999999999999
  endloop
endfacet
facet normal -0.0 -1.0 -0.0
  outer loop
    vertex 15.0 48.6 7.499999999999999
    vertex 8.000000000000002 48.6 6.3999999999999995
    vertex 15.0 48.6 6.3999999999999995
  endloop
endfacet
facet normal -0.0 -1.0 -0.0
  outer loop
    vertex 8.000000000000002 48.6 6.3999999999999995
    vertex 15.0 48.6 7.499999999999999
    vertex 8.000000000000002 48.6 7.499999999999999
  endloop
endfacet
facet normal -0.0 -1.0 -0.0
  outer loop
    vertex 15.0 36.6 7.499999999999999
    vertex 8.000000000000002 36.6 6.3999999999999995
    vertex 15.0 36.6 6.3999999999999995
  endloop
endfacet
facet normal -0.0 -1.0 -0.0
  outer loop
    vertex 8.000000000000002 36.6 6.3999999999999995
    vertex 15.0 36.6 7.499999999999999
    vertex 8.000000000000002 36.6 7.499999999999999
  endloop
endfacet
facet normal 0.0 1.0 0.0
  outer loop
    vertex 8.000000000000002 43.6 7.499999999999999
    vertex 15.0 43.6 6.3999999999999995
    vertex 8.000000000000002 43.6 6.3999999999999995
  endloop
endfacet
facet normal 0.0 1.0 0.0
  outer loop
    vertex 15.0 43.6 6.3999999999999995
    vertex 8.000000000000002 43.6 7.499999999999999
    vertex 15.0 43.6 7.499999999999999
  endloop
endfacet
facet normal -5.098389216021067e-18 0.892876451529249 -0.4503017236304309
  outer loop
    vertex 8.0 20.600037124992525 6.3999999999999995
    vertex 15.0 19.591383076923076 4.399999999999999
    vertex 8.0 19.591383076923076 4.399999999999999
  endloop
endfacet
facet normal -5.098389216021067e-18 0.892876451529249 -0.4503017236304309
  outer loop
    vertex 15.0 19.591383076923076 4.399999999999999
    vertex 8.0 20.600037124992525 6.3999999999999995
    vertex 15.0 20.600037124992525 6.3999999999999995
  endloop
endfacet
facet normal -1.0 2.423710883270107e-17 1.1684140603600524e-16
  outer loop
    vertex 8.0 19.599999999999998 0.0
    vertex 8.0 17.0 0.0
    vertex 8.0 19.591383076923076 4.399999999999999
  endloop
endfacet
facet normal -1.0 2.423710883270107e-17 1.1684140603600524e-16
  outer loop
    vertex 8.0 17.0 7.999999999999999
    vertex 8.0 20.600037124992525 6.3999999999999995
    vertex 8.0 17.0 0.0
  endloop
endfacet
facet normal -1.0 2.423710883270107e-17 1.1684140603600524e-16
  outer loop
    vertex 8.0 20.600037124992525 6.3999999999999995
    vertex 8.0 17.0 7.999999999999999
    vertex 8.000000000000002 24.599999999999998 7.499999999999999
  endloop
endfacet
facet normal -1.0 2.423710883270107e-17 1.1684140603600524e-16
  outer loop
    vertex 8.000000000000002 24.599999999999998 7.499999999999999
    vertex 8.0 17.0 7.999999999999999
    vertex 8.000000000000002 50.98415079985017 7.999999999999998
  endloop
endfacet
facet normal -1.0 2.423710883270107e-17 1.1684140603600524e-16
  outer loop
    vertex 8.0 17.0 0.0
    vertex 8.0 20.600037124992525 6.3999999999999995
    vertex 8.0 19.591383076923076 4.399999999999999
  endloop
endfacet
facet normal -1.0 2.423710883270107e-17 1.1684140603600524e-16
  outer loop
    vertex 8.000000000000002 24.599999999999998 7.499999999999999
    vertex 8.000000000000002 50.98415079985017 7.999999999999998
    vertex 8.000000000000002 25.599999999999998 7.499999999999999
  endloop
endfacet
facet normal -1.0 2.423710883270107e-17 1.1684140603600524e-16
  outer loop
    vertex 8.000000000000002 25.599999999999998 7.499999999999999
    vertex 8.000000000000002 50.98415079985017 7.999999999999998
    vertex 8.000000000000002 30.6 7.499999999999999
  endloop
endfacet
facet normal -1.0 2.423710883270107e-17 1.1684140603600524e-16
  outer loop
    vertex 8.000000000000002 25.599999999999998 7.499999999999999
    vertex 8.000000000000002 30.6 7.499999999999999
    vertex 8.000000000000002 25.599999999999998 6.3999999999999995
  endloop
endfacet
facet normal -1.0 2.423710883270107e-17 1.1684140603600524e-16
  outer loop
    vertex 8.000000000000002 30.6 7.499999999999999
    vertex 8.000000000000002 50.98415079985017 7.999999999999998
    vertex 8.000000000000002 31.599999999999998 7.499999999999999
  endloop
endfacet
facet normal -1.0 2.423710883270107e-17 1.1684140603600524e-16
  outer loop
    vertex 8.000000000000002 31.599999999999998 7.499999999999999
    vertex 8.000000000000002 50.98415079985017 7.999999999999998
    vertex 8.000000000000002 36.6 7.499999999999999
  endloop
endfacet
facet normal -1.0 2.423710883270107e-17 1.1684140603600524e-16
  outer loop
    vertex 8.000000000000002 31.599999999999998 7.499999999999999
    vertex 8.000000000000002 36.6 7.499999999999999
    vertex 8.000000000000002 31.599999999999998 6.3999999999999995
  endloop
endfacet
facet normal -1.0 2.423710883270107e-17 1.1684140603600524e-16
  outer loop
    vertex 8.000000000000002 36.6 7.499999999999999
    vertex 8.000000000000002 50.98415079985017 7.999999999999998
    vertex 8.000000000000002 37.6 7.499999999999999
  endloop
endfacet
facet normal -1.0 2.423710883270107e-17 1.1684140603600524e-16
  outer loop
    vertex 8.000000000000002 37.6 7.499999999999999
    vertex 8.000000000000002 50.98415079985017 7.999999999999998
    vertex 8.000000000000002 42.6 7.499999999999999
  endloop
endfacet
facet normal -1.0 2.423710883270107e-17 1.1684140603600524e-16
  outer loop
    vertex 8.000000000000002 37.6 7.499999999999999
    vertex 8.000000000000002 42.6 7.499999999999999
    vertex 8.000000000000002 37.6 6.3999999999999995
  endloop
endfacet
facet normal -1.0 2.423710883270107e-17 1.1684140603600524e-16
  outer loop
    vertex 8.000000000000002 42.6 7.499999999999999
    vertex 8.000000000000002 50.98415079985017 7.999999999999998
    vertex 8.000000000000002 43.6 7.499999999999999
  endloop
endfacet
facet normal -1.0 2.423710883270107e-17 1.1684140603600524e-16
  outer loop
    vertex 8.000000000000002 43.6 7.499999999999999
    vertex 8.000000000000002 50.98415079985017 7.999999999999998
    vertex 8.000000000000002 48.6 7.499999999999999
  endloop
endfacet
facet normal -1.0 2.423710883270107e-17 1.1684140603600524e-16
  outer loop
    vertex 8.000000000000002 43.6 7.499999999999999
    vertex 8.000000000000002 48.6 7.499999999999999
    vertex 8.000000000000002 43.6 6.3999999999999995
  endloop
endfacet
facet normal -1.0 2.423710883270107e-17 1.1684140603600524e-16
  outer loop
    vertex 8.000000000000002 48.6 7.499999999999999
    vertex 8.000000000000002 50.98415079985017 7.999999999999998
    vertex 8.000000000000002 49.6 7.499999999999999
  endloop
endfacet
facet normal -1.0 2.423710883270107e-17 1.1684140603600524e-16
  outer loop
    vertex 8.000000000000002 49.6 7.499999999999999
    vertex 8.000000000000002 50.98415079985017 7.999999999999998
    vertex 8.000000000000002 49.6 6.3999999999999995
  endloop
endfacet
facet normal -1.0 2.423710883270107e-17 1.1684140603600524e-16
  outer loop
    vertex 8.000000000000002 49.6 6.3999999999999995
    vertex 8.000000000000002 50.98415079985017 7.999999999999998
    vertex 8.000000000000002 50.98415079985017 6.399999999999999
  endloop
endfacet
facet normal -1.0 2.423710883270107e-17 1.1684140603600524e-16
  outer loop
    vertex 8.000000000000002 48.6 6.3999999999999995
    vertex 8.000000000000002 43.6 6.3999999999999995
    vertex 8.000000000000002 48.6 7.499999999999999
  endloop
endfacet
facet normal -1.0 2.423710883270107e-17 1.1684140603600524e-16
  outer loop
    vertex 8.000000000000002 42.6 6.3999999999999995
    vertex 8.000000000000002 37.6 6.3999999999999995
    vertex 8.000000000000002 42.6 7.499999999999999
  endloop
endfacet
facet normal -1.0 2.423710883270107e-17 1.1684140603600524e-16
  outer loop
    vertex 8.000000000000002 36.6 6.3999999999999995
    vertex 8.000000000000002 31.599999999999998 6.3999999999999995
    vertex 8.000000000000002 36.6 7.499999999999999
  endloop
endfacet
facet normal -1.0 2.423710883270107e-17 1.1684140603600524e-16
  outer loop
    vertex 8.000000000000002 30.6 6.3999999999999995
    vertex 8.000000000000002 25.599999999999998 6.3999999999999995
    vertex 8.000000000000002 30.6 7.499999999999999
  endloop
endfacet
facet normal -1.0 2.423710883270107e-17 1.1684140603600524e-16
  outer loop
    vertex 8.000000000000002 24.599999999999998 6.3999999999999995
    vertex 8.0 20.600037124992525 6.3999999999999995
    vertex 8.000000000000002 24.599999999999998 7.499999999999999
  endloop
endfacet
facet normal -1.0 0.0 0.0
  outer loop
    vertex 15.0 17.000000000000004 7.999999999999999
    vertex 15.0 20.600037124992525 6.3999999999999995
    vertex 15.0 17.000000000000004 0.0
  endloop
endfacet
facet normal -1.0 0.0 0.0
  outer loop
    vertex 15.0 20.600037124992525 6.3999999999999995
    vertex 15.0 17.000000000000004 7.999999999999999
    vertex 15.0 24.599999999999994 7.499999999999999
  endloop
endfacet
facet normal -1.0 0.0 0.0
  outer loop
    vertex 15.0 24.599999999999994 7.499999999999999
    vertex 15.0 17.000000000000004 7.999999999999999
    vertex 15.0 54.353600868568776 7.999999999999999
  endloop
endfacet
facet normal -1.0 0.0 0.0
  outer loop
    vertex 15.0 17.000000000000004 0.0
    vertex 15.0 20.600037124992525 6.3999999999999995
    vertex 15.0 19.591383076923076 4.399999999999999
  endloop
endfacet
facet normal -1.0 0.0 0.0
  outer loop
    vertex 15.0 24.599999999999994 7.499999999999999
    vertex 15.0 54.353600868568776 7.999999999999999
    vertex 15.0 25.599999999999998 7.499999999999999
  endloop
endfacet
facet normal -1.0 0.0 0.0
  outer loop
    vertex 15.0 25.599999999999998 7.499999999999999
    vertex 15.0 54.353600868568776 7.999999999999999
    vertex 15.0 30.6 7.499999999999999
  endloop
endfacet
facet normal -1.0 0.0 0.0
  outer loop
    vertex 15.0 25.599999999999998 7.499999999999999
    vertex 15.0 30.6 7.499999999999999
    vertex 15.0 25.599999999999998 6.3999999999999995
  endloop
endfacet
facet normal -1.0 0.0 0.0
  outer loop
    vertex 15.0 30.6 7.499999999999999
    vertex 15.0 54.353600868568776 7.999999999999999
    vertex 15.0 31.599999999999998 7.499999999999999
  endloop
endfacet
facet normal -1.0 0.0 0.0
  outer loop
    vertex 15.0 31.599999999999998 7.499999999999999
    vertex 15.0 54.353600868568776 7.999999999999999
    vertex 15.0 36.6 7.499999999999999
  endloop
endfacet
facet normal -1.0 0.0 0.0
  outer loop
    vertex 15.0 31.599999999999998 7.499999999999999
    vertex 15.0 36.6 7.499999999999999
    vertex 15.0 31.599999999999998 6.3999999999999995
  endloop
endfacet
facet normal -1.0 0.0 0.0
  outer loop
    vertex 15.0 36.6 7.499999999999999
    vertex 15.0 54.353600868568776 7.999999999999999
    vertex 15.0 37.6 7.499999999999999
  endloop
endfacet
facet normal -1.0 0.0 0.0
  outer loop
    vertex 15.0 37.6 7.499999999999999
    vertex 15.0 54.353600868568776 7.999999999999999
    vertex 15.0 42.6 7.499999999999999
  endloop
endfacet
facet normal -1.0 0.0 0.0
  outer loop
    vertex 15.0 37.6 7.499999999999999
    vertex 15.0 42.6 7.499999999999999
    vertex 15.0 37.6 6.3999999999999995
  endloop
endfacet
facet normal -1.0 0.0 0.0
  outer loop
    vertex 15.0 42.6 7.499999999999999
    vertex 15.0 54.353600868568776 7.999999999999999
    vertex 15.0 43.6 7.499999999999999
  endloop
endfacet
facet normal -1.0 0.0 0.0
  outer loop
    vertex 15.0 43.6 7.499999999999999
    vertex 15.0 54.353600868568776 7.999999999999999
    vertex 15.0 48.6 7.499999999999999
  endloop
endfacet
facet normal -1.0 0.0 0.0
  outer loop
    vertex 15.0 43.6 7.499999999999999
    vertex 15.0 48.6 7.499999999999999
    vertex 15.0 43.6 6.3999999999999995
  endloop
endfacet
facet normal -1.0 0.0 0.0
  outer loop
    vertex 15.0 48.6 7.499999999999999
    vertex 15.0 54.353600868568776 7.999999999999999
    vertex 15.0 49.6 7.499999999999999
  endloop
endfacet
facet normal -1.0 0.0 0.0
  outer loop
    vertex 15.0 49.6 7.499999999999999
    vertex 15.0 54.353600868568776 7.999999999999999
    vertex 15.0 49.6 6.3999999999999995
  endloop
endfacet
facet normal -1.0 0.0 0.0
  outer loop
    vertex 15.0 49.6 6.3999999999999995
    vertex 15.0 54.353600868568776 7.999999999999999
    vertex 15.0 54.353600868568776 6.3999999999999995
  endloop
endfacet
facet normal -1.0 0.0 0.0
  outer loop
    vertex 15.0 48.6 6.3999999999999995
    vertex 15.0 43.6 6.3999999999999995
    vertex 15.0 48.6 7.499999999999999
  endloop
endfacet
facet normal -1.0 0.0 0.0
  outer loop
    vertex 15.0 42.6 6.3999999999999995
    vertex 15.0 37.6 6.3999999999999995
    vertex 15.0 42.6 7.499999999999999
  endloop
endfacet
facet normal -1.0 0.0 0.0
  outer loop
    vertex 15.0 36.6 6.3999999999999995
    vertex 15.0 31.599999999999998 6.3999999999999995
    vertex 15.0 36.6 7.499999999999999
  endloop
endfacet
facet normal -1.0 0.0 0.0
  outer loop
    vertex 15.0 30.6 6.3999999999999995
    vertex 15.0 25.599999999999998 6.3999999999999995
    vertex 15.0 30.6 7.499999999999999
  endloop
endfacet
facet normal -1.0 0.0 0.0
  outer loop
    vertex 15.0 24.599999999999994 6.3999999999999995
    vertex 15.0 20.600037124992525 6.3999999999999995
    vertex 15.0 24.599999999999994 7.499999999999999
  endloop
endfacet
facet normal -1.0 0.0 0.0
  outer loop
    vertex 15.0 19.599999999999998 0.0
    vertex 15.0 17.000000000000004 0.0
    vertex 15.0 19.591383076923076 4.399999999999999
  endloop
endfacet
facet normal 0.0 0.0 1.0
  outer loop
    vertex 15.0 20.600037124992525 6.3999999999999995
    vertex 8.000000000000002 24.599999999999998 6.3999999999999995
    vertex 8.0 20.600037124992525 6.3999999999999995
  endloop
endfacet
facet normal 0.0 0.0 1.0
  outer loop
    vertex 8.000000000000002 24.599999999999998 6.3999999999999995
    vertex 15.0 20.600037124992525 6.3999999999999995
    vertex 15.0 24.599999999999994 6.3999999999999995
  endloop
endfacet
endsolid right belt holder ver2
